%TF.GenerationSoftware,KiCad,Pcbnew,8.0.6*%
%TF.CreationDate,2025-03-10T13:49:55+00:00*%
%TF.ProjectId,Example,4578616d-706c-4652-9e6b-696361645f70,rev?*%
%TF.SameCoordinates,Original*%
%TF.FileFunction,Legend,Top*%
%TF.FilePolarity,Positive*%
%FSLAX46Y46*%
G04 Gerber Fmt 4.6, Leading zero omitted, Abs format (unit mm)*
G04 Created by KiCad (PCBNEW 8.0.6) date 2025-03-10 13:49:55*
%MOMM*%
%LPD*%
G01*
G04 APERTURE LIST*
%ADD10C,0.300000*%
%ADD11C,0.150000*%
%ADD12C,0.120000*%
G04 APERTURE END LIST*
D10*
X101554510Y-78515114D02*
X101768796Y-78586542D01*
X101768796Y-78586542D02*
X101840225Y-78657971D01*
X101840225Y-78657971D02*
X101911653Y-78800828D01*
X101911653Y-78800828D02*
X101911653Y-79015114D01*
X101911653Y-79015114D02*
X101840225Y-79157971D01*
X101840225Y-79157971D02*
X101768796Y-79229400D01*
X101768796Y-79229400D02*
X101625939Y-79300828D01*
X101625939Y-79300828D02*
X101054510Y-79300828D01*
X101054510Y-79300828D02*
X101054510Y-77800828D01*
X101054510Y-77800828D02*
X101554510Y-77800828D01*
X101554510Y-77800828D02*
X101697368Y-77872257D01*
X101697368Y-77872257D02*
X101768796Y-77943685D01*
X101768796Y-77943685D02*
X101840225Y-78086542D01*
X101840225Y-78086542D02*
X101840225Y-78229400D01*
X101840225Y-78229400D02*
X101768796Y-78372257D01*
X101768796Y-78372257D02*
X101697368Y-78443685D01*
X101697368Y-78443685D02*
X101554510Y-78515114D01*
X101554510Y-78515114D02*
X101054510Y-78515114D01*
X102554510Y-79300828D02*
X102554510Y-78300828D01*
X102554510Y-77800828D02*
X102483082Y-77872257D01*
X102483082Y-77872257D02*
X102554510Y-77943685D01*
X102554510Y-77943685D02*
X102625939Y-77872257D01*
X102625939Y-77872257D02*
X102554510Y-77800828D01*
X102554510Y-77800828D02*
X102554510Y-77943685D01*
X103911654Y-78300828D02*
X103911654Y-79515114D01*
X103911654Y-79515114D02*
X103840225Y-79657971D01*
X103840225Y-79657971D02*
X103768796Y-79729400D01*
X103768796Y-79729400D02*
X103625939Y-79800828D01*
X103625939Y-79800828D02*
X103411654Y-79800828D01*
X103411654Y-79800828D02*
X103268796Y-79729400D01*
X103911654Y-79229400D02*
X103768796Y-79300828D01*
X103768796Y-79300828D02*
X103483082Y-79300828D01*
X103483082Y-79300828D02*
X103340225Y-79229400D01*
X103340225Y-79229400D02*
X103268796Y-79157971D01*
X103268796Y-79157971D02*
X103197368Y-79015114D01*
X103197368Y-79015114D02*
X103197368Y-78586542D01*
X103197368Y-78586542D02*
X103268796Y-78443685D01*
X103268796Y-78443685D02*
X103340225Y-78372257D01*
X103340225Y-78372257D02*
X103483082Y-78300828D01*
X103483082Y-78300828D02*
X103768796Y-78300828D01*
X103768796Y-78300828D02*
X103911654Y-78372257D01*
X105625939Y-77800828D02*
X106625939Y-77800828D01*
X106625939Y-77800828D02*
X105625939Y-79300828D01*
X105625939Y-79300828D02*
X106625939Y-79300828D01*
X109197367Y-79157971D02*
X109125939Y-79229400D01*
X109125939Y-79229400D02*
X108911653Y-79300828D01*
X108911653Y-79300828D02*
X108768796Y-79300828D01*
X108768796Y-79300828D02*
X108554510Y-79229400D01*
X108554510Y-79229400D02*
X108411653Y-79086542D01*
X108411653Y-79086542D02*
X108340224Y-78943685D01*
X108340224Y-78943685D02*
X108268796Y-78657971D01*
X108268796Y-78657971D02*
X108268796Y-78443685D01*
X108268796Y-78443685D02*
X108340224Y-78157971D01*
X108340224Y-78157971D02*
X108411653Y-78015114D01*
X108411653Y-78015114D02*
X108554510Y-77872257D01*
X108554510Y-77872257D02*
X108768796Y-77800828D01*
X108768796Y-77800828D02*
X108911653Y-77800828D01*
X108911653Y-77800828D02*
X109125939Y-77872257D01*
X109125939Y-77872257D02*
X109197367Y-77943685D01*
X110054510Y-79300828D02*
X109911653Y-79229400D01*
X109911653Y-79229400D02*
X109840224Y-79086542D01*
X109840224Y-79086542D02*
X109840224Y-77800828D01*
X111268796Y-79300828D02*
X111268796Y-78515114D01*
X111268796Y-78515114D02*
X111197367Y-78372257D01*
X111197367Y-78372257D02*
X111054510Y-78300828D01*
X111054510Y-78300828D02*
X110768796Y-78300828D01*
X110768796Y-78300828D02*
X110625938Y-78372257D01*
X111268796Y-79229400D02*
X111125938Y-79300828D01*
X111125938Y-79300828D02*
X110768796Y-79300828D01*
X110768796Y-79300828D02*
X110625938Y-79229400D01*
X110625938Y-79229400D02*
X110554510Y-79086542D01*
X110554510Y-79086542D02*
X110554510Y-78943685D01*
X110554510Y-78943685D02*
X110625938Y-78800828D01*
X110625938Y-78800828D02*
X110768796Y-78729400D01*
X110768796Y-78729400D02*
X111125938Y-78729400D01*
X111125938Y-78729400D02*
X111268796Y-78657971D01*
X111983081Y-78300828D02*
X111983081Y-79300828D01*
X111983081Y-78443685D02*
X112054510Y-78372257D01*
X112054510Y-78372257D02*
X112197367Y-78300828D01*
X112197367Y-78300828D02*
X112411653Y-78300828D01*
X112411653Y-78300828D02*
X112554510Y-78372257D01*
X112554510Y-78372257D02*
X112625939Y-78515114D01*
X112625939Y-78515114D02*
X112625939Y-79300828D01*
D11*
X114324819Y-115751904D02*
X115134342Y-115751904D01*
X115134342Y-115751904D02*
X115229580Y-115704285D01*
X115229580Y-115704285D02*
X115277200Y-115656666D01*
X115277200Y-115656666D02*
X115324819Y-115561428D01*
X115324819Y-115561428D02*
X115324819Y-115370952D01*
X115324819Y-115370952D02*
X115277200Y-115275714D01*
X115277200Y-115275714D02*
X115229580Y-115228095D01*
X115229580Y-115228095D02*
X115134342Y-115180476D01*
X115134342Y-115180476D02*
X114324819Y-115180476D01*
X115324819Y-114180476D02*
X115324819Y-114751904D01*
X115324819Y-114466190D02*
X114324819Y-114466190D01*
X114324819Y-114466190D02*
X114467676Y-114561428D01*
X114467676Y-114561428D02*
X114562914Y-114656666D01*
X114562914Y-114656666D02*
X114610533Y-114751904D01*
X102666667Y-115107200D02*
X102809524Y-115154819D01*
X102809524Y-115154819D02*
X103047619Y-115154819D01*
X103047619Y-115154819D02*
X103142857Y-115107200D01*
X103142857Y-115107200D02*
X103190476Y-115059580D01*
X103190476Y-115059580D02*
X103238095Y-114964342D01*
X103238095Y-114964342D02*
X103238095Y-114869104D01*
X103238095Y-114869104D02*
X103190476Y-114773866D01*
X103190476Y-114773866D02*
X103142857Y-114726247D01*
X103142857Y-114726247D02*
X103047619Y-114678628D01*
X103047619Y-114678628D02*
X102857143Y-114631009D01*
X102857143Y-114631009D02*
X102761905Y-114583390D01*
X102761905Y-114583390D02*
X102714286Y-114535771D01*
X102714286Y-114535771D02*
X102666667Y-114440533D01*
X102666667Y-114440533D02*
X102666667Y-114345295D01*
X102666667Y-114345295D02*
X102714286Y-114250057D01*
X102714286Y-114250057D02*
X102761905Y-114202438D01*
X102761905Y-114202438D02*
X102857143Y-114154819D01*
X102857143Y-114154819D02*
X103095238Y-114154819D01*
X103095238Y-114154819D02*
X103238095Y-114202438D01*
X103571429Y-114154819D02*
X103809524Y-115154819D01*
X103809524Y-115154819D02*
X104000000Y-114440533D01*
X104000000Y-114440533D02*
X104190476Y-115154819D01*
X104190476Y-115154819D02*
X104428572Y-114154819D01*
X105333333Y-115154819D02*
X104761905Y-115154819D01*
X105047619Y-115154819D02*
X105047619Y-114154819D01*
X105047619Y-114154819D02*
X104952381Y-114297676D01*
X104952381Y-114297676D02*
X104857143Y-114392914D01*
X104857143Y-114392914D02*
X104761905Y-114440533D01*
X121833333Y-90084819D02*
X121500000Y-89608628D01*
X121261905Y-90084819D02*
X121261905Y-89084819D01*
X121261905Y-89084819D02*
X121642857Y-89084819D01*
X121642857Y-89084819D02*
X121738095Y-89132438D01*
X121738095Y-89132438D02*
X121785714Y-89180057D01*
X121785714Y-89180057D02*
X121833333Y-89275295D01*
X121833333Y-89275295D02*
X121833333Y-89418152D01*
X121833333Y-89418152D02*
X121785714Y-89513390D01*
X121785714Y-89513390D02*
X121738095Y-89561009D01*
X121738095Y-89561009D02*
X121642857Y-89608628D01*
X121642857Y-89608628D02*
X121261905Y-89608628D01*
X122690476Y-89418152D02*
X122690476Y-90084819D01*
X122452381Y-89037200D02*
X122214286Y-89751485D01*
X122214286Y-89751485D02*
X122833333Y-89751485D01*
X121833333Y-85084819D02*
X121500000Y-84608628D01*
X121261905Y-85084819D02*
X121261905Y-84084819D01*
X121261905Y-84084819D02*
X121642857Y-84084819D01*
X121642857Y-84084819D02*
X121738095Y-84132438D01*
X121738095Y-84132438D02*
X121785714Y-84180057D01*
X121785714Y-84180057D02*
X121833333Y-84275295D01*
X121833333Y-84275295D02*
X121833333Y-84418152D01*
X121833333Y-84418152D02*
X121785714Y-84513390D01*
X121785714Y-84513390D02*
X121738095Y-84561009D01*
X121738095Y-84561009D02*
X121642857Y-84608628D01*
X121642857Y-84608628D02*
X121261905Y-84608628D01*
X122166667Y-84084819D02*
X122785714Y-84084819D01*
X122785714Y-84084819D02*
X122452381Y-84465771D01*
X122452381Y-84465771D02*
X122595238Y-84465771D01*
X122595238Y-84465771D02*
X122690476Y-84513390D01*
X122690476Y-84513390D02*
X122738095Y-84561009D01*
X122738095Y-84561009D02*
X122785714Y-84656247D01*
X122785714Y-84656247D02*
X122785714Y-84894342D01*
X122785714Y-84894342D02*
X122738095Y-84989580D01*
X122738095Y-84989580D02*
X122690476Y-85037200D01*
X122690476Y-85037200D02*
X122595238Y-85084819D01*
X122595238Y-85084819D02*
X122309524Y-85084819D01*
X122309524Y-85084819D02*
X122214286Y-85037200D01*
X122214286Y-85037200D02*
X122166667Y-84989580D01*
X126354819Y-104366666D02*
X125878628Y-104699999D01*
X126354819Y-104938094D02*
X125354819Y-104938094D01*
X125354819Y-104938094D02*
X125354819Y-104557142D01*
X125354819Y-104557142D02*
X125402438Y-104461904D01*
X125402438Y-104461904D02*
X125450057Y-104414285D01*
X125450057Y-104414285D02*
X125545295Y-104366666D01*
X125545295Y-104366666D02*
X125688152Y-104366666D01*
X125688152Y-104366666D02*
X125783390Y-104414285D01*
X125783390Y-104414285D02*
X125831009Y-104461904D01*
X125831009Y-104461904D02*
X125878628Y-104557142D01*
X125878628Y-104557142D02*
X125878628Y-104938094D01*
X125450057Y-103985713D02*
X125402438Y-103938094D01*
X125402438Y-103938094D02*
X125354819Y-103842856D01*
X125354819Y-103842856D02*
X125354819Y-103604761D01*
X125354819Y-103604761D02*
X125402438Y-103509523D01*
X125402438Y-103509523D02*
X125450057Y-103461904D01*
X125450057Y-103461904D02*
X125545295Y-103414285D01*
X125545295Y-103414285D02*
X125640533Y-103414285D01*
X125640533Y-103414285D02*
X125783390Y-103461904D01*
X125783390Y-103461904D02*
X126354819Y-104033332D01*
X126354819Y-104033332D02*
X126354819Y-103414285D01*
X121833333Y-95584819D02*
X121500000Y-95108628D01*
X121261905Y-95584819D02*
X121261905Y-94584819D01*
X121261905Y-94584819D02*
X121642857Y-94584819D01*
X121642857Y-94584819D02*
X121738095Y-94632438D01*
X121738095Y-94632438D02*
X121785714Y-94680057D01*
X121785714Y-94680057D02*
X121833333Y-94775295D01*
X121833333Y-94775295D02*
X121833333Y-94918152D01*
X121833333Y-94918152D02*
X121785714Y-95013390D01*
X121785714Y-95013390D02*
X121738095Y-95061009D01*
X121738095Y-95061009D02*
X121642857Y-95108628D01*
X121642857Y-95108628D02*
X121261905Y-95108628D01*
X122785714Y-95584819D02*
X122214286Y-95584819D01*
X122500000Y-95584819D02*
X122500000Y-94584819D01*
X122500000Y-94584819D02*
X122404762Y-94727676D01*
X122404762Y-94727676D02*
X122309524Y-94822914D01*
X122309524Y-94822914D02*
X122214286Y-94870533D01*
X128690476Y-101624819D02*
X128690476Y-100624819D01*
X128690476Y-100624819D02*
X129023809Y-101339104D01*
X129023809Y-101339104D02*
X129357142Y-100624819D01*
X129357142Y-100624819D02*
X129357142Y-101624819D01*
X129833333Y-101624819D02*
X129833333Y-100624819D01*
X130404761Y-101624819D02*
X129976190Y-101053390D01*
X130404761Y-100624819D02*
X129833333Y-101196247D01*
X131357142Y-101624819D02*
X130785714Y-101624819D01*
X131071428Y-101624819D02*
X131071428Y-100624819D01*
X131071428Y-100624819D02*
X130976190Y-100767676D01*
X130976190Y-100767676D02*
X130880952Y-100862914D01*
X130880952Y-100862914D02*
X130785714Y-100910533D01*
X117914819Y-105508094D02*
X116914819Y-105508094D01*
X116914819Y-105508094D02*
X116914819Y-105269999D01*
X116914819Y-105269999D02*
X116962438Y-105127142D01*
X116962438Y-105127142D02*
X117057676Y-105031904D01*
X117057676Y-105031904D02*
X117152914Y-104984285D01*
X117152914Y-104984285D02*
X117343390Y-104936666D01*
X117343390Y-104936666D02*
X117486247Y-104936666D01*
X117486247Y-104936666D02*
X117676723Y-104984285D01*
X117676723Y-104984285D02*
X117771961Y-105031904D01*
X117771961Y-105031904D02*
X117867200Y-105127142D01*
X117867200Y-105127142D02*
X117914819Y-105269999D01*
X117914819Y-105269999D02*
X117914819Y-105508094D01*
X117914819Y-103984285D02*
X117914819Y-104555713D01*
X117914819Y-104269999D02*
X116914819Y-104269999D01*
X116914819Y-104269999D02*
X117057676Y-104365237D01*
X117057676Y-104365237D02*
X117152914Y-104460475D01*
X117152914Y-104460475D02*
X117200533Y-104555713D01*
X80814285Y-93311009D02*
X80957142Y-93358628D01*
X80957142Y-93358628D02*
X81004761Y-93406247D01*
X81004761Y-93406247D02*
X81052380Y-93501485D01*
X81052380Y-93501485D02*
X81052380Y-93644342D01*
X81052380Y-93644342D02*
X81004761Y-93739580D01*
X81004761Y-93739580D02*
X80957142Y-93787200D01*
X80957142Y-93787200D02*
X80861904Y-93834819D01*
X80861904Y-93834819D02*
X80480952Y-93834819D01*
X80480952Y-93834819D02*
X80480952Y-92834819D01*
X80480952Y-92834819D02*
X80814285Y-92834819D01*
X80814285Y-92834819D02*
X80909523Y-92882438D01*
X80909523Y-92882438D02*
X80957142Y-92930057D01*
X80957142Y-92930057D02*
X81004761Y-93025295D01*
X81004761Y-93025295D02*
X81004761Y-93120533D01*
X81004761Y-93120533D02*
X80957142Y-93215771D01*
X80957142Y-93215771D02*
X80909523Y-93263390D01*
X80909523Y-93263390D02*
X80814285Y-93311009D01*
X80814285Y-93311009D02*
X80480952Y-93311009D01*
X81338095Y-92834819D02*
X81909523Y-92834819D01*
X81623809Y-93834819D02*
X81623809Y-92834819D01*
X82766666Y-93834819D02*
X82195238Y-93834819D01*
X82480952Y-93834819D02*
X82480952Y-92834819D01*
X82480952Y-92834819D02*
X82385714Y-92977676D01*
X82385714Y-92977676D02*
X82290476Y-93072914D01*
X82290476Y-93072914D02*
X82195238Y-93120533D01*
D12*
%TO.C,U1*%
X115870000Y-117640000D02*
X126150000Y-117640000D01*
X126150000Y-117640000D02*
X126150000Y-112340000D01*
X115870000Y-115990000D02*
X115870000Y-117640000D01*
X115870000Y-112340000D02*
X115870000Y-113990000D01*
X126150000Y-112340000D02*
X115870000Y-112340000D01*
X115870000Y-113990000D02*
G75*
G02*
X115870000Y-115990000I0J-1000000D01*
G01*
%TO.C,SW1*%
X101900000Y-116250000D02*
X101900000Y-120450000D01*
X101900000Y-120450000D02*
X103100000Y-120450000D01*
X102250000Y-116250000D02*
X101900000Y-116250000D01*
X109900000Y-116250000D02*
X111100000Y-116250000D01*
X111100000Y-116250000D02*
X111100000Y-120450000D01*
X111100000Y-120450000D02*
X109900000Y-120450000D01*
X103000000Y-116250000D02*
X102520000Y-116250000D01*
X103000000Y-115770000D01*
X103000000Y-116250000D01*
G36*
X103000000Y-116250000D02*
G01*
X102520000Y-116250000D01*
X103000000Y-115770000D01*
X103000000Y-116250000D01*
G37*
%TO.C,R4*%
X115420000Y-92000000D02*
X118730000Y-92000000D01*
X118730000Y-90630000D02*
X118730000Y-93370000D01*
X118730000Y-93370000D02*
X125270000Y-93370000D01*
X125270000Y-90630000D02*
X118730000Y-90630000D01*
X125270000Y-93370000D02*
X125270000Y-90630000D01*
X128580000Y-92000000D02*
X125270000Y-92000000D01*
%TO.C,R3*%
X115420000Y-87000000D02*
X118730000Y-87000000D01*
X118730000Y-85630000D02*
X118730000Y-88370000D01*
X118730000Y-88370000D02*
X125270000Y-88370000D01*
X125270000Y-85630000D02*
X118730000Y-85630000D01*
X125270000Y-88370000D02*
X125270000Y-85630000D01*
X128580000Y-87000000D02*
X125270000Y-87000000D01*
%TO.C,R2*%
X125150000Y-102650000D02*
X125150000Y-105700000D01*
X120850000Y-102650000D02*
X120850000Y-105700000D01*
X120850000Y-102650000D02*
G75*
G02*
X125165525Y-102671766I2150000J-1550000D01*
G01*
X125150000Y-105700000D02*
G75*
G02*
X120881751Y-105744513I-2150000J1500000D01*
G01*
%TO.C,R1*%
X115420000Y-97500000D02*
X118730000Y-97500000D01*
X118730000Y-96130000D02*
X118730000Y-98870000D01*
X118730000Y-98870000D02*
X125270000Y-98870000D01*
X125270000Y-96130000D02*
X118730000Y-96130000D01*
X125270000Y-98870000D02*
X125270000Y-96130000D01*
X128580000Y-97500000D02*
X125270000Y-97500000D01*
%TO.C,MK1*%
X128670000Y-102170000D02*
X130000000Y-102170000D01*
X128670000Y-103500000D02*
X128670000Y-102170000D01*
X128670000Y-104770000D02*
X128670000Y-107370000D01*
X128670000Y-104770000D02*
X131330000Y-104770000D01*
X128670000Y-107370000D02*
X131330000Y-107370000D01*
X131330000Y-104770000D02*
X131330000Y-107370000D01*
%TO.C,D1*%
X115045000Y-102210000D02*
X111955000Y-102210000D01*
X115044830Y-102210000D02*
G75*
G02*
X113499538Y-107760000I-1544830J-2560000D01*
G01*
X113500462Y-107760000D02*
G75*
G02*
X111955170Y-102210000I-462J2990000D01*
G01*
X116000000Y-104770000D02*
G75*
G02*
X111000000Y-104770000I-2500000J0D01*
G01*
X111000000Y-104770000D02*
G75*
G02*
X116000000Y-104770000I2500000J0D01*
G01*
%TO.C,BT1*%
X80170000Y-94390000D02*
X83345000Y-94390000D01*
X80170000Y-105610000D02*
X80170000Y-94390000D01*
X83345000Y-105610000D02*
X80170000Y-105610000D01*
X83345000Y-94390000D02*
G75*
G02*
X83345000Y-105610000I12435000J-5610000D01*
G01*
%TD*%
M02*
