%TF.GenerationSoftware,KiCad,Pcbnew,8.0.6*%
%TF.CreationDate,2025-03-10T13:49:55+00:00*%
%TF.ProjectId,Example,4578616d-706c-4652-9e6b-696361645f70,rev?*%
%TF.SameCoordinates,Original*%
%TF.FileFunction,Copper,L1,Top*%
%TF.FilePolarity,Positive*%
%FSLAX46Y46*%
G04 Gerber Fmt 4.6, Leading zero omitted, Abs format (unit mm)*
G04 Created by KiCad (PCBNEW 8.0.6) date 2025-03-10 13:49:55*
%MOMM*%
%LPD*%
G01*
G04 APERTURE LIST*
G04 Aperture macros list*
%AMRoundRect*
0 Rectangle with rounded corners*
0 $1 Rounding radius*
0 $2 $3 $4 $5 $6 $7 $8 $9 X,Y pos of 4 corners*
0 Add a 4 corners polygon primitive as box body*
4,1,4,$2,$3,$4,$5,$6,$7,$8,$9,$2,$3,0*
0 Add four circle primitives for the rounded corners*
1,1,$1+$1,$2,$3*
1,1,$1+$1,$4,$5*
1,1,$1+$1,$6,$7*
1,1,$1+$1,$8,$9*
0 Add four rect primitives between the rounded corners*
20,1,$1+$1,$2,$3,$4,$5,0*
20,1,$1+$1,$4,$5,$6,$7,0*
20,1,$1+$1,$6,$7,$8,$9,0*
20,1,$1+$1,$8,$9,$2,$3,0*%
G04 Aperture macros list end*
%TA.AperFunction,ComponentPad*%
%ADD10R,1.600000X1.600000*%
%TD*%
%TA.AperFunction,ComponentPad*%
%ADD11O,1.600000X1.600000*%
%TD*%
%TA.AperFunction,ComponentPad*%
%ADD12RoundRect,0.250000X-0.450000X-0.450000X0.450000X-0.450000X0.450000X0.450000X-0.450000X0.450000X0*%
%TD*%
%TA.AperFunction,ComponentPad*%
%ADD13C,1.400000*%
%TD*%
%TA.AperFunction,ComponentPad*%
%ADD14C,1.600000*%
%TD*%
%TA.AperFunction,ComponentPad*%
%ADD15C,1.500000*%
%TD*%
%TA.AperFunction,ComponentPad*%
%ADD16R,1.700000X1.700000*%
%TD*%
%TA.AperFunction,ComponentPad*%
%ADD17O,1.700000X1.700000*%
%TD*%
%TA.AperFunction,ComponentPad*%
%ADD18R,1.800000X1.800000*%
%TD*%
%TA.AperFunction,ComponentPad*%
%ADD19C,1.800000*%
%TD*%
%TA.AperFunction,ComponentPad*%
%ADD20R,2.100000X2.100000*%
%TD*%
%TA.AperFunction,ComponentPad*%
%ADD21C,2.100000*%
%TD*%
%TA.AperFunction,ViaPad*%
%ADD22C,0.600000*%
%TD*%
%TA.AperFunction,Conductor*%
%ADD23C,0.500000*%
%TD*%
%TA.AperFunction,Conductor*%
%ADD24C,0.300000*%
%TD*%
G04 APERTURE END LIST*
D10*
%TO.P,U1,1,~{RESET}/PB5*%
%TO.N,unconnected-(U1-~{RESET}{slash}PB5-Pad1)*%
X117200000Y-118800000D03*
D11*
%TO.P,U1,2,XTAL1/PB3*%
%TO.N,/MIC*%
X119740000Y-118800000D03*
%TO.P,U1,3,XTAL2/PB4*%
%TO.N,unconnected-(U1-XTAL2{slash}PB4-Pad3)*%
X122280000Y-118800000D03*
%TO.P,U1,4,GND*%
%TO.N,GND*%
X124820000Y-118800000D03*
%TO.P,U1,5,AREF/PB0*%
%TO.N,unconnected-(U1-AREF{slash}PB0-Pad5)*%
X124820000Y-111180000D03*
%TO.P,U1,6,PB1*%
%TO.N,/LED*%
X122280000Y-111180000D03*
%TO.P,U1,7,PB2*%
%TO.N,/LDR*%
X119740000Y-111180000D03*
%TO.P,U1,8,VCC*%
%TO.N,+3.3V*%
X117200000Y-111180000D03*
%TD*%
D12*
%TO.P,SW1,1,A*%
%TO.N,unconnected-(SW1A-A-Pad1)*%
X104000000Y-116700000D03*
D13*
%TO.P,SW1,2,B*%
%TO.N,GND*%
X106500000Y-116700000D03*
%TO.P,SW1,3,C*%
%TO.N,Net-(BT1--)*%
X109000000Y-116700000D03*
%TO.P,SW1,4*%
%TO.N,N/C*%
X109000000Y-120000000D03*
%TO.P,SW1,5*%
X106500000Y-120000000D03*
%TO.P,SW1,6*%
X104000000Y-120000000D03*
%TD*%
D14*
%TO.P,R4,1*%
%TO.N,Net-(D1-K)*%
X114380000Y-92000000D03*
D11*
%TO.P,R4,2*%
%TO.N,GND*%
X129620000Y-92000000D03*
%TD*%
D14*
%TO.P,R3,1*%
%TO.N,+3.3V*%
X114380000Y-87000000D03*
D11*
%TO.P,R3,2*%
%TO.N,/MIC*%
X129620000Y-87000000D03*
%TD*%
D15*
%TO.P,R2,1*%
%TO.N,/LDR*%
X123000000Y-102500000D03*
%TO.P,R2,2*%
%TO.N,GND*%
X123000000Y-105900000D03*
%TD*%
D14*
%TO.P,R1,1*%
%TO.N,+3.3V*%
X114380000Y-97500000D03*
D11*
%TO.P,R1,2*%
%TO.N,/LDR*%
X129620000Y-97500000D03*
%TD*%
D16*
%TO.P,MK1,1,-*%
%TO.N,GND*%
X130000000Y-103500000D03*
D17*
%TO.P,MK1,2,+*%
%TO.N,/MIC*%
X130000000Y-106040000D03*
%TD*%
D18*
%TO.P,D1,1,K*%
%TO.N,Net-(D1-K)*%
X113500000Y-103500000D03*
D19*
%TO.P,D1,2,A*%
%TO.N,/LED*%
X113500000Y-106040000D03*
%TD*%
D20*
%TO.P,BT1,1,+*%
%TO.N,+3.3V*%
X81500000Y-100000000D03*
D21*
%TO.P,BT1,2,-*%
%TO.N,Net-(BT1--)*%
X101500000Y-100000000D03*
%TD*%
D22*
%TO.N,GND*%
X129500000Y-111000000D03*
X127500000Y-109000000D03*
%TD*%
D23*
%TO.N,GND*%
X129500000Y-116500000D02*
X129500000Y-111000000D01*
X127200000Y-118800000D02*
X129500000Y-116500000D01*
X124820000Y-118800000D02*
X127200000Y-118800000D01*
X124400000Y-105900000D02*
X127500000Y-109000000D01*
X123000000Y-105900000D02*
X124400000Y-105900000D01*
D24*
%TO.N,/MIC*%
X132500000Y-103540000D02*
X130000000Y-106040000D01*
X132500000Y-89880000D02*
X132500000Y-103540000D01*
X129620000Y-87000000D02*
X132500000Y-89880000D01*
D23*
%TO.N,GND*%
X125400000Y-103500000D02*
X130000000Y-103500000D01*
X123000000Y-105900000D02*
X125400000Y-103500000D01*
D24*
%TO.N,/LDR*%
X128000000Y-97500000D02*
X129620000Y-97500000D01*
X123000000Y-102500000D02*
X128000000Y-97500000D01*
X119740000Y-111180000D02*
X119740000Y-105760000D01*
X119740000Y-105760000D02*
X123000000Y-102500000D01*
%TO.N,/MIC*%
X130000000Y-108540000D02*
X130000000Y-106040000D01*
X119740000Y-118800000D02*
X130000000Y-108540000D01*
D23*
%TO.N,GND*%
X107326346Y-116700000D02*
X106500000Y-116700000D01*
X110676346Y-120050000D02*
X107326346Y-116700000D01*
X123570000Y-120050000D02*
X110676346Y-120050000D01*
X124820000Y-118800000D02*
X123570000Y-120050000D01*
D24*
%TO.N,Net-(BT1--)*%
X109000000Y-107500000D02*
X109000000Y-116700000D01*
X101500000Y-100000000D02*
X109000000Y-107500000D01*
D23*
%TO.N,+3.3V*%
X114380000Y-97500000D02*
X117200000Y-100320000D01*
X117200000Y-100320000D02*
X117200000Y-111180000D01*
X84000000Y-97500000D02*
X112000000Y-97500000D01*
X112000000Y-97500000D02*
X114380000Y-97500000D01*
X112500000Y-87000000D02*
X111000000Y-88500000D01*
X111000000Y-88500000D02*
X111000000Y-96500000D01*
X111000000Y-96500000D02*
X112000000Y-97500000D01*
X114380000Y-87000000D02*
X112500000Y-87000000D01*
X81500000Y-100000000D02*
X84000000Y-97500000D01*
%TD*%
%TA.AperFunction,Conductor*%
%TO.N,GND*%
G36*
X107575128Y-71520139D02*
G01*
X107579608Y-71520303D01*
X108651091Y-71579073D01*
X108655570Y-71579401D01*
X109724156Y-71677262D01*
X109728607Y-71677752D01*
X110655637Y-71796928D01*
X110792929Y-71814578D01*
X110797410Y-71815238D01*
X111077100Y-71861633D01*
X111855957Y-71990832D01*
X111860383Y-71991649D01*
X112911912Y-72205808D01*
X112916241Y-72206772D01*
X113959251Y-72459192D01*
X113963551Y-72460317D01*
X114996625Y-72750655D01*
X115000918Y-72751947D01*
X116022674Y-73079814D01*
X116026895Y-73081254D01*
X117036019Y-73446227D01*
X117040206Y-73447828D01*
X118035349Y-73849422D01*
X118039443Y-73851163D01*
X119019196Y-74288808D01*
X119023268Y-74290716D01*
X119615161Y-74581486D01*
X119986376Y-74763847D01*
X119990405Y-74765918D01*
X120935589Y-75273907D01*
X120939539Y-75276124D01*
X121865552Y-75818302D01*
X121869389Y-75820644D01*
X122757967Y-76385464D01*
X122774950Y-76396259D01*
X122778728Y-76398758D01*
X123662700Y-77007088D01*
X123666383Y-77009724D01*
X124527496Y-77649894D01*
X124531081Y-77652662D01*
X125368254Y-78323867D01*
X125371736Y-78326764D01*
X126183868Y-79028122D01*
X126187233Y-79031138D01*
X126973182Y-79761664D01*
X126976443Y-79764808D01*
X127735191Y-80523556D01*
X127738335Y-80526817D01*
X128468854Y-81312758D01*
X128471877Y-81316131D01*
X129173235Y-82128263D01*
X129176132Y-82131745D01*
X129847337Y-82968918D01*
X129850105Y-82972503D01*
X130490275Y-83833616D01*
X130492911Y-83837299D01*
X131101241Y-84721271D01*
X131103740Y-84725049D01*
X131679346Y-85630596D01*
X131681706Y-85634462D01*
X132223875Y-86560460D01*
X132226092Y-86564410D01*
X132734081Y-87509594D01*
X132736152Y-87513623D01*
X133209276Y-88476717D01*
X133211198Y-88480818D01*
X133531987Y-89198967D01*
X133648820Y-89460519D01*
X133650592Y-89464687D01*
X134052162Y-90459771D01*
X134053780Y-90464002D01*
X134418734Y-91473071D01*
X134420196Y-91477358D01*
X134748045Y-92499059D01*
X134749350Y-92503396D01*
X135039671Y-93536407D01*
X135040816Y-93540786D01*
X135258974Y-94442225D01*
X135293216Y-94583712D01*
X135294201Y-94588133D01*
X135508347Y-95639602D01*
X135509169Y-95644056D01*
X135684761Y-96702589D01*
X135685421Y-96707070D01*
X135822244Y-97771367D01*
X135822739Y-97775869D01*
X135920596Y-98844410D01*
X135920927Y-98848928D01*
X135979695Y-99920368D01*
X135979860Y-99924894D01*
X135999458Y-100997735D01*
X135999458Y-101002265D01*
X135979860Y-102075105D01*
X135979695Y-102079631D01*
X135920927Y-103151071D01*
X135920596Y-103155589D01*
X135822739Y-104224130D01*
X135822244Y-104228632D01*
X135685421Y-105292929D01*
X135684761Y-105297410D01*
X135509169Y-106355943D01*
X135508347Y-106360397D01*
X135294201Y-107411866D01*
X135293216Y-107416287D01*
X135040817Y-108459209D01*
X135039671Y-108463592D01*
X134749350Y-109496603D01*
X134748045Y-109500940D01*
X134420196Y-110522641D01*
X134418734Y-110526928D01*
X134053780Y-111535997D01*
X134052162Y-111540228D01*
X133650592Y-112535312D01*
X133648820Y-112539480D01*
X133211198Y-113519181D01*
X133209276Y-113523282D01*
X132736152Y-114486376D01*
X132734081Y-114490405D01*
X132226092Y-115435589D01*
X132223875Y-115439539D01*
X131681706Y-116365537D01*
X131679346Y-116369403D01*
X131103740Y-117274950D01*
X131101241Y-117278728D01*
X130492911Y-118162700D01*
X130490275Y-118166383D01*
X129850105Y-119027496D01*
X129847337Y-119031081D01*
X129176132Y-119868254D01*
X129173235Y-119871736D01*
X128471877Y-120683868D01*
X128468854Y-120687241D01*
X127738335Y-121473182D01*
X127735191Y-121476443D01*
X126976443Y-122235191D01*
X126973182Y-122238335D01*
X126187241Y-122968854D01*
X126183868Y-122971877D01*
X125371736Y-123673235D01*
X125368254Y-123676132D01*
X124531081Y-124347337D01*
X124527496Y-124350105D01*
X123666383Y-124990275D01*
X123662700Y-124992911D01*
X122778728Y-125601241D01*
X122774950Y-125603740D01*
X121869403Y-126179346D01*
X121865537Y-126181706D01*
X120939539Y-126723875D01*
X120935589Y-126726092D01*
X119990405Y-127234081D01*
X119986376Y-127236152D01*
X119023282Y-127709276D01*
X119019181Y-127711198D01*
X118039480Y-128148820D01*
X118035312Y-128150592D01*
X117040228Y-128552162D01*
X117035997Y-128553780D01*
X116026928Y-128918734D01*
X116022641Y-128920196D01*
X115000940Y-129248045D01*
X114996603Y-129249350D01*
X113963592Y-129539671D01*
X113959209Y-129540817D01*
X112916287Y-129793216D01*
X112911866Y-129794201D01*
X111860397Y-130008347D01*
X111855943Y-130009169D01*
X110797410Y-130184761D01*
X110792929Y-130185421D01*
X109728632Y-130322244D01*
X109724130Y-130322739D01*
X108655589Y-130420596D01*
X108651071Y-130420927D01*
X107579631Y-130479695D01*
X107575105Y-130479860D01*
X106502265Y-130499458D01*
X106497735Y-130499458D01*
X105424894Y-130479860D01*
X105420368Y-130479695D01*
X104348928Y-130420927D01*
X104344410Y-130420596D01*
X103275869Y-130322739D01*
X103271367Y-130322244D01*
X102207070Y-130185421D01*
X102202589Y-130184761D01*
X101144056Y-130009169D01*
X101139602Y-130008347D01*
X100088133Y-129794201D01*
X100083712Y-129793216D01*
X99814402Y-129728040D01*
X99040786Y-129540816D01*
X99036407Y-129539671D01*
X98003396Y-129249350D01*
X97999059Y-129248045D01*
X96977358Y-128920196D01*
X96973071Y-128918734D01*
X95964002Y-128553780D01*
X95959771Y-128552162D01*
X95537161Y-128381616D01*
X94964677Y-128150587D01*
X94960530Y-128148824D01*
X93980818Y-127711198D01*
X93976717Y-127709276D01*
X93013623Y-127236152D01*
X93009594Y-127234081D01*
X92064410Y-126726092D01*
X92060460Y-126723875D01*
X91134462Y-126181706D01*
X91130596Y-126179346D01*
X90225049Y-125603740D01*
X90221271Y-125601241D01*
X89337299Y-124992911D01*
X89333616Y-124990275D01*
X88472503Y-124350105D01*
X88468918Y-124347337D01*
X87631745Y-123676132D01*
X87628263Y-123673235D01*
X86816131Y-122971877D01*
X86812758Y-122968854D01*
X86592873Y-122764475D01*
X86026817Y-122238335D01*
X86023556Y-122235191D01*
X85264808Y-121476443D01*
X85261664Y-121473182D01*
X84531145Y-120687241D01*
X84528122Y-120683868D01*
X84128852Y-120221537D01*
X83937532Y-119999999D01*
X102794357Y-119999999D01*
X102794357Y-120000000D01*
X102814884Y-120221535D01*
X102814885Y-120221537D01*
X102875769Y-120435523D01*
X102875775Y-120435538D01*
X102974938Y-120634683D01*
X102974943Y-120634691D01*
X103109020Y-120812238D01*
X103273437Y-120962123D01*
X103273439Y-120962125D01*
X103462595Y-121079245D01*
X103462596Y-121079245D01*
X103462599Y-121079247D01*
X103670060Y-121159618D01*
X103888757Y-121200500D01*
X103888759Y-121200500D01*
X104111241Y-121200500D01*
X104111243Y-121200500D01*
X104329940Y-121159618D01*
X104537401Y-121079247D01*
X104726562Y-120962124D01*
X104890981Y-120812236D01*
X105025058Y-120634689D01*
X105124229Y-120435528D01*
X105130734Y-120412661D01*
X105168012Y-120353571D01*
X105231322Y-120324013D01*
X105300561Y-120333375D01*
X105353748Y-120378684D01*
X105369264Y-120412658D01*
X105375770Y-120435523D01*
X105375772Y-120435530D01*
X105375775Y-120435538D01*
X105474938Y-120634683D01*
X105474943Y-120634691D01*
X105609020Y-120812238D01*
X105773437Y-120962123D01*
X105773439Y-120962125D01*
X105962595Y-121079245D01*
X105962596Y-121079245D01*
X105962599Y-121079247D01*
X106170060Y-121159618D01*
X106388757Y-121200500D01*
X106388759Y-121200500D01*
X106611241Y-121200500D01*
X106611243Y-121200500D01*
X106829940Y-121159618D01*
X107037401Y-121079247D01*
X107226562Y-120962124D01*
X107390981Y-120812236D01*
X107525058Y-120634689D01*
X107624229Y-120435528D01*
X107630734Y-120412661D01*
X107668012Y-120353571D01*
X107731322Y-120324013D01*
X107800561Y-120333375D01*
X107853748Y-120378684D01*
X107869264Y-120412658D01*
X107875770Y-120435523D01*
X107875772Y-120435530D01*
X107875775Y-120435538D01*
X107974938Y-120634683D01*
X107974943Y-120634691D01*
X108109020Y-120812238D01*
X108273437Y-120962123D01*
X108273439Y-120962125D01*
X108462595Y-121079245D01*
X108462596Y-121079245D01*
X108462599Y-121079247D01*
X108670060Y-121159618D01*
X108888757Y-121200500D01*
X108888759Y-121200500D01*
X109111241Y-121200500D01*
X109111243Y-121200500D01*
X109329940Y-121159618D01*
X109537401Y-121079247D01*
X109726562Y-120962124D01*
X109890981Y-120812236D01*
X110025058Y-120634689D01*
X110124229Y-120435528D01*
X110185115Y-120221536D01*
X110205643Y-120000000D01*
X110185115Y-119778464D01*
X110124229Y-119564472D01*
X110068587Y-119452728D01*
X110025061Y-119365316D01*
X110025056Y-119365308D01*
X109890979Y-119187761D01*
X109726562Y-119037876D01*
X109726560Y-119037874D01*
X109537404Y-118920754D01*
X109537398Y-118920752D01*
X109329940Y-118840382D01*
X109111243Y-118799500D01*
X108888757Y-118799500D01*
X108670060Y-118840382D01*
X108538864Y-118891207D01*
X108462601Y-118920752D01*
X108462595Y-118920754D01*
X108273439Y-119037874D01*
X108273437Y-119037876D01*
X108109020Y-119187761D01*
X107974943Y-119365308D01*
X107974938Y-119365316D01*
X107875775Y-119564461D01*
X107875769Y-119564476D01*
X107869266Y-119587335D01*
X107831987Y-119646429D01*
X107768677Y-119675986D01*
X107699438Y-119666624D01*
X107646251Y-119621314D01*
X107630734Y-119587335D01*
X107624229Y-119564472D01*
X107568587Y-119452728D01*
X107525061Y-119365316D01*
X107525056Y-119365308D01*
X107390979Y-119187761D01*
X107226562Y-119037876D01*
X107226560Y-119037874D01*
X107037404Y-118920754D01*
X107037398Y-118920752D01*
X106829940Y-118840382D01*
X106611243Y-118799500D01*
X106388757Y-118799500D01*
X106170060Y-118840382D01*
X106038864Y-118891207D01*
X105962601Y-118920752D01*
X105962595Y-118920754D01*
X105773439Y-119037874D01*
X105773437Y-119037876D01*
X105609020Y-119187761D01*
X105474943Y-119365308D01*
X105474938Y-119365316D01*
X105375775Y-119564461D01*
X105375769Y-119564476D01*
X105369266Y-119587335D01*
X105331987Y-119646429D01*
X105268677Y-119675986D01*
X105199438Y-119666624D01*
X105146251Y-119621314D01*
X105130734Y-119587335D01*
X105124229Y-119564472D01*
X105068587Y-119452728D01*
X105025061Y-119365316D01*
X105025056Y-119365308D01*
X104890979Y-119187761D01*
X104726562Y-119037876D01*
X104726560Y-119037874D01*
X104537404Y-118920754D01*
X104537398Y-118920752D01*
X104329940Y-118840382D01*
X104111243Y-118799500D01*
X103888757Y-118799500D01*
X103670060Y-118840382D01*
X103538864Y-118891207D01*
X103462601Y-118920752D01*
X103462595Y-118920754D01*
X103273439Y-119037874D01*
X103273437Y-119037876D01*
X103109020Y-119187761D01*
X102974943Y-119365308D01*
X102974938Y-119365316D01*
X102875775Y-119564461D01*
X102875769Y-119564476D01*
X102814885Y-119778462D01*
X102814884Y-119778464D01*
X102794357Y-119999999D01*
X83937532Y-119999999D01*
X83900870Y-119957547D01*
X83826764Y-119871736D01*
X83823867Y-119868254D01*
X83152662Y-119031081D01*
X83149894Y-119027496D01*
X82509724Y-118166383D01*
X82507088Y-118162700D01*
X82242895Y-117778798D01*
X81898751Y-117278718D01*
X81896259Y-117274950D01*
X81320644Y-116369389D01*
X81318293Y-116365537D01*
X81303288Y-116339910D01*
X80922037Y-115688751D01*
X80776124Y-115439539D01*
X80773907Y-115435589D01*
X80265918Y-114490405D01*
X80263847Y-114486376D01*
X80131245Y-114216451D01*
X79790716Y-113523268D01*
X79788801Y-113519181D01*
X79351163Y-112539443D01*
X79349422Y-112535349D01*
X78947828Y-111540206D01*
X78946219Y-111535997D01*
X78581254Y-110526895D01*
X78579814Y-110522674D01*
X78251947Y-109500918D01*
X78250649Y-109496603D01*
X78098343Y-108954672D01*
X77960317Y-108463551D01*
X77959192Y-108459251D01*
X77706772Y-107416241D01*
X77705808Y-107411912D01*
X77491649Y-106360383D01*
X77490830Y-106355943D01*
X77477471Y-106275413D01*
X77315238Y-105297410D01*
X77314578Y-105292929D01*
X77266069Y-104915593D01*
X77177752Y-104228607D01*
X77177260Y-104224130D01*
X77156734Y-104000000D01*
X77079401Y-103155570D01*
X77079072Y-103151071D01*
X77077787Y-103127638D01*
X77020303Y-102079608D01*
X77020139Y-102075105D01*
X77020058Y-102070677D01*
X77000541Y-101002244D01*
X77000541Y-100997735D01*
X77020139Y-99924869D01*
X77020304Y-99920368D01*
X77024626Y-99841585D01*
X77076153Y-98902135D01*
X79949500Y-98902135D01*
X79949500Y-101097870D01*
X79949501Y-101097876D01*
X79955908Y-101157483D01*
X80006202Y-101292328D01*
X80006206Y-101292335D01*
X80092452Y-101407544D01*
X80092455Y-101407547D01*
X80207664Y-101493793D01*
X80207671Y-101493797D01*
X80342517Y-101544091D01*
X80342516Y-101544091D01*
X80349444Y-101544835D01*
X80402127Y-101550500D01*
X82597872Y-101550499D01*
X82657483Y-101544091D01*
X82792331Y-101493796D01*
X82907546Y-101407546D01*
X82993796Y-101292331D01*
X83044091Y-101157483D01*
X83050500Y-101097873D01*
X83050499Y-99562228D01*
X83070184Y-99495190D01*
X83086813Y-99474553D01*
X84274549Y-98286819D01*
X84335872Y-98253334D01*
X84362230Y-98250500D01*
X101097714Y-98250500D01*
X101164753Y-98270185D01*
X101210508Y-98322989D01*
X101220452Y-98392147D01*
X101191427Y-98455703D01*
X101132649Y-98493477D01*
X101126685Y-98495067D01*
X101019388Y-98520828D01*
X101019380Y-98520830D01*
X100793910Y-98614222D01*
X100585826Y-98741737D01*
X100585823Y-98741738D01*
X100400241Y-98900241D01*
X100241738Y-99085823D01*
X100241737Y-99085826D01*
X100114222Y-99293910D01*
X100020830Y-99519380D01*
X99963853Y-99756702D01*
X99944706Y-100000000D01*
X99963853Y-100243297D01*
X99963853Y-100243300D01*
X99963854Y-100243302D01*
X100019836Y-100476481D01*
X100020830Y-100480619D01*
X100114222Y-100706089D01*
X100241737Y-100914173D01*
X100241738Y-100914176D01*
X100241741Y-100914179D01*
X100400241Y-101099759D01*
X100543897Y-101222453D01*
X100585823Y-101258261D01*
X100585826Y-101258262D01*
X100793910Y-101385777D01*
X101019381Y-101479169D01*
X101019378Y-101479169D01*
X101019384Y-101479170D01*
X101019388Y-101479172D01*
X101256698Y-101536146D01*
X101500000Y-101555294D01*
X101743302Y-101536146D01*
X101976483Y-101480163D01*
X102046264Y-101483654D01*
X102093110Y-101513056D01*
X108313181Y-107733127D01*
X108346666Y-107794450D01*
X108349500Y-107820808D01*
X108349500Y-115621712D01*
X108329815Y-115688751D01*
X108290780Y-115727137D01*
X108273441Y-115737872D01*
X108273437Y-115737876D01*
X108109020Y-115887761D01*
X107974943Y-116065308D01*
X107974938Y-116065316D01*
X107875775Y-116264461D01*
X107875768Y-116264479D01*
X107869005Y-116288249D01*
X107831725Y-116347342D01*
X107768414Y-116376898D01*
X107699175Y-116367534D01*
X107645990Y-116322223D01*
X107630473Y-116288244D01*
X107623761Y-116264652D01*
X107623760Y-116264651D01*
X107524635Y-116065580D01*
X107524630Y-116065572D01*
X107508860Y-116044690D01*
X106942137Y-116611413D01*
X106919333Y-116526306D01*
X106860090Y-116423694D01*
X106776306Y-116339910D01*
X106673694Y-116280667D01*
X106588585Y-116257862D01*
X107153327Y-115693119D01*
X107037178Y-115621202D01*
X107037177Y-115621201D01*
X106829804Y-115540865D01*
X106611193Y-115500000D01*
X106388807Y-115500000D01*
X106170195Y-115540865D01*
X105962824Y-115621200D01*
X105962823Y-115621201D01*
X105846671Y-115693119D01*
X106411414Y-116257861D01*
X106326306Y-116280667D01*
X106223694Y-116339910D01*
X106139910Y-116423694D01*
X106080667Y-116526306D01*
X106057861Y-116611414D01*
X105491138Y-116044691D01*
X105491137Y-116044691D01*
X105475369Y-116065572D01*
X105426742Y-116163228D01*
X105379238Y-116214464D01*
X105311575Y-116231885D01*
X105245235Y-116209959D01*
X105201280Y-116155647D01*
X105192384Y-116120554D01*
X105189999Y-116097203D01*
X105189998Y-116097200D01*
X105179520Y-116065580D01*
X105134814Y-115930666D01*
X105042712Y-115781344D01*
X104918656Y-115657288D01*
X104769334Y-115565186D01*
X104602797Y-115510001D01*
X104602795Y-115510000D01*
X104500010Y-115499500D01*
X103499998Y-115499500D01*
X103499980Y-115499501D01*
X103397203Y-115510000D01*
X103397200Y-115510001D01*
X103230668Y-115565185D01*
X103230663Y-115565187D01*
X103081342Y-115657289D01*
X102957289Y-115781342D01*
X102865187Y-115930663D01*
X102865186Y-115930666D01*
X102810001Y-116097203D01*
X102810001Y-116097204D01*
X102810000Y-116097204D01*
X102799500Y-116199983D01*
X102799500Y-117200001D01*
X102799501Y-117200019D01*
X102810000Y-117302796D01*
X102810001Y-117302799D01*
X102865185Y-117469331D01*
X102865187Y-117469336D01*
X102891648Y-117512236D01*
X102957288Y-117618656D01*
X103081344Y-117742712D01*
X103230666Y-117834814D01*
X103397203Y-117889999D01*
X103499991Y-117900500D01*
X104500008Y-117900499D01*
X104500016Y-117900498D01*
X104500019Y-117900498D01*
X104578157Y-117892516D01*
X104602797Y-117889999D01*
X104769334Y-117834814D01*
X104918656Y-117742712D01*
X105042712Y-117618656D01*
X105134814Y-117469334D01*
X105189999Y-117302797D01*
X105192384Y-117279444D01*
X105218778Y-117214754D01*
X105275957Y-117174601D01*
X105345768Y-117171735D01*
X105406046Y-117207067D01*
X105426742Y-117236772D01*
X105475371Y-117334430D01*
X105491137Y-117355308D01*
X105491138Y-117355308D01*
X106057861Y-116788584D01*
X106080667Y-116873694D01*
X106139910Y-116976306D01*
X106223694Y-117060090D01*
X106326306Y-117119333D01*
X106411414Y-117142137D01*
X105846672Y-117706879D01*
X105846672Y-117706880D01*
X105962821Y-117778797D01*
X105962822Y-117778798D01*
X106170195Y-117859134D01*
X106388807Y-117900000D01*
X106611193Y-117900000D01*
X106829809Y-117859133D01*
X107037168Y-117778801D01*
X107037181Y-117778795D01*
X107153326Y-117706879D01*
X106588585Y-117142137D01*
X106673694Y-117119333D01*
X106776306Y-117060090D01*
X106860090Y-116976306D01*
X106919333Y-116873694D01*
X106942138Y-116788585D01*
X107508861Y-117355308D01*
X107524631Y-117334425D01*
X107524633Y-117334422D01*
X107623760Y-117135348D01*
X107623761Y-117135345D01*
X107630473Y-117111756D01*
X107667750Y-117052662D01*
X107731059Y-117023102D01*
X107800299Y-117032462D01*
X107853487Y-117077771D01*
X107869006Y-117111751D01*
X107875771Y-117135527D01*
X107875775Y-117135538D01*
X107974938Y-117334683D01*
X107974943Y-117334691D01*
X108109020Y-117512238D01*
X108273437Y-117662123D01*
X108273439Y-117662125D01*
X108462595Y-117779245D01*
X108462596Y-117779245D01*
X108462599Y-117779247D01*
X108670060Y-117859618D01*
X108888757Y-117900500D01*
X108888759Y-117900500D01*
X109111241Y-117900500D01*
X109111243Y-117900500D01*
X109329940Y-117859618D01*
X109537401Y-117779247D01*
X109726562Y-117662124D01*
X109866282Y-117534751D01*
X109890979Y-117512238D01*
X109895759Y-117505909D01*
X110025058Y-117334689D01*
X110124229Y-117135528D01*
X110185115Y-116921536D01*
X110205643Y-116700000D01*
X110185115Y-116478464D01*
X110124229Y-116264472D01*
X110092122Y-116199992D01*
X110025061Y-116065316D01*
X110025056Y-116065308D01*
X109890979Y-115887761D01*
X109726562Y-115737876D01*
X109726558Y-115737872D01*
X109709220Y-115727137D01*
X109662586Y-115675109D01*
X109650500Y-115621712D01*
X109650500Y-107435928D01*
X109625502Y-107310261D01*
X109625501Y-107310260D01*
X109625501Y-107310256D01*
X109576465Y-107191873D01*
X109505277Y-107085331D01*
X109505275Y-107085329D01*
X109505273Y-107085326D01*
X109505272Y-107085325D01*
X108459940Y-106039993D01*
X112094700Y-106039993D01*
X112094700Y-106040006D01*
X112113864Y-106271297D01*
X112113866Y-106271308D01*
X112170842Y-106496300D01*
X112264075Y-106708848D01*
X112391016Y-106903147D01*
X112391019Y-106903151D01*
X112391021Y-106903153D01*
X112548216Y-107073913D01*
X112548219Y-107073915D01*
X112548222Y-107073918D01*
X112731365Y-107216464D01*
X112731371Y-107216468D01*
X112731374Y-107216470D01*
X112935497Y-107326936D01*
X113049487Y-107366068D01*
X113155015Y-107402297D01*
X113155017Y-107402297D01*
X113155019Y-107402298D01*
X113383951Y-107440500D01*
X113383952Y-107440500D01*
X113616048Y-107440500D01*
X113616049Y-107440500D01*
X113844981Y-107402298D01*
X114064503Y-107326936D01*
X114268626Y-107216470D01*
X114451784Y-107073913D01*
X114608979Y-106903153D01*
X114735924Y-106708849D01*
X114829157Y-106496300D01*
X114886134Y-106271305D01*
X114890379Y-106220080D01*
X114905300Y-106040006D01*
X114905300Y-106039993D01*
X114886135Y-105808702D01*
X114886133Y-105808691D01*
X114829157Y-105583699D01*
X114735924Y-105371151D01*
X114608983Y-105176852D01*
X114608980Y-105176849D01*
X114608979Y-105176847D01*
X114514195Y-105073884D01*
X114483275Y-105011232D01*
X114491135Y-104941806D01*
X114535283Y-104887651D01*
X114562095Y-104873722D01*
X114642326Y-104843798D01*
X114642326Y-104843797D01*
X114642331Y-104843796D01*
X114757546Y-104757546D01*
X114843796Y-104642331D01*
X114894091Y-104507483D01*
X114900500Y-104447873D01*
X114900499Y-102552128D01*
X114894091Y-102492517D01*
X114843796Y-102357669D01*
X114843795Y-102357668D01*
X114843793Y-102357664D01*
X114757547Y-102242455D01*
X114757544Y-102242452D01*
X114642335Y-102156206D01*
X114642328Y-102156202D01*
X114507482Y-102105908D01*
X114507483Y-102105908D01*
X114447883Y-102099501D01*
X114447881Y-102099500D01*
X114447873Y-102099500D01*
X114447864Y-102099500D01*
X112552129Y-102099500D01*
X112552123Y-102099501D01*
X112492516Y-102105908D01*
X112357671Y-102156202D01*
X112357664Y-102156206D01*
X112242455Y-102242452D01*
X112242452Y-102242455D01*
X112156206Y-102357664D01*
X112156202Y-102357671D01*
X112105908Y-102492517D01*
X112100522Y-102542620D01*
X112099501Y-102552123D01*
X112099500Y-102552135D01*
X112099500Y-104447870D01*
X112099501Y-104447876D01*
X112105908Y-104507483D01*
X112156202Y-104642328D01*
X112156206Y-104642335D01*
X112242452Y-104757544D01*
X112242455Y-104757547D01*
X112357664Y-104843793D01*
X112357673Y-104843798D01*
X112437904Y-104873722D01*
X112493838Y-104915593D01*
X112518256Y-104981057D01*
X112503405Y-105049330D01*
X112485802Y-105073886D01*
X112391019Y-105176849D01*
X112264075Y-105371151D01*
X112170842Y-105583699D01*
X112113866Y-105808691D01*
X112113864Y-105808702D01*
X112094700Y-106039993D01*
X108459940Y-106039993D01*
X103013056Y-100593110D01*
X102979571Y-100531787D01*
X102980162Y-100476484D01*
X103036146Y-100243302D01*
X103055294Y-100000000D01*
X103036146Y-99756698D01*
X102979172Y-99519388D01*
X102885777Y-99293911D01*
X102885777Y-99293910D01*
X102758262Y-99085826D01*
X102758261Y-99085823D01*
X102722453Y-99043897D01*
X102599759Y-98900241D01*
X102465570Y-98785633D01*
X102414176Y-98741738D01*
X102414173Y-98741737D01*
X102206089Y-98614222D01*
X101980618Y-98520830D01*
X101980621Y-98520830D01*
X101958533Y-98515527D01*
X101873336Y-98495072D01*
X101812746Y-98460283D01*
X101780583Y-98398256D01*
X101787059Y-98328687D01*
X101830119Y-98273664D01*
X101896092Y-98250655D01*
X101902286Y-98250500D01*
X111926082Y-98250500D01*
X111926083Y-98250500D01*
X112073918Y-98250500D01*
X113253337Y-98250500D01*
X113320376Y-98270185D01*
X113354912Y-98303377D01*
X113379954Y-98339141D01*
X113540858Y-98500045D01*
X113540861Y-98500047D01*
X113727266Y-98630568D01*
X113933504Y-98726739D01*
X114153308Y-98785635D01*
X114303716Y-98798794D01*
X114379998Y-98805468D01*
X114380000Y-98805468D01*
X114380001Y-98805468D01*
X114400062Y-98803712D01*
X114546861Y-98790869D01*
X114615359Y-98804635D01*
X114645348Y-98826716D01*
X116413181Y-100594548D01*
X116446666Y-100655871D01*
X116449500Y-100682229D01*
X116449500Y-110053336D01*
X116429815Y-110120375D01*
X116396625Y-110154910D01*
X116360863Y-110179951D01*
X116199951Y-110340862D01*
X116069432Y-110527265D01*
X116069431Y-110527267D01*
X115973261Y-110733502D01*
X115973258Y-110733511D01*
X115914366Y-110953302D01*
X115914364Y-110953313D01*
X115894532Y-111179998D01*
X115894532Y-111180001D01*
X115914364Y-111406686D01*
X115914366Y-111406697D01*
X115973258Y-111626488D01*
X115973261Y-111626497D01*
X116069431Y-111832732D01*
X116069432Y-111832734D01*
X116199954Y-112019141D01*
X116360858Y-112180045D01*
X116360861Y-112180047D01*
X116547266Y-112310568D01*
X116753504Y-112406739D01*
X116973308Y-112465635D01*
X117135230Y-112479801D01*
X117199998Y-112485468D01*
X117200000Y-112485468D01*
X117200002Y-112485468D01*
X117256673Y-112480509D01*
X117426692Y-112465635D01*
X117646496Y-112406739D01*
X117852734Y-112310568D01*
X118039139Y-112180047D01*
X118200047Y-112019139D01*
X118330568Y-111832734D01*
X118357618Y-111774724D01*
X118403790Y-111722285D01*
X118470983Y-111703133D01*
X118537865Y-111723348D01*
X118582381Y-111774724D01*
X118596517Y-111805038D01*
X118609429Y-111832728D01*
X118609432Y-111832734D01*
X118739954Y-112019141D01*
X118900858Y-112180045D01*
X118900861Y-112180047D01*
X119087266Y-112310568D01*
X119293504Y-112406739D01*
X119513308Y-112465635D01*
X119675230Y-112479801D01*
X119739998Y-112485468D01*
X119740000Y-112485468D01*
X119740002Y-112485468D01*
X119796673Y-112480509D01*
X119966692Y-112465635D01*
X120186496Y-112406739D01*
X120392734Y-112310568D01*
X120579139Y-112180047D01*
X120740047Y-112019139D01*
X120870568Y-111832734D01*
X120897618Y-111774724D01*
X120943790Y-111722285D01*
X121010983Y-111703133D01*
X121077865Y-111723348D01*
X121122381Y-111774724D01*
X121136517Y-111805038D01*
X121149429Y-111832728D01*
X121149432Y-111832734D01*
X121279954Y-112019141D01*
X121440858Y-112180045D01*
X121440861Y-112180047D01*
X121627266Y-112310568D01*
X121833504Y-112406739D01*
X122053308Y-112465635D01*
X122215230Y-112479801D01*
X122279998Y-112485468D01*
X122280000Y-112485468D01*
X122280002Y-112485468D01*
X122336673Y-112480509D01*
X122506692Y-112465635D01*
X122726496Y-112406739D01*
X122932734Y-112310568D01*
X123119139Y-112180047D01*
X123280047Y-112019139D01*
X123410568Y-111832734D01*
X123437618Y-111774724D01*
X123483790Y-111722285D01*
X123550983Y-111703133D01*
X123617865Y-111723348D01*
X123662381Y-111774724D01*
X123676517Y-111805038D01*
X123689429Y-111832728D01*
X123689432Y-111832734D01*
X123819954Y-112019141D01*
X123980858Y-112180045D01*
X123980861Y-112180047D01*
X124167266Y-112310568D01*
X124373504Y-112406739D01*
X124593308Y-112465635D01*
X124820000Y-112485468D01*
X124825353Y-112484999D01*
X124893852Y-112498763D01*
X124944037Y-112547376D01*
X124959973Y-112615404D01*
X124936601Y-112681249D01*
X124923845Y-112696208D01*
X120126937Y-117493115D01*
X120065614Y-117526600D01*
X120007163Y-117525209D01*
X119966697Y-117514366D01*
X119966693Y-117514365D01*
X119966692Y-117514365D01*
X119966691Y-117514364D01*
X119966686Y-117514364D01*
X119740002Y-117494532D01*
X119739998Y-117494532D01*
X119513313Y-117514364D01*
X119513302Y-117514366D01*
X119293511Y-117573258D01*
X119293502Y-117573261D01*
X119087267Y-117669431D01*
X119087265Y-117669432D01*
X118900858Y-117799954D01*
X118739954Y-117960858D01*
X118722725Y-117985464D01*
X118668147Y-118029088D01*
X118598648Y-118036280D01*
X118536294Y-118004757D01*
X118500882Y-117944526D01*
X118497861Y-117927591D01*
X118494091Y-117892516D01*
X118443797Y-117757671D01*
X118443793Y-117757664D01*
X118357547Y-117642455D01*
X118357544Y-117642452D01*
X118242335Y-117556206D01*
X118242328Y-117556202D01*
X118107482Y-117505908D01*
X118107483Y-117505908D01*
X118047883Y-117499501D01*
X118047881Y-117499500D01*
X118047873Y-117499500D01*
X118047864Y-117499500D01*
X116352129Y-117499500D01*
X116352123Y-117499501D01*
X116292516Y-117505908D01*
X116157671Y-117556202D01*
X116157664Y-117556206D01*
X116042455Y-117642452D01*
X116042452Y-117642455D01*
X115956206Y-117757664D01*
X115956202Y-117757671D01*
X115905908Y-117892517D01*
X115899501Y-117952116D01*
X115899500Y-117952135D01*
X115899500Y-119647870D01*
X115899501Y-119647876D01*
X115905908Y-119707483D01*
X115956202Y-119842328D01*
X115956206Y-119842335D01*
X116042452Y-119957544D01*
X116042455Y-119957547D01*
X116157664Y-120043793D01*
X116157671Y-120043797D01*
X116292517Y-120094091D01*
X116292516Y-120094091D01*
X116299444Y-120094835D01*
X116352127Y-120100500D01*
X118047872Y-120100499D01*
X118107483Y-120094091D01*
X118242331Y-120043796D01*
X118357546Y-119957546D01*
X118443796Y-119842331D01*
X118494091Y-119707483D01*
X118497862Y-119672401D01*
X118524599Y-119607855D01*
X118581990Y-119568006D01*
X118651816Y-119565511D01*
X118711905Y-119601163D01*
X118722726Y-119614536D01*
X118739956Y-119639143D01*
X118900858Y-119800045D01*
X118900861Y-119800047D01*
X119087266Y-119930568D01*
X119293504Y-120026739D01*
X119513308Y-120085635D01*
X119675230Y-120099801D01*
X119739998Y-120105468D01*
X119740000Y-120105468D01*
X119740002Y-120105468D01*
X119796807Y-120100498D01*
X119966692Y-120085635D01*
X120186496Y-120026739D01*
X120392734Y-119930568D01*
X120579139Y-119800047D01*
X120740047Y-119639139D01*
X120870568Y-119452734D01*
X120897618Y-119394724D01*
X120943790Y-119342285D01*
X121010983Y-119323133D01*
X121077865Y-119343348D01*
X121122382Y-119394725D01*
X121149429Y-119452728D01*
X121149432Y-119452734D01*
X121279954Y-119639141D01*
X121440858Y-119800045D01*
X121440861Y-119800047D01*
X121627266Y-119930568D01*
X121833504Y-120026739D01*
X122053308Y-120085635D01*
X122215230Y-120099801D01*
X122279998Y-120105468D01*
X122280000Y-120105468D01*
X122280002Y-120105468D01*
X122336807Y-120100498D01*
X122506692Y-120085635D01*
X122726496Y-120026739D01*
X122932734Y-119930568D01*
X123119139Y-119800047D01*
X123280047Y-119639139D01*
X123410568Y-119452734D01*
X123437895Y-119394129D01*
X123484064Y-119341695D01*
X123551257Y-119322542D01*
X123618139Y-119342757D01*
X123662657Y-119394133D01*
X123689865Y-119452482D01*
X123820342Y-119638820D01*
X123981179Y-119799657D01*
X124167517Y-119930134D01*
X124373673Y-120026265D01*
X124373682Y-120026269D01*
X124569999Y-120078872D01*
X124570000Y-120078871D01*
X124570000Y-119115686D01*
X124574394Y-119120080D01*
X124665606Y-119172741D01*
X124767339Y-119200000D01*
X124872661Y-119200000D01*
X124974394Y-119172741D01*
X125065606Y-119120080D01*
X125070000Y-119115686D01*
X125070000Y-120078872D01*
X125266317Y-120026269D01*
X125266326Y-120026265D01*
X125472482Y-119930134D01*
X125658820Y-119799657D01*
X125819657Y-119638820D01*
X125950134Y-119452482D01*
X126046265Y-119246326D01*
X126046269Y-119246317D01*
X126098872Y-119050000D01*
X125135686Y-119050000D01*
X125140080Y-119045606D01*
X125192741Y-118954394D01*
X125220000Y-118852661D01*
X125220000Y-118747339D01*
X125192741Y-118645606D01*
X125140080Y-118554394D01*
X125135686Y-118550000D01*
X126098872Y-118550000D01*
X126098872Y-118549999D01*
X126046269Y-118353682D01*
X126046265Y-118353673D01*
X125950134Y-118147517D01*
X125819657Y-117961179D01*
X125658820Y-117800342D01*
X125472482Y-117669865D01*
X125266328Y-117573734D01*
X125070000Y-117521127D01*
X125070000Y-118484314D01*
X125065606Y-118479920D01*
X124974394Y-118427259D01*
X124872661Y-118400000D01*
X124767339Y-118400000D01*
X124665606Y-118427259D01*
X124574394Y-118479920D01*
X124570000Y-118484314D01*
X124570000Y-117521127D01*
X124373671Y-117573734D01*
X124167517Y-117669865D01*
X123981179Y-117800342D01*
X123820342Y-117961179D01*
X123689867Y-118147515D01*
X123662657Y-118205867D01*
X123616484Y-118258306D01*
X123549290Y-118277457D01*
X123482409Y-118257241D01*
X123437893Y-118205865D01*
X123410570Y-118147271D01*
X123410567Y-118147265D01*
X123280045Y-117960858D01*
X123119141Y-117799954D01*
X122932734Y-117669432D01*
X122932732Y-117669431D01*
X122726497Y-117573261D01*
X122726488Y-117573258D01*
X122506697Y-117514366D01*
X122506693Y-117514365D01*
X122506692Y-117514365D01*
X122506691Y-117514364D01*
X122506686Y-117514364D01*
X122280002Y-117494532D01*
X122279999Y-117494532D01*
X122274634Y-117495001D01*
X122206134Y-117481230D01*
X122155955Y-117432611D01*
X122140026Y-117364582D01*
X122163405Y-117298740D01*
X122176147Y-117283797D01*
X130505276Y-108954669D01*
X130576465Y-108848127D01*
X130625501Y-108729744D01*
X130633682Y-108688615D01*
X130650500Y-108604071D01*
X130650500Y-107297722D01*
X130670185Y-107230683D01*
X130703377Y-107196147D01*
X130789687Y-107135712D01*
X130871401Y-107078495D01*
X131038495Y-106911401D01*
X131174035Y-106717830D01*
X131273903Y-106503663D01*
X131335063Y-106275408D01*
X131355659Y-106040000D01*
X131335063Y-105804592D01*
X131315614Y-105732007D01*
X131317277Y-105662162D01*
X131347706Y-105612238D01*
X133005277Y-103954669D01*
X133076465Y-103848127D01*
X133125501Y-103729744D01*
X133150500Y-103604069D01*
X133150500Y-89815931D01*
X133150500Y-89815928D01*
X133125502Y-89690261D01*
X133125501Y-89690260D01*
X133125501Y-89690256D01*
X133076465Y-89571873D01*
X133005277Y-89465331D01*
X133005275Y-89465329D01*
X133005273Y-89465326D01*
X133005272Y-89465325D01*
X130926884Y-87386938D01*
X130893399Y-87325615D01*
X130894791Y-87267162D01*
X130905633Y-87226699D01*
X130905632Y-87226699D01*
X130905635Y-87226692D01*
X130925468Y-87000000D01*
X130905635Y-86773308D01*
X130849661Y-86564410D01*
X130846741Y-86553511D01*
X130846738Y-86553502D01*
X130783109Y-86417051D01*
X130750568Y-86347266D01*
X130620047Y-86160861D01*
X130620045Y-86160858D01*
X130459141Y-85999954D01*
X130272734Y-85869432D01*
X130272732Y-85869431D01*
X130066497Y-85773261D01*
X130066488Y-85773258D01*
X129846697Y-85714366D01*
X129846693Y-85714365D01*
X129846692Y-85714365D01*
X129846691Y-85714364D01*
X129846686Y-85714364D01*
X129620002Y-85694532D01*
X129619998Y-85694532D01*
X129393313Y-85714364D01*
X129393302Y-85714366D01*
X129173511Y-85773258D01*
X129173502Y-85773261D01*
X128967267Y-85869431D01*
X128967265Y-85869432D01*
X128780858Y-85999954D01*
X128619954Y-86160858D01*
X128489432Y-86347265D01*
X128489431Y-86347267D01*
X128393261Y-86553502D01*
X128393258Y-86553511D01*
X128334366Y-86773302D01*
X128334364Y-86773313D01*
X128314532Y-86999998D01*
X128314532Y-87000001D01*
X128334364Y-87226686D01*
X128334366Y-87226697D01*
X128393258Y-87446488D01*
X128393261Y-87446497D01*
X128489431Y-87652732D01*
X128489432Y-87652734D01*
X128619954Y-87839141D01*
X128780858Y-88000045D01*
X128780861Y-88000047D01*
X128967266Y-88130568D01*
X129173504Y-88226739D01*
X129393308Y-88285635D01*
X129555230Y-88299801D01*
X129619998Y-88305468D01*
X129620000Y-88305468D01*
X129620002Y-88305468D01*
X129651421Y-88302719D01*
X129846692Y-88285635D01*
X129887162Y-88274791D01*
X129957012Y-88276452D01*
X130006938Y-88306884D01*
X131813181Y-90113127D01*
X131846666Y-90174450D01*
X131849500Y-90200808D01*
X131849500Y-103219191D01*
X131829815Y-103286230D01*
X131813181Y-103306872D01*
X131406372Y-103713681D01*
X131345049Y-103747166D01*
X131318691Y-103750000D01*
X130433012Y-103750000D01*
X130465925Y-103692993D01*
X130500000Y-103565826D01*
X130500000Y-103434174D01*
X130465925Y-103307007D01*
X130433012Y-103250000D01*
X131350000Y-103250000D01*
X131350000Y-102602172D01*
X131349999Y-102602155D01*
X131343598Y-102542627D01*
X131343596Y-102542620D01*
X131293354Y-102407913D01*
X131293350Y-102407906D01*
X131207190Y-102292812D01*
X131207187Y-102292809D01*
X131092093Y-102206649D01*
X131092086Y-102206645D01*
X130957379Y-102156403D01*
X130957372Y-102156401D01*
X130897844Y-102150000D01*
X130250000Y-102150000D01*
X130250000Y-103066988D01*
X130192993Y-103034075D01*
X130065826Y-103000000D01*
X129934174Y-103000000D01*
X129807007Y-103034075D01*
X129750000Y-103066988D01*
X129750000Y-102150000D01*
X129102155Y-102150000D01*
X129042627Y-102156401D01*
X129042620Y-102156403D01*
X128907913Y-102206645D01*
X128907906Y-102206649D01*
X128792812Y-102292809D01*
X128792809Y-102292812D01*
X128706649Y-102407906D01*
X128706645Y-102407913D01*
X128656403Y-102542620D01*
X128656401Y-102542627D01*
X128650000Y-102602155D01*
X128650000Y-103250000D01*
X129566988Y-103250000D01*
X129534075Y-103307007D01*
X129500000Y-103434174D01*
X129500000Y-103565826D01*
X129534075Y-103692993D01*
X129566988Y-103750000D01*
X128650000Y-103750000D01*
X128650000Y-104397844D01*
X128656401Y-104457372D01*
X128656403Y-104457379D01*
X128706645Y-104592086D01*
X128706649Y-104592093D01*
X128792809Y-104707187D01*
X128792812Y-104707190D01*
X128907906Y-104793350D01*
X128907913Y-104793354D01*
X129039470Y-104842421D01*
X129095403Y-104884292D01*
X129119821Y-104949756D01*
X129104970Y-105018029D01*
X129083819Y-105046284D01*
X128961503Y-105168600D01*
X128825965Y-105362169D01*
X128825964Y-105362171D01*
X128726098Y-105576335D01*
X128726094Y-105576344D01*
X128664938Y-105804586D01*
X128664936Y-105804596D01*
X128644341Y-106039999D01*
X128644341Y-106040000D01*
X128664936Y-106275403D01*
X128664938Y-106275413D01*
X128726094Y-106503655D01*
X128726096Y-106503659D01*
X128726097Y-106503663D01*
X128766157Y-106589571D01*
X128825965Y-106717830D01*
X128825967Y-106717834D01*
X128934281Y-106872521D01*
X128955725Y-106903147D01*
X128961501Y-106911395D01*
X128961506Y-106911402D01*
X129128597Y-107078493D01*
X129128603Y-107078498D01*
X129296623Y-107196147D01*
X129340248Y-107250724D01*
X129349500Y-107297722D01*
X129349500Y-108219192D01*
X129329815Y-108286231D01*
X129313181Y-108306873D01*
X126336208Y-111283845D01*
X126274885Y-111317330D01*
X126205193Y-111312346D01*
X126149260Y-111270474D01*
X126124843Y-111205010D01*
X126124998Y-111185361D01*
X126125468Y-111180000D01*
X126105635Y-110953308D01*
X126046739Y-110733504D01*
X125950568Y-110527266D01*
X125820047Y-110340861D01*
X125820045Y-110340858D01*
X125659141Y-110179954D01*
X125472734Y-110049432D01*
X125472732Y-110049431D01*
X125266497Y-109953261D01*
X125266488Y-109953258D01*
X125046697Y-109894366D01*
X125046693Y-109894365D01*
X125046692Y-109894365D01*
X125046691Y-109894364D01*
X125046686Y-109894364D01*
X124820002Y-109874532D01*
X124819998Y-109874532D01*
X124593313Y-109894364D01*
X124593302Y-109894366D01*
X124373511Y-109953258D01*
X124373502Y-109953261D01*
X124167267Y-110049431D01*
X124167265Y-110049432D01*
X123980858Y-110179954D01*
X123819954Y-110340858D01*
X123689432Y-110527265D01*
X123689431Y-110527267D01*
X123662382Y-110585275D01*
X123616209Y-110637714D01*
X123549016Y-110656866D01*
X123482135Y-110636650D01*
X123437618Y-110585275D01*
X123410568Y-110527267D01*
X123410567Y-110527265D01*
X123407329Y-110522641D01*
X123280047Y-110340861D01*
X123280045Y-110340858D01*
X123119141Y-110179954D01*
X122932734Y-110049432D01*
X122932732Y-110049431D01*
X122726497Y-109953261D01*
X122726488Y-109953258D01*
X122506697Y-109894366D01*
X122506693Y-109894365D01*
X122506692Y-109894365D01*
X122506691Y-109894364D01*
X122506686Y-109894364D01*
X122280002Y-109874532D01*
X122279998Y-109874532D01*
X122053313Y-109894364D01*
X122053302Y-109894366D01*
X121833511Y-109953258D01*
X121833502Y-109953261D01*
X121627267Y-110049431D01*
X121627265Y-110049432D01*
X121440858Y-110179954D01*
X121279954Y-110340858D01*
X121149432Y-110527265D01*
X121149431Y-110527267D01*
X121122382Y-110585275D01*
X121076209Y-110637714D01*
X121009016Y-110656866D01*
X120942135Y-110636650D01*
X120897618Y-110585275D01*
X120870568Y-110527267D01*
X120870567Y-110527265D01*
X120867329Y-110522641D01*
X120740047Y-110340861D01*
X120740045Y-110340858D01*
X120579140Y-110179953D01*
X120443377Y-110084891D01*
X120399752Y-110030314D01*
X120390500Y-109983316D01*
X120390500Y-106080806D01*
X120410185Y-106013767D01*
X120426814Y-105993130D01*
X120519945Y-105899999D01*
X121745225Y-105899999D01*
X121745225Y-105900000D01*
X121764287Y-106117884D01*
X121764289Y-106117894D01*
X121820894Y-106329150D01*
X121820898Y-106329159D01*
X121913333Y-106527387D01*
X121956874Y-106589571D01*
X122600000Y-105946445D01*
X122600000Y-105952661D01*
X122627259Y-106054394D01*
X122679920Y-106145606D01*
X122754394Y-106220080D01*
X122845606Y-106272741D01*
X122947339Y-106300000D01*
X122953553Y-106300000D01*
X122310427Y-106943124D01*
X122372612Y-106986666D01*
X122570840Y-107079101D01*
X122570849Y-107079105D01*
X122782105Y-107135710D01*
X122782115Y-107135712D01*
X122999999Y-107154775D01*
X123000001Y-107154775D01*
X123217884Y-107135712D01*
X123217894Y-107135710D01*
X123429150Y-107079105D01*
X123429164Y-107079100D01*
X123627383Y-106986669D01*
X123627385Y-106986668D01*
X123689571Y-106943124D01*
X123046448Y-106300000D01*
X123052661Y-106300000D01*
X123154394Y-106272741D01*
X123245606Y-106220080D01*
X123320080Y-106145606D01*
X123372741Y-106054394D01*
X123400000Y-105952661D01*
X123400000Y-105946446D01*
X124043124Y-106589570D01*
X124086668Y-106527385D01*
X124086669Y-106527383D01*
X124179100Y-106329164D01*
X124179105Y-106329150D01*
X124235710Y-106117894D01*
X124235712Y-106117884D01*
X124254775Y-105900000D01*
X124254775Y-105899999D01*
X124235712Y-105682115D01*
X124235710Y-105682105D01*
X124179105Y-105470849D01*
X124179101Y-105470840D01*
X124086667Y-105272614D01*
X124086666Y-105272612D01*
X124043124Y-105210428D01*
X124043124Y-105210427D01*
X123400000Y-105853551D01*
X123400000Y-105847339D01*
X123372741Y-105745606D01*
X123320080Y-105654394D01*
X123245606Y-105579920D01*
X123154394Y-105527259D01*
X123052661Y-105500000D01*
X123046447Y-105500000D01*
X123689571Y-104856874D01*
X123627387Y-104813333D01*
X123429159Y-104720898D01*
X123429150Y-104720894D01*
X123217894Y-104664289D01*
X123217884Y-104664287D01*
X123000001Y-104645225D01*
X122999999Y-104645225D01*
X122782115Y-104664287D01*
X122782105Y-104664289D01*
X122570849Y-104720894D01*
X122570840Y-104720898D01*
X122372613Y-104813333D01*
X122310428Y-104856874D01*
X122953554Y-105500000D01*
X122947339Y-105500000D01*
X122845606Y-105527259D01*
X122754394Y-105579920D01*
X122679920Y-105654394D01*
X122627259Y-105745606D01*
X122600000Y-105847339D01*
X122600000Y-105853554D01*
X121956874Y-105210428D01*
X121913333Y-105272613D01*
X121820898Y-105470840D01*
X121820894Y-105470849D01*
X121764289Y-105682105D01*
X121764287Y-105682115D01*
X121745225Y-105899999D01*
X120519945Y-105899999D01*
X122653886Y-103766057D01*
X122715207Y-103732574D01*
X122773663Y-103733966D01*
X122782023Y-103736207D01*
X122964926Y-103752208D01*
X122999998Y-103755277D01*
X123000000Y-103755277D01*
X123000002Y-103755277D01*
X123028254Y-103752805D01*
X123217977Y-103736207D01*
X123429330Y-103679575D01*
X123627639Y-103587102D01*
X123806877Y-103461598D01*
X123961598Y-103306877D01*
X124087102Y-103127639D01*
X124179575Y-102929330D01*
X124236207Y-102717977D01*
X124255277Y-102500000D01*
X124254622Y-102492517D01*
X124251569Y-102457618D01*
X124236207Y-102282023D01*
X124233967Y-102273663D01*
X124235626Y-102203816D01*
X124266057Y-102153887D01*
X128233127Y-98186819D01*
X128294450Y-98153334D01*
X128320808Y-98150500D01*
X128423317Y-98150500D01*
X128490356Y-98170185D01*
X128524892Y-98203377D01*
X128619954Y-98339141D01*
X128780858Y-98500045D01*
X128780861Y-98500047D01*
X128967266Y-98630568D01*
X129173504Y-98726739D01*
X129393308Y-98785635D01*
X129543716Y-98798794D01*
X129619998Y-98805468D01*
X129620000Y-98805468D01*
X129620002Y-98805468D01*
X129676673Y-98800509D01*
X129846692Y-98785635D01*
X130066496Y-98726739D01*
X130272734Y-98630568D01*
X130459139Y-98500047D01*
X130620047Y-98339139D01*
X130750568Y-98152734D01*
X130846739Y-97946496D01*
X130905635Y-97726692D01*
X130925468Y-97500000D01*
X130905635Y-97273308D01*
X130846739Y-97053504D01*
X130750568Y-96847266D01*
X130620047Y-96660861D01*
X130620045Y-96660858D01*
X130459141Y-96499954D01*
X130272734Y-96369432D01*
X130272732Y-96369431D01*
X130066497Y-96273261D01*
X130066488Y-96273258D01*
X129846697Y-96214366D01*
X129846693Y-96214365D01*
X129846692Y-96214365D01*
X129846691Y-96214364D01*
X129846686Y-96214364D01*
X129620002Y-96194532D01*
X129619998Y-96194532D01*
X129393313Y-96214364D01*
X129393302Y-96214366D01*
X129173511Y-96273258D01*
X129173502Y-96273261D01*
X128967267Y-96369431D01*
X128967265Y-96369432D01*
X128780858Y-96499954D01*
X128619954Y-96660858D01*
X128524892Y-96796623D01*
X128470315Y-96840248D01*
X128423317Y-96849500D01*
X127935929Y-96849500D01*
X127810261Y-96874497D01*
X127810255Y-96874499D01*
X127707534Y-96917048D01*
X127707533Y-96917048D01*
X127691876Y-96923533D01*
X127585326Y-96994726D01*
X123346113Y-101233939D01*
X123284790Y-101267424D01*
X123226346Y-101266035D01*
X123217983Y-101263794D01*
X123217970Y-101263792D01*
X123000002Y-101244723D01*
X122999998Y-101244723D01*
X122854682Y-101257436D01*
X122782023Y-101263793D01*
X122782020Y-101263793D01*
X122570677Y-101320422D01*
X122570668Y-101320426D01*
X122372361Y-101412898D01*
X122372357Y-101412900D01*
X122193121Y-101538402D01*
X122038402Y-101693121D01*
X121912900Y-101872357D01*
X121912898Y-101872361D01*
X121820426Y-102070668D01*
X121820422Y-102070677D01*
X121763793Y-102282020D01*
X121763793Y-102282024D01*
X121744723Y-102499997D01*
X121744723Y-102500002D01*
X121763792Y-102717971D01*
X121763794Y-102717984D01*
X121766035Y-102726347D01*
X121764368Y-102796197D01*
X121733939Y-102846114D01*
X119234720Y-105345333D01*
X119217471Y-105371151D01*
X119205211Y-105389500D01*
X119204251Y-105390937D01*
X119163534Y-105451873D01*
X119114499Y-105570255D01*
X119114497Y-105570261D01*
X119089500Y-105695928D01*
X119089500Y-109983316D01*
X119069815Y-110050355D01*
X119036623Y-110084891D01*
X118900859Y-110179953D01*
X118739954Y-110340858D01*
X118609432Y-110527265D01*
X118609431Y-110527267D01*
X118582382Y-110585275D01*
X118536209Y-110637714D01*
X118469016Y-110656866D01*
X118402135Y-110636650D01*
X118357618Y-110585275D01*
X118330568Y-110527267D01*
X118330567Y-110527265D01*
X118327329Y-110522641D01*
X118200047Y-110340861D01*
X118039139Y-110179953D01*
X118034373Y-110176615D01*
X118003375Y-110154910D01*
X117959751Y-110100332D01*
X117950500Y-110053336D01*
X117950500Y-100246079D01*
X117921659Y-100101092D01*
X117921658Y-100101091D01*
X117921658Y-100101087D01*
X117921656Y-100101082D01*
X117865087Y-99964511D01*
X117865080Y-99964498D01*
X117782952Y-99841585D01*
X117782951Y-99841584D01*
X117678416Y-99737049D01*
X116727000Y-98785633D01*
X115706716Y-97765348D01*
X115673231Y-97704025D01*
X115670869Y-97666863D01*
X115685468Y-97500000D01*
X115665635Y-97273308D01*
X115606739Y-97053504D01*
X115510568Y-96847266D01*
X115380047Y-96660861D01*
X115380045Y-96660858D01*
X115219141Y-96499954D01*
X115032734Y-96369432D01*
X115032732Y-96369431D01*
X114826497Y-96273261D01*
X114826488Y-96273258D01*
X114606697Y-96214366D01*
X114606693Y-96214365D01*
X114606692Y-96214365D01*
X114606691Y-96214364D01*
X114606686Y-96214364D01*
X114380002Y-96194532D01*
X114379998Y-96194532D01*
X114153313Y-96214364D01*
X114153302Y-96214366D01*
X113933511Y-96273258D01*
X113933502Y-96273261D01*
X113727267Y-96369431D01*
X113727265Y-96369432D01*
X113540858Y-96499954D01*
X113379954Y-96660858D01*
X113354912Y-96696623D01*
X113300335Y-96740248D01*
X113253337Y-96749500D01*
X112362229Y-96749500D01*
X112295190Y-96729815D01*
X112274548Y-96713181D01*
X111786819Y-96225451D01*
X111753334Y-96164128D01*
X111750500Y-96137770D01*
X111750500Y-91999998D01*
X113074532Y-91999998D01*
X113074532Y-92000001D01*
X113094364Y-92226686D01*
X113094366Y-92226697D01*
X113153258Y-92446488D01*
X113153261Y-92446497D01*
X113249431Y-92652732D01*
X113249432Y-92652734D01*
X113379954Y-92839141D01*
X113540858Y-93000045D01*
X113540861Y-93000047D01*
X113727266Y-93130568D01*
X113933504Y-93226739D01*
X114153308Y-93285635D01*
X114315230Y-93299801D01*
X114379998Y-93305468D01*
X114380000Y-93305468D01*
X114380002Y-93305468D01*
X114436673Y-93300509D01*
X114606692Y-93285635D01*
X114826496Y-93226739D01*
X115032734Y-93130568D01*
X115219139Y-93000047D01*
X115380047Y-92839139D01*
X115510568Y-92652734D01*
X115606739Y-92446496D01*
X115665635Y-92226692D01*
X115685468Y-92000000D01*
X115665635Y-91773308D01*
X115659389Y-91749999D01*
X128341127Y-91749999D01*
X128341128Y-91750000D01*
X129304314Y-91750000D01*
X129299920Y-91754394D01*
X129247259Y-91845606D01*
X129220000Y-91947339D01*
X129220000Y-92052661D01*
X129247259Y-92154394D01*
X129299920Y-92245606D01*
X129304314Y-92250000D01*
X128341128Y-92250000D01*
X128393730Y-92446317D01*
X128393734Y-92446326D01*
X128489865Y-92652482D01*
X128620342Y-92838820D01*
X128781179Y-92999657D01*
X128967517Y-93130134D01*
X129173673Y-93226265D01*
X129173682Y-93226269D01*
X129369999Y-93278872D01*
X129370000Y-93278871D01*
X129370000Y-92315686D01*
X129374394Y-92320080D01*
X129465606Y-92372741D01*
X129567339Y-92400000D01*
X129672661Y-92400000D01*
X129774394Y-92372741D01*
X129865606Y-92320080D01*
X129870000Y-92315686D01*
X129870000Y-93278872D01*
X130066317Y-93226269D01*
X130066326Y-93226265D01*
X130272482Y-93130134D01*
X130458820Y-92999657D01*
X130619657Y-92838820D01*
X130750134Y-92652482D01*
X130846265Y-92446326D01*
X130846269Y-92446317D01*
X130898872Y-92250000D01*
X129935686Y-92250000D01*
X129940080Y-92245606D01*
X129992741Y-92154394D01*
X130020000Y-92052661D01*
X130020000Y-91947339D01*
X129992741Y-91845606D01*
X129940080Y-91754394D01*
X129935686Y-91750000D01*
X130898872Y-91750000D01*
X130898872Y-91749999D01*
X130846269Y-91553682D01*
X130846265Y-91553673D01*
X130750134Y-91347517D01*
X130619657Y-91161179D01*
X130458820Y-91000342D01*
X130272482Y-90869865D01*
X130066328Y-90773734D01*
X129870000Y-90721127D01*
X129870000Y-91684314D01*
X129865606Y-91679920D01*
X129774394Y-91627259D01*
X129672661Y-91600000D01*
X129567339Y-91600000D01*
X129465606Y-91627259D01*
X129374394Y-91679920D01*
X129370000Y-91684314D01*
X129370000Y-90721127D01*
X129173671Y-90773734D01*
X128967517Y-90869865D01*
X128781179Y-91000342D01*
X128620342Y-91161179D01*
X128489865Y-91347517D01*
X128393734Y-91553673D01*
X128393730Y-91553682D01*
X128341127Y-91749999D01*
X115659389Y-91749999D01*
X115606739Y-91553504D01*
X115510568Y-91347266D01*
X115380047Y-91160861D01*
X115380045Y-91160858D01*
X115219141Y-90999954D01*
X115032734Y-90869432D01*
X115032732Y-90869431D01*
X114826497Y-90773261D01*
X114826488Y-90773258D01*
X114606697Y-90714366D01*
X114606693Y-90714365D01*
X114606692Y-90714365D01*
X114606691Y-90714364D01*
X114606686Y-90714364D01*
X114380002Y-90694532D01*
X114379998Y-90694532D01*
X114153313Y-90714364D01*
X114153302Y-90714366D01*
X113933511Y-90773258D01*
X113933502Y-90773261D01*
X113727267Y-90869431D01*
X113727265Y-90869432D01*
X113540858Y-90999954D01*
X113379954Y-91160858D01*
X113249432Y-91347265D01*
X113249431Y-91347267D01*
X113153261Y-91553502D01*
X113153258Y-91553511D01*
X113094366Y-91773302D01*
X113094364Y-91773313D01*
X113074532Y-91999998D01*
X111750500Y-91999998D01*
X111750500Y-88862229D01*
X111770185Y-88795190D01*
X111786819Y-88774548D01*
X112774548Y-87786819D01*
X112835871Y-87753334D01*
X112862229Y-87750500D01*
X113253337Y-87750500D01*
X113320376Y-87770185D01*
X113354912Y-87803377D01*
X113379954Y-87839141D01*
X113540858Y-88000045D01*
X113540861Y-88000047D01*
X113727266Y-88130568D01*
X113933504Y-88226739D01*
X114153308Y-88285635D01*
X114315230Y-88299801D01*
X114379998Y-88305468D01*
X114380000Y-88305468D01*
X114380002Y-88305468D01*
X114436673Y-88300509D01*
X114606692Y-88285635D01*
X114826496Y-88226739D01*
X115032734Y-88130568D01*
X115219139Y-88000047D01*
X115380047Y-87839139D01*
X115510568Y-87652734D01*
X115606739Y-87446496D01*
X115665635Y-87226692D01*
X115685468Y-87000000D01*
X115665635Y-86773308D01*
X115609661Y-86564410D01*
X115606741Y-86553511D01*
X115606738Y-86553502D01*
X115543109Y-86417051D01*
X115510568Y-86347266D01*
X115380047Y-86160861D01*
X115380045Y-86160858D01*
X115219141Y-85999954D01*
X115032734Y-85869432D01*
X115032732Y-85869431D01*
X114826497Y-85773261D01*
X114826488Y-85773258D01*
X114606697Y-85714366D01*
X114606693Y-85714365D01*
X114606692Y-85714365D01*
X114606691Y-85714364D01*
X114606686Y-85714364D01*
X114380002Y-85694532D01*
X114379998Y-85694532D01*
X114153313Y-85714364D01*
X114153302Y-85714366D01*
X113933511Y-85773258D01*
X113933502Y-85773261D01*
X113727267Y-85869431D01*
X113727265Y-85869432D01*
X113540858Y-85999954D01*
X113379954Y-86160858D01*
X113354912Y-86196623D01*
X113300335Y-86240248D01*
X113253337Y-86249500D01*
X112426080Y-86249500D01*
X112281092Y-86278340D01*
X112281082Y-86278343D01*
X112144511Y-86334912D01*
X112144498Y-86334919D01*
X112021584Y-86417048D01*
X112021580Y-86417051D01*
X110417050Y-88021580D01*
X110417044Y-88021588D01*
X110367812Y-88095268D01*
X110367813Y-88095269D01*
X110334921Y-88144496D01*
X110334914Y-88144508D01*
X110278342Y-88281086D01*
X110278340Y-88281092D01*
X110249500Y-88426079D01*
X110249500Y-96573920D01*
X110254948Y-96601308D01*
X110248721Y-96670899D01*
X110205859Y-96726077D01*
X110139969Y-96749322D01*
X110133331Y-96749500D01*
X83926080Y-96749500D01*
X83781092Y-96778340D01*
X83781086Y-96778342D01*
X83644508Y-96834914D01*
X83644496Y-96834921D01*
X83595269Y-96867813D01*
X83521588Y-96917044D01*
X83521580Y-96917050D01*
X82025449Y-98413181D01*
X81964126Y-98446666D01*
X81937768Y-98449500D01*
X80402129Y-98449500D01*
X80402123Y-98449501D01*
X80342516Y-98455908D01*
X80207671Y-98506202D01*
X80207664Y-98506206D01*
X80092455Y-98592452D01*
X80092452Y-98592455D01*
X80006206Y-98707664D01*
X80006202Y-98707671D01*
X79955908Y-98842517D01*
X79949501Y-98902116D01*
X79949500Y-98902135D01*
X77076153Y-98902135D01*
X77079073Y-98848904D01*
X77079403Y-98844410D01*
X77177263Y-97775837D01*
X77177751Y-97771398D01*
X77314578Y-96707066D01*
X77315238Y-96702589D01*
X77322160Y-96660861D01*
X77490834Y-95644032D01*
X77491652Y-95639602D01*
X77705810Y-94588076D01*
X77706770Y-94583770D01*
X77959196Y-93540735D01*
X77960313Y-93536462D01*
X78250660Y-92503359D01*
X78251942Y-92499096D01*
X78579819Y-91477308D01*
X78581248Y-91473120D01*
X78946234Y-90463962D01*
X78947821Y-90459811D01*
X79349430Y-89464631D01*
X79351154Y-89460576D01*
X79788817Y-88480782D01*
X79790706Y-88476752D01*
X80263855Y-87513606D01*
X80265918Y-87509594D01*
X80773916Y-86564393D01*
X80776124Y-86560460D01*
X80860091Y-86417049D01*
X81318316Y-85634423D01*
X81320629Y-85630634D01*
X81896282Y-84725013D01*
X81898734Y-84721306D01*
X82507104Y-83837276D01*
X82509706Y-83833640D01*
X83149907Y-82972486D01*
X83152662Y-82968918D01*
X83497450Y-82538875D01*
X83823885Y-82131722D01*
X83826745Y-82128285D01*
X84528153Y-81316095D01*
X84531113Y-81312793D01*
X85261691Y-80526788D01*
X85264781Y-80523583D01*
X86023583Y-79764781D01*
X86026788Y-79761691D01*
X86812793Y-79031113D01*
X86816095Y-79028153D01*
X87628285Y-78326745D01*
X87631722Y-78323885D01*
X88468934Y-77652649D01*
X88472486Y-77649907D01*
X89333640Y-77009706D01*
X89337276Y-77007104D01*
X90221306Y-76398734D01*
X90225013Y-76396282D01*
X91130634Y-75820629D01*
X91134423Y-75818316D01*
X92060476Y-75276114D01*
X92064393Y-75273916D01*
X93009610Y-74765909D01*
X93013606Y-74763855D01*
X93976752Y-74290706D01*
X93980782Y-74288817D01*
X94960576Y-73851154D01*
X94964631Y-73849430D01*
X95959811Y-73447821D01*
X95963962Y-73446234D01*
X96973120Y-73081248D01*
X96977308Y-73079819D01*
X97999096Y-72751942D01*
X98003359Y-72750660D01*
X99036462Y-72460313D01*
X99040735Y-72459196D01*
X100083770Y-72206770D01*
X100088076Y-72205810D01*
X101139626Y-71991647D01*
X101144032Y-71990834D01*
X102202592Y-71815237D01*
X102207070Y-71814578D01*
X103271398Y-71677751D01*
X103275837Y-71677263D01*
X104344433Y-71579401D01*
X104348904Y-71579073D01*
X105420393Y-71520303D01*
X105424869Y-71520139D01*
X106497756Y-71500541D01*
X106502244Y-71500541D01*
X107575128Y-71520139D01*
G37*
%TD.AperFunction*%
%TD*%
M02*
