M48
; DRILL file {KiCad 8.0.3} date 2024-06-25T15:06:47+0100
; FORMAT={-:-/ absolute / inch / decimal}
; #@! TF.CreationDate,2024-06-25T15:06:47+01:00
; #@! TF.GenerationSoftware,Kicad,Pcbnew,8.0.3
; #@! TF.FileFunction,Plated,1,2,PTH
FMAT,2
INCH
; #@! TA.AperFunction,Plated,PTH,ViaDrill
T1C0.0118
; #@! TA.AperFunction,Plated,PTH,ComponentDrill
T2C0.0197
%
G90
G05
T1
X2.0069Y-3.1789
X2.007Y-2.462
X2.0075Y-6.0436
X2.0076Y-5.3267
X2.0077Y-3.2262
X2.0078Y-2.5093
X2.0081Y-1.7443
X2.0082Y-1.0274
X2.0083Y-6.0908
X2.0084Y-5.3739
X2.0085Y-3.3593
X2.0086Y-2.6423
X2.0087Y-4.609
X2.0088Y-3.892
X2.0089Y-1.7915
X2.009Y-1.0746
X2.0091Y-6.2239
X2.0092Y-5.507
X2.0094Y-4.6562
X2.0096Y-3.9393
X2.0096Y-1.9246
X2.0098Y-1.2077
X2.0102Y-4.7893
X2.0104Y-4.0723
X2.1781Y-3.2057
X2.1783Y-2.4888
X2.1787Y-6.0704
X2.1789Y-5.3534
X2.1793Y-1.7711
X2.1795Y-1.0541
X2.1799Y-4.6357
X2.1801Y-3.9188
X2.2301Y-3.0742
X2.2303Y-2.3573
X2.2307Y-5.9389
X2.2309Y-5.2219
X2.2313Y-1.6396
X2.2314Y-0.9226
X2.2319Y-4.5042
X2.232Y-3.7873
X2.403Y-3.001
X2.4031Y-2.2841
X2.4035Y-5.8656
X2.4037Y-5.1487
X2.4041Y-1.5663
X2.4043Y-0.8494
X2.4047Y-4.431
X2.4049Y-3.7141
X2.4533Y-3.0829
X2.4535Y-2.3659
X2.4539Y-5.9475
X2.4541Y-5.2306
X2.4545Y-1.6482
X2.4547Y-0.9313
X2.4551Y-4.5129
X2.4553Y-3.796
X2.5679Y-3.3006
X2.5681Y-2.5837
X2.5685Y-6.1653
X2.5687Y-5.4483
X2.5691Y-1.8659
X2.5692Y-1.149
X2.5697Y-4.7306
X2.5698Y-4.0137
X3.8142Y-3.1827
X3.8143Y-2.4657
X3.8148Y-6.0473
X3.8149Y-5.3304
X3.815Y-3.2299
X3.8151Y-2.513
X3.8154Y-1.748
X3.8155Y-1.0311
X3.8156Y-6.0946
X3.8157Y-5.3777
X3.8157Y-3.363
X3.8159Y-2.6461
X3.8159Y-4.6127
X3.8161Y-3.8958
X3.8161Y-1.7953
X3.8163Y-1.0783
X3.8163Y-6.2277
X3.8165Y-5.5107
X3.8167Y-4.6599
X3.8169Y-3.943
X3.8169Y-1.9283
X3.8171Y-1.2114
X3.8175Y-4.793
X3.8177Y-4.0761
X3.9854Y-3.2094
X3.9856Y-2.4925
X3.986Y-6.0741
X3.9862Y-5.3572
X3.9866Y-1.7748
X3.9868Y-1.0579
X3.9872Y-4.6395
X3.9874Y-3.9225
X4.0374Y-3.078
X4.0375Y-2.361
X4.038Y-5.9426
X4.0381Y-5.2257
X4.0386Y-1.6433
X4.0387Y-0.9264
X4.0392Y-4.508
X4.0393Y-3.791
X4.2102Y-3.0047
X4.2104Y-2.2878
X4.2108Y-5.8694
X4.211Y-5.1525
X4.2114Y-1.5701
X4.2116Y-0.8531
X4.212Y-4.4347
X4.2122Y-3.7178
X4.2606Y-3.0866
X4.2608Y-2.3697
X4.2612Y-5.9513
X4.2614Y-5.2344
X4.2618Y-1.652
X4.262Y-0.935
X4.2624Y-4.5166
X4.2625Y-3.7997
X4.3752Y-3.3043
X4.3753Y-2.5874
X4.3758Y-6.169
X4.3759Y-5.4521
X4.3764Y-1.8697
X4.3765Y-1.1528
X4.377Y-4.7344
X4.3771Y-4.0174
X5.6245Y-3.1849
X5.6246Y-2.468
X5.625Y-6.0496
X5.6252Y-5.3327
X5.6252Y-3.2322
X5.6254Y-2.5153
X5.6256Y-1.7503
X5.6258Y-1.0334
X5.6258Y-6.0969
X5.626Y-5.3799
X5.626Y-3.3653
X5.6262Y-2.6483
X5.6262Y-4.615
X5.6264Y-3.898
X5.6264Y-1.7975
X5.6266Y-1.0806
X5.6266Y-6.2299
X5.6268Y-5.513
X5.627Y-4.6622
X5.6272Y-3.9453
X5.6272Y-1.9306
X5.6274Y-1.2137
X5.6278Y-4.7953
X5.628Y-4.0783
X5.7957Y-3.2117
X5.7959Y-2.4948
X5.7963Y-6.0764
X5.7965Y-5.3594
X5.7969Y-1.7771
X5.797Y-1.0601
X5.7975Y-4.6417
X5.7976Y-3.9248
X5.8477Y-3.0802
X5.8478Y-2.3633
X5.8483Y-5.9449
X5.8484Y-5.228
X5.8489Y-1.6456
X5.849Y-0.9286
X5.8495Y-4.5102
X5.8496Y-3.7933
X6.0205Y-3.007
X6.0207Y-2.2901
X6.0211Y-5.8717
X6.0213Y-5.1547
X6.0217Y-1.5723
X6.0219Y-0.8554
X6.0223Y-4.437
X6.0224Y-3.7201
X6.0709Y-3.0889
X6.0711Y-2.3719
X6.0715Y-5.9535
X6.0717Y-5.2366
X6.0721Y-1.6542
X6.0722Y-0.9373
X6.0727Y-4.5189
X6.0728Y-3.802
X6.1855Y-3.3066
X6.1856Y-2.5897
X6.1861Y-6.1713
X6.1862Y-5.4543
X6.1867Y-1.8719
X6.1868Y-1.155
X6.1873Y-4.7366
X6.1874Y-4.0197
X7.4317Y-3.1887
X7.4319Y-2.4718
X7.4323Y-6.0533
X7.4325Y-5.3364
X7.4325Y-3.2359
X7.4327Y-2.519
X7.4329Y-1.754
X7.4331Y-1.0371
X7.4331Y-6.1006
X7.4333Y-5.3837
X7.4333Y-3.369
X7.4335Y-2.6521
X7.4335Y-4.6187
X7.4337Y-3.9018
X7.4337Y-1.8013
X7.4339Y-1.0844
X7.4339Y-6.2337
X7.4341Y-5.5167
X7.4343Y-4.6659
X7.4344Y-3.949
X7.4345Y-1.9344
X7.4346Y-1.2174
X7.4351Y-4.799
X7.4352Y-4.0821
X7.603Y-3.2155
X7.6031Y-2.4985
X7.6036Y-6.0801
X7.6037Y-5.3632
X7.6042Y-1.7808
X7.6043Y-1.0639
X7.6048Y-4.6455
X7.6049Y-3.9285
X7.655Y-3.084
X7.6551Y-2.367
X7.6556Y-5.9486
X7.6557Y-5.2317
X7.6562Y-1.6493
X7.6563Y-0.9324
X7.6567Y-4.514
X7.6569Y-3.797
X7.8278Y-3.0107
X7.828Y-2.2938
X7.8284Y-5.8754
X7.8285Y-5.1585
X7.829Y-1.5761
X7.8291Y-0.8592
X7.8296Y-4.4407
X7.8297Y-3.7238
X7.8782Y-3.0926
X7.8783Y-2.3757
X7.8788Y-5.9573
X7.8789Y-5.2404
X7.8794Y-1.658
X7.8795Y-0.941
X7.88Y-4.5226
X7.8801Y-3.8057
X7.9928Y-3.3103
X7.9929Y-2.5934
X7.9934Y-6.175
X7.9935Y-5.4581
X7.9939Y-1.8757
X7.9941Y-1.1588
X7.9945Y-4.7404
X7.9947Y-4.0234
T2
X2.6535Y-3.1754
X2.6535Y-3.2148
X2.6535Y-3.2541
X2.6535Y-3.2935
X2.6537Y-2.4585
X2.6537Y-2.4978
X2.6537Y-2.5372
X2.6537Y-2.5766
X2.6541Y-6.0401
X2.6541Y-6.0794
X2.6541Y-6.1188
X2.6541Y-6.1582
X2.6543Y-5.3231
X2.6543Y-5.3625
X2.6543Y-5.4019
X2.6543Y-5.4412
X2.6547Y-1.7407
X2.6547Y-1.7801
X2.6547Y-1.8195
X2.6547Y-1.8589
X2.6549Y-1.0238
X2.6549Y-1.0632
X2.6549Y-1.1026
X2.6549Y-1.1419
X2.6553Y-4.6054
X2.6553Y-4.6448
X2.6553Y-4.6842
X2.6553Y-4.7235
X2.6555Y-3.8885
X2.6555Y-3.9279
X2.6555Y-3.9672
X2.6555Y-4.0066
X3.0028Y-3.1541
X3.0028Y-3.1935
X3.0028Y-3.2329
X3.0028Y-3.2722
X3.0029Y-2.4372
X3.0029Y-2.4766
X3.0029Y-2.5159
X3.0029Y-2.5553
X3.0033Y-6.0188
X3.0033Y-6.0582
X3.0033Y-6.0975
X3.0033Y-6.1369
X3.0035Y-5.3019
X3.0035Y-5.3412
X3.0035Y-5.3806
X3.0035Y-5.42
X3.0039Y-1.7195
X3.0039Y-1.7589
X3.0039Y-1.7982
X3.0039Y-1.8376
X3.0041Y-1.0026
X3.0041Y-1.0419
X3.0041Y-1.0813
X3.0041Y-1.1207
X3.0045Y-4.5842
X3.0045Y-4.6235
X3.0045Y-4.6629
X3.0045Y-4.7023
X3.0047Y-3.8672
X3.0047Y-3.9066
X3.0047Y-3.946
X3.0047Y-3.9853
X4.4608Y-3.1791
X4.4608Y-3.2185
X4.4608Y-3.2579
X4.4608Y-3.2972
X4.461Y-2.4622
X4.461Y-2.5016
X4.461Y-2.5409
X4.461Y-2.5803
X4.4614Y-6.0438
X4.4614Y-6.0832
X4.4614Y-6.1225
X4.4614Y-6.1619
X4.4616Y-5.3269
X4.4616Y-5.3662
X4.4616Y-5.4056
X4.4616Y-5.445
X4.462Y-1.7445
X4.462Y-1.7839
X4.462Y-1.8232
X4.462Y-1.8626
X4.4622Y-1.0276
X4.4622Y-1.0669
X4.4622Y-1.1063
X4.4622Y-1.1457
X4.4626Y-4.6092
X4.4626Y-4.6485
X4.4626Y-4.6879
X4.4626Y-4.7273
X4.4627Y-3.8922
X4.4627Y-3.9316
X4.4627Y-3.971
X4.4627Y-4.0103
X4.81Y-3.1579
X4.81Y-3.1972
X4.81Y-3.2366
X4.81Y-3.276
X4.8102Y-2.4409
X4.8102Y-2.4803
X4.8102Y-2.5197
X4.8102Y-2.5591
X4.8106Y-6.0225
X4.8106Y-6.0619
X4.8106Y-6.1013
X4.8106Y-6.1406
X4.8108Y-5.3056
X4.8108Y-5.345
X4.8108Y-5.3844
X4.8108Y-5.4237
X4.8112Y-1.7232
X4.8112Y-1.7626
X4.8112Y-1.802
X4.8112Y-1.8413
X4.8114Y-1.0063
X4.8114Y-1.0457
X4.8114Y-1.085
X4.8114Y-1.1244
X4.8118Y-4.5879
X4.8118Y-4.6273
X4.8118Y-4.6666
X4.8118Y-4.706
X4.812Y-3.871
X4.812Y-3.9103
X4.812Y-3.9497
X4.812Y-3.9891
X6.2711Y-3.1814
X6.2711Y-3.2208
X6.2711Y-3.2601
X6.2711Y-3.2995
X6.2713Y-2.4645
X6.2713Y-2.5038
X6.2713Y-2.5432
X6.2713Y-2.5826
X6.2717Y-6.0461
X6.2717Y-6.0854
X6.2717Y-6.1248
X6.2717Y-6.1642
X6.2719Y-5.3291
X6.2719Y-5.3685
X6.2719Y-5.4079
X6.2719Y-5.4472
X6.2723Y-1.7468
X6.2723Y-1.7861
X6.2723Y-1.8255
X6.2723Y-1.8649
X6.2724Y-1.0298
X6.2724Y-1.0692
X6.2724Y-1.1086
X6.2724Y-1.1479
X6.2729Y-4.6114
X6.2729Y-4.6508
X6.2729Y-4.6902
X6.2729Y-4.7295
X6.273Y-3.8945
X6.273Y-3.9339
X6.273Y-3.9732
X6.273Y-4.0126
X6.6203Y-3.1601
X6.6203Y-3.1995
X6.6203Y-3.2389
X6.6203Y-3.2782
X6.6205Y-2.4432
X6.6205Y-2.4826
X6.6205Y-2.5219
X6.6205Y-2.5613
X6.6209Y-6.0248
X6.6209Y-6.0642
X6.6209Y-6.1035
X6.6209Y-6.1429
X6.6211Y-5.3079
X6.6211Y-5.3472
X6.6211Y-5.3866
X6.6211Y-5.426
X6.6215Y-1.7255
X6.6215Y-1.7649
X6.6215Y-1.8042
X6.6215Y-1.8436
X6.6217Y-1.0086
X6.6217Y-1.0479
X6.6217Y-1.0873
X6.6217Y-1.1267
X6.6221Y-4.5902
X6.6221Y-4.6295
X6.6221Y-4.6689
X6.6221Y-4.7083
X6.6222Y-3.8732
X6.6222Y-3.9126
X6.6222Y-3.952
X6.6222Y-3.9913
X8.0784Y-3.1851
X8.0784Y-3.2245
X8.0784Y-3.2639
X8.0784Y-3.3032
X8.0785Y-2.4682
X8.0785Y-2.5076
X8.0785Y-2.5469
X8.0785Y-2.5863
X8.079Y-6.0498
X8.079Y-6.0892
X8.079Y-6.1285
X8.079Y-6.1679
X8.0791Y-5.3329
X8.0791Y-5.3722
X8.0791Y-5.4116
X8.0791Y-5.451
X8.0796Y-1.7505
X8.0796Y-1.7899
X8.0796Y-1.8292
X8.0796Y-1.8686
X8.0797Y-1.0336
X8.0797Y-1.0729
X8.0797Y-1.1123
X8.0797Y-1.1517
X8.0802Y-4.6152
X8.0802Y-4.6545
X8.0802Y-4.6939
X8.0802Y-4.7333
X8.0803Y-3.8982
X8.0803Y-3.9376
X8.0803Y-3.977
X8.0803Y-4.0163
X8.4276Y-3.1639
X8.4276Y-3.2032
X8.4276Y-3.2426
X8.4276Y-3.282
X8.4278Y-2.4469
X8.4278Y-2.4863
X8.4278Y-2.5257
X8.4278Y-2.5651
X8.4282Y-6.0285
X8.4282Y-6.0679
X8.4282Y-6.1073
X8.4282Y-6.1467
X8.4283Y-5.3116
X8.4283Y-5.351
X8.4283Y-5.3904
X8.4283Y-5.4297
X8.4288Y-1.7292
X8.4288Y-1.7686
X8.4288Y-1.808
X8.4288Y-1.8473
X8.4289Y-1.0123
X8.4289Y-1.0517
X8.4289Y-1.091
X8.4289Y-1.1304
X8.4294Y-4.5939
X8.4294Y-4.6333
X8.4294Y-4.6726
X8.4294Y-4.712
X8.4295Y-3.877
X8.4295Y-3.9163
X8.4295Y-3.9557
X8.4295Y-3.9951
M30
