%TF.GenerationSoftware,KiCad,Pcbnew,8.0.3*%
%TF.CreationDate,2024-06-25T15:03:11+01:00*%
%TF.ProjectId,MultiPCB Panel,4d756c74-6950-4434-9220-50616e656c2e,rev?*%
%TF.SameCoordinates,Original*%
%TF.FileFunction,Paste,Top*%
%TF.FilePolarity,Positive*%
%FSLAX46Y46*%
G04 Gerber Fmt 4.6, Leading zero omitted, Abs format (unit mm)*
G04 Created by KiCad (PCBNEW 8.0.3) date 2024-06-25 15:03:11*
%MOMM*%
%LPD*%
G01*
G04 APERTURE LIST*
G04 Aperture macros list*
%AMRoundRect*
0 Rectangle with rounded corners*
0 $1 Rounding radius*
0 $2 $3 $4 $5 $6 $7 $8 $9 X,Y pos of 4 corners*
0 Add a 4 corners polygon primitive as box body*
4,1,4,$2,$3,$4,$5,$6,$7,$8,$9,$2,$3,0*
0 Add four circle primitives for the rounded corners*
1,1,$1+$1,$2,$3*
1,1,$1+$1,$4,$5*
1,1,$1+$1,$6,$7*
1,1,$1+$1,$8,$9*
0 Add four rect primitives between the rounded corners*
20,1,$1+$1,$2,$3,$4,$5,0*
20,1,$1+$1,$4,$5,$6,$7,0*
20,1,$1+$1,$6,$7,$8,$9,0*
20,1,$1+$1,$8,$9,$2,$3,0*%
G04 Aperture macros list end*
%ADD10RoundRect,0.500000X-3.000000X-0.500000X3.000000X-0.500000X3.000000X0.500000X-3.000000X0.500000X0*%
%ADD11RoundRect,0.375000X-2.625000X-0.375000X2.625000X-0.375000X2.625000X0.375000X-2.625000X0.375000X0*%
%ADD12RoundRect,0.250000X0.350000X0.450000X-0.350000X0.450000X-0.350000X-0.450000X0.350000X-0.450000X0*%
%ADD13RoundRect,0.250000X-0.275000X-0.275000X0.275000X-0.275000X0.275000X0.275000X-0.275000X0.275000X0*%
%ADD14RoundRect,0.062500X-0.362500X-0.062500X0.362500X-0.062500X0.362500X0.062500X-0.362500X0.062500X0*%
%ADD15RoundRect,0.062500X-0.062500X-0.362500X0.062500X-0.362500X0.062500X0.362500X-0.062500X0.362500X0*%
%ADD16RoundRect,0.250000X-0.375000X-1.075000X0.375000X-1.075000X0.375000X1.075000X-0.375000X1.075000X0*%
%ADD17RoundRect,0.250000X0.450000X-0.350000X0.450000X0.350000X-0.450000X0.350000X-0.450000X-0.350000X0*%
%ADD18RoundRect,0.225000X0.225000X0.375000X-0.225000X0.375000X-0.225000X-0.375000X0.225000X-0.375000X0*%
%ADD19RoundRect,0.250000X-0.350000X-0.450000X0.350000X-0.450000X0.350000X0.450000X-0.350000X0.450000X0*%
%ADD20RoundRect,0.250000X-0.650000X0.412500X-0.650000X-0.412500X0.650000X-0.412500X0.650000X0.412500X0*%
%ADD21RoundRect,0.225000X0.375000X-0.225000X0.375000X0.225000X-0.375000X0.225000X-0.375000X-0.225000X0*%
G04 APERTURE END LIST*
D10*
%TO.C,U2*%
X178301250Y-77532500D03*
D11*
X178301250Y-80282500D03*
X178221250Y-82282500D03*
D10*
X178301250Y-85032500D03*
%TD*%
D12*
%TO.C,R3*%
X208036250Y-76262500D03*
X206036250Y-76262500D03*
%TD*%
D13*
%TO.C,U1*%
X209046250Y-81312500D03*
X209046250Y-82612500D03*
X210346250Y-81312500D03*
X210346250Y-82612500D03*
D14*
X207771250Y-80962500D03*
X207771250Y-81462500D03*
X207771250Y-81962500D03*
X207771250Y-82462500D03*
X207771250Y-82962500D03*
D15*
X208696250Y-83887500D03*
X209196250Y-83887500D03*
X209696250Y-83887500D03*
X210196250Y-83887500D03*
X210696250Y-83887500D03*
D14*
X211621250Y-82962500D03*
X211621250Y-82462500D03*
X211621250Y-81962500D03*
X211621250Y-81462500D03*
X211621250Y-80962500D03*
D15*
X210696250Y-80037500D03*
X210196250Y-80037500D03*
X209696250Y-80037500D03*
X209196250Y-80037500D03*
X208696250Y-80037500D03*
%TD*%
D16*
%TO.C,D3*%
X200286250Y-76282500D03*
X203086250Y-76282500D03*
%TD*%
D17*
%TO.C,R2*%
X201126250Y-45662500D03*
X201126250Y-43662500D03*
%TD*%
D18*
%TO.C,D2*%
X197806250Y-80002500D03*
X194506250Y-80002500D03*
%TD*%
D12*
%TO.C,R1*%
X197056250Y-85282500D03*
X195056250Y-85282500D03*
%TD*%
D19*
%TO.C,R4*%
X194536250Y-76932500D03*
X196536250Y-76932500D03*
%TD*%
D18*
%TO.C,D2*%
X197836250Y-43562500D03*
X194536250Y-43562500D03*
%TD*%
D20*
%TO.C,C1*%
X190906250Y-40430000D03*
X190906250Y-43555000D03*
%TD*%
D21*
%TO.C,D1*%
X190786250Y-48980000D03*
X190786250Y-45680000D03*
%TD*%
D12*
%TO.C,R3*%
X208066250Y-39822500D03*
X206066250Y-39822500D03*
%TD*%
D21*
%TO.C,D1*%
X190756250Y-85420000D03*
X190756250Y-82120000D03*
%TD*%
D20*
%TO.C,C1*%
X190876250Y-76870000D03*
X190876250Y-79995000D03*
%TD*%
D17*
%TO.C,R2*%
X201096250Y-82102500D03*
X201096250Y-80102500D03*
%TD*%
D10*
%TO.C,U2*%
X178331250Y-41092500D03*
D11*
X178331250Y-43842500D03*
X178251250Y-45842500D03*
D10*
X178331250Y-48592500D03*
%TD*%
%TO.C,U2*%
X132426250Y-40997500D03*
D11*
X132426250Y-43747500D03*
X132346250Y-45747500D03*
D10*
X132426250Y-48497500D03*
%TD*%
D19*
%TO.C,R4*%
X194566250Y-40492500D03*
X196566250Y-40492500D03*
%TD*%
D16*
%TO.C,D3*%
X200316250Y-39842500D03*
X203116250Y-39842500D03*
%TD*%
%TO.C,D3*%
X154411250Y-39747500D03*
X157211250Y-39747500D03*
%TD*%
D21*
%TO.C,D1*%
X190790000Y-30770000D03*
X190790000Y-27470000D03*
%TD*%
D13*
%TO.C,U1*%
X163171250Y-44777500D03*
X163171250Y-46077500D03*
X164471250Y-44777500D03*
X164471250Y-46077500D03*
D14*
X161896250Y-44427500D03*
X161896250Y-44927500D03*
X161896250Y-45427500D03*
X161896250Y-45927500D03*
X161896250Y-46427500D03*
D15*
X162821250Y-47352500D03*
X163321250Y-47352500D03*
X163821250Y-47352500D03*
X164321250Y-47352500D03*
X164821250Y-47352500D03*
D14*
X165746250Y-46427500D03*
X165746250Y-45927500D03*
X165746250Y-45427500D03*
X165746250Y-44927500D03*
X165746250Y-44427500D03*
D15*
X164821250Y-43502500D03*
X164321250Y-43502500D03*
X163821250Y-43502500D03*
X163321250Y-43502500D03*
X162821250Y-43502500D03*
%TD*%
D12*
%TO.C,R3*%
X162161250Y-39727500D03*
X160161250Y-39727500D03*
%TD*%
D20*
%TO.C,C1*%
X145001250Y-40335000D03*
X145001250Y-43460000D03*
%TD*%
D12*
%TO.C,R1*%
X151181250Y-48747500D03*
X149181250Y-48747500D03*
%TD*%
D19*
%TO.C,R4*%
X148661250Y-40397500D03*
X150661250Y-40397500D03*
%TD*%
D10*
%TO.C,U2*%
X178335000Y-22882500D03*
D11*
X178335000Y-25632500D03*
X178255000Y-27632500D03*
D10*
X178335000Y-30382500D03*
%TD*%
D12*
%TO.C,R3*%
X208070000Y-21612500D03*
X206070000Y-21612500D03*
%TD*%
D16*
%TO.C,D3*%
X200320000Y-21632500D03*
X203120000Y-21632500D03*
%TD*%
D21*
%TO.C,D1*%
X144881250Y-48885000D03*
X144881250Y-45585000D03*
%TD*%
D18*
%TO.C,D2*%
X151931250Y-43467500D03*
X148631250Y-43467500D03*
%TD*%
D12*
%TO.C,R1*%
X197086250Y-48842500D03*
X195086250Y-48842500D03*
%TD*%
D13*
%TO.C,U1*%
X209076250Y-44872500D03*
X209076250Y-46172500D03*
X210376250Y-44872500D03*
X210376250Y-46172500D03*
D14*
X207801250Y-44522500D03*
X207801250Y-45022500D03*
X207801250Y-45522500D03*
X207801250Y-46022500D03*
X207801250Y-46522500D03*
D15*
X208726250Y-47447500D03*
X209226250Y-47447500D03*
X209726250Y-47447500D03*
X210226250Y-47447500D03*
X210726250Y-47447500D03*
D14*
X211651250Y-46522500D03*
X211651250Y-46022500D03*
X211651250Y-45522500D03*
X211651250Y-45022500D03*
X211651250Y-44522500D03*
D15*
X210726250Y-43597500D03*
X210226250Y-43597500D03*
X209726250Y-43597500D03*
X209226250Y-43597500D03*
X208726250Y-43597500D03*
%TD*%
D17*
%TO.C,R2*%
X155221250Y-45567500D03*
X155221250Y-43567500D03*
%TD*%
D19*
%TO.C,R4*%
X148665000Y-22187500D03*
X150665000Y-22187500D03*
%TD*%
D13*
%TO.C,U1*%
X163175000Y-26567500D03*
X163175000Y-27867500D03*
X164475000Y-26567500D03*
X164475000Y-27867500D03*
D14*
X161900000Y-26217500D03*
X161900000Y-26717500D03*
X161900000Y-27217500D03*
X161900000Y-27717500D03*
X161900000Y-28217500D03*
D15*
X162825000Y-29142500D03*
X163325000Y-29142500D03*
X163825000Y-29142500D03*
X164325000Y-29142500D03*
X164825000Y-29142500D03*
D14*
X165750000Y-28217500D03*
X165750000Y-27717500D03*
X165750000Y-27217500D03*
X165750000Y-26717500D03*
X165750000Y-26217500D03*
D15*
X164825000Y-25292500D03*
X164325000Y-25292500D03*
X163825000Y-25292500D03*
X163325000Y-25292500D03*
X162825000Y-25292500D03*
%TD*%
D18*
%TO.C,D2*%
X197840000Y-25352500D03*
X194540000Y-25352500D03*
%TD*%
%TO.C,D2*%
X151935000Y-25257500D03*
X148635000Y-25257500D03*
%TD*%
D20*
%TO.C,C1*%
X145005000Y-22125000D03*
X145005000Y-25250000D03*
%TD*%
D13*
%TO.C,U1*%
X209080000Y-26662500D03*
X209080000Y-27962500D03*
X210380000Y-26662500D03*
X210380000Y-27962500D03*
D14*
X207805000Y-26312500D03*
X207805000Y-26812500D03*
X207805000Y-27312500D03*
X207805000Y-27812500D03*
X207805000Y-28312500D03*
D15*
X208730000Y-29237500D03*
X209230000Y-29237500D03*
X209730000Y-29237500D03*
X210230000Y-29237500D03*
X210730000Y-29237500D03*
D14*
X211655000Y-28312500D03*
X211655000Y-27812500D03*
X211655000Y-27312500D03*
X211655000Y-26812500D03*
X211655000Y-26312500D03*
D15*
X210730000Y-25387500D03*
X210230000Y-25387500D03*
X209730000Y-25387500D03*
X209230000Y-25387500D03*
X208730000Y-25387500D03*
%TD*%
D10*
%TO.C,U2*%
X132396250Y-77437500D03*
D11*
X132396250Y-80187500D03*
X132316250Y-82187500D03*
D10*
X132396250Y-84937500D03*
%TD*%
D17*
%TO.C,R2*%
X201130000Y-27452500D03*
X201130000Y-25452500D03*
%TD*%
D13*
%TO.C,U1*%
X163141250Y-81217500D03*
X163141250Y-82517500D03*
X164441250Y-81217500D03*
X164441250Y-82517500D03*
D14*
X161866250Y-80867500D03*
X161866250Y-81367500D03*
X161866250Y-81867500D03*
X161866250Y-82367500D03*
X161866250Y-82867500D03*
D15*
X162791250Y-83792500D03*
X163291250Y-83792500D03*
X163791250Y-83792500D03*
X164291250Y-83792500D03*
X164791250Y-83792500D03*
D14*
X165716250Y-82867500D03*
X165716250Y-82367500D03*
X165716250Y-81867500D03*
X165716250Y-81367500D03*
X165716250Y-80867500D03*
D15*
X164791250Y-79942500D03*
X164291250Y-79942500D03*
X163791250Y-79942500D03*
X163291250Y-79942500D03*
X162791250Y-79942500D03*
%TD*%
D12*
%TO.C,R1*%
X197090000Y-30632500D03*
X195090000Y-30632500D03*
%TD*%
D10*
%TO.C,U2*%
X132430000Y-22787500D03*
D11*
X132430000Y-25537500D03*
X132350000Y-27537500D03*
D10*
X132430000Y-30287500D03*
%TD*%
D20*
%TO.C,C1*%
X190910000Y-22220000D03*
X190910000Y-25345000D03*
%TD*%
D21*
%TO.C,D1*%
X144885000Y-30675000D03*
X144885000Y-27375000D03*
%TD*%
D12*
%TO.C,R1*%
X151185000Y-30537500D03*
X149185000Y-30537500D03*
%TD*%
D19*
%TO.C,R4*%
X194570000Y-22282500D03*
X196570000Y-22282500D03*
%TD*%
D12*
%TO.C,R3*%
X162131250Y-76167500D03*
X160131250Y-76167500D03*
%TD*%
D16*
%TO.C,D3*%
X154415000Y-21537500D03*
X157215000Y-21537500D03*
%TD*%
D17*
%TO.C,R2*%
X155225000Y-27357500D03*
X155225000Y-25357500D03*
%TD*%
D12*
%TO.C,R3*%
X162165000Y-21517500D03*
X160165000Y-21517500D03*
%TD*%
D21*
%TO.C,D1*%
X144851250Y-85325000D03*
X144851250Y-82025000D03*
%TD*%
D20*
%TO.C,C1*%
X144971250Y-76775000D03*
X144971250Y-79900000D03*
%TD*%
D16*
%TO.C,D3*%
X154385000Y-57977500D03*
X157185000Y-57977500D03*
%TD*%
D19*
%TO.C,R4*%
X148631250Y-76837500D03*
X150631250Y-76837500D03*
%TD*%
D10*
%TO.C,U2*%
X178305000Y-59322500D03*
D11*
X178305000Y-62072500D03*
X178225000Y-64072500D03*
D10*
X178305000Y-66822500D03*
%TD*%
D17*
%TO.C,R2*%
X155191250Y-82007500D03*
X155191250Y-80007500D03*
%TD*%
D18*
%TO.C,D2*%
X197810000Y-61792500D03*
X194510000Y-61792500D03*
%TD*%
D12*
%TO.C,R3*%
X208040000Y-58052500D03*
X206040000Y-58052500D03*
%TD*%
D13*
%TO.C,U1*%
X209050000Y-63102500D03*
X209050000Y-64402500D03*
X210350000Y-63102500D03*
X210350000Y-64402500D03*
D14*
X207775000Y-62752500D03*
X207775000Y-63252500D03*
X207775000Y-63752500D03*
X207775000Y-64252500D03*
X207775000Y-64752500D03*
D15*
X208700000Y-65677500D03*
X209200000Y-65677500D03*
X209700000Y-65677500D03*
X210200000Y-65677500D03*
X210700000Y-65677500D03*
D14*
X211625000Y-64752500D03*
X211625000Y-64252500D03*
X211625000Y-63752500D03*
X211625000Y-63252500D03*
X211625000Y-62752500D03*
D15*
X210700000Y-61827500D03*
X210200000Y-61827500D03*
X209700000Y-61827500D03*
X209200000Y-61827500D03*
X208700000Y-61827500D03*
%TD*%
D16*
%TO.C,D3*%
X154381250Y-76187500D03*
X157181250Y-76187500D03*
%TD*%
D12*
%TO.C,R1*%
X151151250Y-85187500D03*
X149151250Y-85187500D03*
%TD*%
D20*
%TO.C,C1*%
X190880000Y-58660000D03*
X190880000Y-61785000D03*
%TD*%
D18*
%TO.C,D2*%
X151905000Y-61697500D03*
X148605000Y-61697500D03*
%TD*%
D12*
%TO.C,R3*%
X162135000Y-57957500D03*
X160135000Y-57957500D03*
%TD*%
D20*
%TO.C,C1*%
X144975000Y-58565000D03*
X144975000Y-61690000D03*
%TD*%
D18*
%TO.C,D2*%
X151901250Y-79907500D03*
X148601250Y-79907500D03*
%TD*%
D21*
%TO.C,D1*%
X190760000Y-67210000D03*
X190760000Y-63910000D03*
%TD*%
D13*
%TO.C,U1*%
X163145000Y-63007500D03*
X163145000Y-64307500D03*
X164445000Y-63007500D03*
X164445000Y-64307500D03*
D14*
X161870000Y-62657500D03*
X161870000Y-63157500D03*
X161870000Y-63657500D03*
X161870000Y-64157500D03*
X161870000Y-64657500D03*
D15*
X162795000Y-65582500D03*
X163295000Y-65582500D03*
X163795000Y-65582500D03*
X164295000Y-65582500D03*
X164795000Y-65582500D03*
D14*
X165720000Y-64657500D03*
X165720000Y-64157500D03*
X165720000Y-63657500D03*
X165720000Y-63157500D03*
X165720000Y-62657500D03*
D15*
X164795000Y-61732500D03*
X164295000Y-61732500D03*
X163795000Y-61732500D03*
X163295000Y-61732500D03*
X162795000Y-61732500D03*
%TD*%
D16*
%TO.C,D3*%
X200290000Y-58072500D03*
X203090000Y-58072500D03*
%TD*%
D21*
%TO.C,D1*%
X144855000Y-67115000D03*
X144855000Y-63815000D03*
%TD*%
D10*
%TO.C,U2*%
X132400000Y-59227500D03*
D11*
X132400000Y-61977500D03*
X132320000Y-63977500D03*
D10*
X132400000Y-66727500D03*
%TD*%
D12*
%TO.C,R1*%
X197060000Y-67072500D03*
X195060000Y-67072500D03*
%TD*%
D19*
%TO.C,R4*%
X194540000Y-58722500D03*
X196540000Y-58722500D03*
%TD*%
D12*
%TO.C,R1*%
X151155000Y-66977500D03*
X149155000Y-66977500D03*
%TD*%
D17*
%TO.C,R2*%
X155195000Y-63797500D03*
X155195000Y-61797500D03*
%TD*%
%TO.C,R2*%
X201100000Y-63892500D03*
X201100000Y-61892500D03*
%TD*%
D19*
%TO.C,R4*%
X148635000Y-58627500D03*
X150635000Y-58627500D03*
%TD*%
D10*
%TO.C,U2*%
X178316250Y-150295000D03*
D11*
X178316250Y-153045000D03*
X178236250Y-155045000D03*
D10*
X178316250Y-157795000D03*
%TD*%
D13*
%TO.C,U1*%
X209061250Y-154075000D03*
X209061250Y-155375000D03*
X210361250Y-154075000D03*
X210361250Y-155375000D03*
D14*
X207786250Y-153725000D03*
X207786250Y-154225000D03*
X207786250Y-154725000D03*
X207786250Y-155225000D03*
X207786250Y-155725000D03*
D15*
X208711250Y-156650000D03*
X209211250Y-156650000D03*
X209711250Y-156650000D03*
X210211250Y-156650000D03*
X210711250Y-156650000D03*
D14*
X211636250Y-155725000D03*
X211636250Y-155225000D03*
X211636250Y-154725000D03*
X211636250Y-154225000D03*
X211636250Y-153725000D03*
D15*
X210711250Y-152800000D03*
X210211250Y-152800000D03*
X209711250Y-152800000D03*
X209211250Y-152800000D03*
X208711250Y-152800000D03*
%TD*%
D12*
%TO.C,R3*%
X208051250Y-149025000D03*
X206051250Y-149025000D03*
%TD*%
D18*
%TO.C,D2*%
X197821250Y-152765000D03*
X194521250Y-152765000D03*
%TD*%
D21*
%TO.C,D1*%
X190771250Y-158182500D03*
X190771250Y-154882500D03*
%TD*%
D20*
%TO.C,C1*%
X190891250Y-149632500D03*
X190891250Y-152757500D03*
%TD*%
D19*
%TO.C,R4*%
X194551250Y-149695000D03*
X196551250Y-149695000D03*
%TD*%
D16*
%TO.C,D3*%
X200301250Y-149045000D03*
X203101250Y-149045000D03*
%TD*%
D17*
%TO.C,R2*%
X201111250Y-154865000D03*
X201111250Y-152865000D03*
%TD*%
D12*
%TO.C,R1*%
X197071250Y-158045000D03*
X195071250Y-158045000D03*
%TD*%
D10*
%TO.C,U2*%
X178346250Y-113855000D03*
D11*
X178346250Y-116605000D03*
X178266250Y-118605000D03*
D10*
X178346250Y-121355000D03*
%TD*%
D20*
%TO.C,C1*%
X190921250Y-113192500D03*
X190921250Y-116317500D03*
%TD*%
D21*
%TO.C,D1*%
X190801250Y-121742500D03*
X190801250Y-118442500D03*
%TD*%
D17*
%TO.C,R2*%
X201141250Y-118425000D03*
X201141250Y-116425000D03*
%TD*%
D18*
%TO.C,D2*%
X197851250Y-116325000D03*
X194551250Y-116325000D03*
%TD*%
D10*
%TO.C,U2*%
X132441250Y-113760000D03*
D11*
X132441250Y-116510000D03*
X132361250Y-118510000D03*
D10*
X132441250Y-121260000D03*
%TD*%
D12*
%TO.C,R3*%
X208081250Y-112585000D03*
X206081250Y-112585000D03*
%TD*%
D19*
%TO.C,R4*%
X194581250Y-113255000D03*
X196581250Y-113255000D03*
%TD*%
D12*
%TO.C,R1*%
X197101250Y-121605000D03*
X195101250Y-121605000D03*
%TD*%
D16*
%TO.C,D3*%
X200331250Y-112605000D03*
X203131250Y-112605000D03*
%TD*%
%TO.C,D3*%
X154426250Y-112510000D03*
X157226250Y-112510000D03*
%TD*%
D17*
%TO.C,R2*%
X155236250Y-118330000D03*
X155236250Y-116330000D03*
%TD*%
D13*
%TO.C,U1*%
X209091250Y-117635000D03*
X209091250Y-118935000D03*
X210391250Y-117635000D03*
X210391250Y-118935000D03*
D14*
X207816250Y-117285000D03*
X207816250Y-117785000D03*
X207816250Y-118285000D03*
X207816250Y-118785000D03*
X207816250Y-119285000D03*
D15*
X208741250Y-120210000D03*
X209241250Y-120210000D03*
X209741250Y-120210000D03*
X210241250Y-120210000D03*
X210741250Y-120210000D03*
D14*
X211666250Y-119285000D03*
X211666250Y-118785000D03*
X211666250Y-118285000D03*
X211666250Y-117785000D03*
X211666250Y-117285000D03*
D15*
X210741250Y-116360000D03*
X210241250Y-116360000D03*
X209741250Y-116360000D03*
X209241250Y-116360000D03*
X208741250Y-116360000D03*
%TD*%
D12*
%TO.C,R3*%
X162176250Y-112490000D03*
X160176250Y-112490000D03*
%TD*%
D20*
%TO.C,C1*%
X145016250Y-113097500D03*
X145016250Y-116222500D03*
%TD*%
D19*
%TO.C,R4*%
X148676250Y-113160000D03*
X150676250Y-113160000D03*
%TD*%
D12*
%TO.C,R1*%
X151196250Y-121510000D03*
X149196250Y-121510000D03*
%TD*%
D10*
%TO.C,U2*%
X178350000Y-95645000D03*
D11*
X178350000Y-98395000D03*
X178270000Y-100395000D03*
D10*
X178350000Y-103145000D03*
%TD*%
D12*
%TO.C,R3*%
X208085000Y-94375000D03*
X206085000Y-94375000D03*
%TD*%
D21*
%TO.C,D1*%
X190805000Y-103532500D03*
X190805000Y-100232500D03*
%TD*%
D16*
%TO.C,D3*%
X200335000Y-94395000D03*
X203135000Y-94395000D03*
%TD*%
D19*
%TO.C,R4*%
X148680000Y-94950000D03*
X150680000Y-94950000D03*
%TD*%
D21*
%TO.C,D1*%
X144896250Y-121647500D03*
X144896250Y-118347500D03*
%TD*%
D13*
%TO.C,U1*%
X163186250Y-117540000D03*
X163186250Y-118840000D03*
X164486250Y-117540000D03*
X164486250Y-118840000D03*
D14*
X161911250Y-117190000D03*
X161911250Y-117690000D03*
X161911250Y-118190000D03*
X161911250Y-118690000D03*
X161911250Y-119190000D03*
D15*
X162836250Y-120115000D03*
X163336250Y-120115000D03*
X163836250Y-120115000D03*
X164336250Y-120115000D03*
X164836250Y-120115000D03*
D14*
X165761250Y-119190000D03*
X165761250Y-118690000D03*
X165761250Y-118190000D03*
X165761250Y-117690000D03*
X165761250Y-117190000D03*
D15*
X164836250Y-116265000D03*
X164336250Y-116265000D03*
X163836250Y-116265000D03*
X163336250Y-116265000D03*
X162836250Y-116265000D03*
%TD*%
D18*
%TO.C,D2*%
X151946250Y-116230000D03*
X148646250Y-116230000D03*
%TD*%
D13*
%TO.C,U1*%
X163190000Y-99330000D03*
X163190000Y-100630000D03*
X164490000Y-99330000D03*
X164490000Y-100630000D03*
D14*
X161915000Y-98980000D03*
X161915000Y-99480000D03*
X161915000Y-99980000D03*
X161915000Y-100480000D03*
X161915000Y-100980000D03*
D15*
X162840000Y-101905000D03*
X163340000Y-101905000D03*
X163840000Y-101905000D03*
X164340000Y-101905000D03*
X164840000Y-101905000D03*
D14*
X165765000Y-100980000D03*
X165765000Y-100480000D03*
X165765000Y-99980000D03*
X165765000Y-99480000D03*
X165765000Y-98980000D03*
D15*
X164840000Y-98055000D03*
X164340000Y-98055000D03*
X163840000Y-98055000D03*
X163340000Y-98055000D03*
X162840000Y-98055000D03*
%TD*%
D18*
%TO.C,D2*%
X197855000Y-98115000D03*
X194555000Y-98115000D03*
%TD*%
%TO.C,D2*%
X151950000Y-98020000D03*
X148650000Y-98020000D03*
%TD*%
D12*
%TO.C,R3*%
X162180000Y-94280000D03*
X160180000Y-94280000D03*
%TD*%
D20*
%TO.C,C1*%
X145020000Y-94887500D03*
X145020000Y-98012500D03*
%TD*%
D12*
%TO.C,R1*%
X197105000Y-103395000D03*
X195105000Y-103395000D03*
%TD*%
D21*
%TO.C,D1*%
X144900000Y-103437500D03*
X144900000Y-100137500D03*
%TD*%
D20*
%TO.C,C1*%
X190925000Y-94982500D03*
X190925000Y-98107500D03*
%TD*%
D16*
%TO.C,D3*%
X154430000Y-94300000D03*
X157230000Y-94300000D03*
%TD*%
D13*
%TO.C,U1*%
X209095000Y-99425000D03*
X209095000Y-100725000D03*
X210395000Y-99425000D03*
X210395000Y-100725000D03*
D14*
X207820000Y-99075000D03*
X207820000Y-99575000D03*
X207820000Y-100075000D03*
X207820000Y-100575000D03*
X207820000Y-101075000D03*
D15*
X208745000Y-102000000D03*
X209245000Y-102000000D03*
X209745000Y-102000000D03*
X210245000Y-102000000D03*
X210745000Y-102000000D03*
D14*
X211670000Y-101075000D03*
X211670000Y-100575000D03*
X211670000Y-100075000D03*
X211670000Y-99575000D03*
X211670000Y-99075000D03*
D15*
X210745000Y-98150000D03*
X210245000Y-98150000D03*
X209745000Y-98150000D03*
X209245000Y-98150000D03*
X208745000Y-98150000D03*
%TD*%
D10*
%TO.C,U2*%
X132445000Y-95550000D03*
D11*
X132445000Y-98300000D03*
X132365000Y-100300000D03*
D10*
X132445000Y-103050000D03*
%TD*%
D12*
%TO.C,R1*%
X151200000Y-103300000D03*
X149200000Y-103300000D03*
%TD*%
D17*
%TO.C,R2*%
X155240000Y-100120000D03*
X155240000Y-98120000D03*
%TD*%
D19*
%TO.C,R4*%
X194585000Y-95045000D03*
X196585000Y-95045000D03*
%TD*%
D17*
%TO.C,R2*%
X201145000Y-100215000D03*
X201145000Y-98215000D03*
%TD*%
D10*
%TO.C,U2*%
X132411250Y-150200000D03*
D11*
X132411250Y-152950000D03*
X132331250Y-154950000D03*
D10*
X132411250Y-157700000D03*
%TD*%
D13*
%TO.C,U1*%
X163156250Y-153980000D03*
X163156250Y-155280000D03*
X164456250Y-153980000D03*
X164456250Y-155280000D03*
D14*
X161881250Y-153630000D03*
X161881250Y-154130000D03*
X161881250Y-154630000D03*
X161881250Y-155130000D03*
X161881250Y-155630000D03*
D15*
X162806250Y-156555000D03*
X163306250Y-156555000D03*
X163806250Y-156555000D03*
X164306250Y-156555000D03*
X164806250Y-156555000D03*
D14*
X165731250Y-155630000D03*
X165731250Y-155130000D03*
X165731250Y-154630000D03*
X165731250Y-154130000D03*
X165731250Y-153630000D03*
D15*
X164806250Y-152705000D03*
X164306250Y-152705000D03*
X163806250Y-152705000D03*
X163306250Y-152705000D03*
X162806250Y-152705000D03*
%TD*%
D12*
%TO.C,R3*%
X162146250Y-148930000D03*
X160146250Y-148930000D03*
%TD*%
D18*
%TO.C,D2*%
X151916250Y-152670000D03*
X148616250Y-152670000D03*
%TD*%
D21*
%TO.C,D1*%
X144866250Y-158087500D03*
X144866250Y-154787500D03*
%TD*%
D20*
%TO.C,C1*%
X144986250Y-149537500D03*
X144986250Y-152662500D03*
%TD*%
D19*
%TO.C,R4*%
X148646250Y-149600000D03*
X150646250Y-149600000D03*
%TD*%
D12*
%TO.C,R1*%
X151166250Y-157950000D03*
X149166250Y-157950000D03*
%TD*%
D16*
%TO.C,D3*%
X154396250Y-148950000D03*
X157196250Y-148950000D03*
%TD*%
D17*
%TO.C,R2*%
X155206250Y-154770000D03*
X155206250Y-152770000D03*
%TD*%
D10*
%TO.C,U2*%
X178320000Y-132085000D03*
D11*
X178320000Y-134835000D03*
X178240000Y-136835000D03*
D10*
X178320000Y-139585000D03*
%TD*%
D12*
%TO.C,R3*%
X208055000Y-130815000D03*
X206055000Y-130815000D03*
%TD*%
D13*
%TO.C,U1*%
X209065000Y-135865000D03*
X209065000Y-137165000D03*
X210365000Y-135865000D03*
X210365000Y-137165000D03*
D14*
X207790000Y-135515000D03*
X207790000Y-136015000D03*
X207790000Y-136515000D03*
X207790000Y-137015000D03*
X207790000Y-137515000D03*
D15*
X208715000Y-138440000D03*
X209215000Y-138440000D03*
X209715000Y-138440000D03*
X210215000Y-138440000D03*
X210715000Y-138440000D03*
D14*
X211640000Y-137515000D03*
X211640000Y-137015000D03*
X211640000Y-136515000D03*
X211640000Y-136015000D03*
X211640000Y-135515000D03*
D15*
X210715000Y-134590000D03*
X210215000Y-134590000D03*
X209715000Y-134590000D03*
X209215000Y-134590000D03*
X208715000Y-134590000D03*
%TD*%
D21*
%TO.C,D1*%
X190775000Y-139972500D03*
X190775000Y-136672500D03*
%TD*%
D13*
%TO.C,U1*%
X163160000Y-135770000D03*
X163160000Y-137070000D03*
X164460000Y-135770000D03*
X164460000Y-137070000D03*
D14*
X161885000Y-135420000D03*
X161885000Y-135920000D03*
X161885000Y-136420000D03*
X161885000Y-136920000D03*
X161885000Y-137420000D03*
D15*
X162810000Y-138345000D03*
X163310000Y-138345000D03*
X163810000Y-138345000D03*
X164310000Y-138345000D03*
X164810000Y-138345000D03*
D14*
X165735000Y-137420000D03*
X165735000Y-136920000D03*
X165735000Y-136420000D03*
X165735000Y-135920000D03*
X165735000Y-135420000D03*
D15*
X164810000Y-134495000D03*
X164310000Y-134495000D03*
X163810000Y-134495000D03*
X163310000Y-134495000D03*
X162810000Y-134495000D03*
%TD*%
D16*
%TO.C,D3*%
X154400000Y-130740000D03*
X157200000Y-130740000D03*
%TD*%
D20*
%TO.C,C1*%
X190895000Y-131422500D03*
X190895000Y-134547500D03*
%TD*%
D18*
%TO.C,D2*%
X197825000Y-134555000D03*
X194525000Y-134555000D03*
%TD*%
D16*
%TO.C,D3*%
X200305000Y-130835000D03*
X203105000Y-130835000D03*
%TD*%
D18*
%TO.C,D2*%
X151920000Y-134460000D03*
X148620000Y-134460000D03*
%TD*%
D20*
%TO.C,C1*%
X144990000Y-131327500D03*
X144990000Y-134452500D03*
%TD*%
D12*
%TO.C,R3*%
X162150000Y-130720000D03*
X160150000Y-130720000D03*
%TD*%
D19*
%TO.C,R4*%
X148650000Y-131390000D03*
X150650000Y-131390000D03*
%TD*%
D12*
%TO.C,R1*%
X197075000Y-139835000D03*
X195075000Y-139835000D03*
%TD*%
D10*
%TO.C,U2*%
X132415000Y-131990000D03*
D11*
X132415000Y-134740000D03*
X132335000Y-136740000D03*
D10*
X132415000Y-139490000D03*
%TD*%
D21*
%TO.C,D1*%
X144870000Y-139877500D03*
X144870000Y-136577500D03*
%TD*%
D17*
%TO.C,R2*%
X201115000Y-136655000D03*
X201115000Y-134655000D03*
%TD*%
D12*
%TO.C,R1*%
X151170000Y-139740000D03*
X149170000Y-139740000D03*
%TD*%
D19*
%TO.C,R4*%
X194555000Y-131485000D03*
X196555000Y-131485000D03*
%TD*%
D17*
%TO.C,R2*%
X155210000Y-136560000D03*
X155210000Y-134560000D03*
%TD*%
D10*
%TO.C,U2*%
X86415000Y-77380000D03*
D11*
X86415000Y-80130000D03*
X86335000Y-82130000D03*
D10*
X86415000Y-84880000D03*
%TD*%
D13*
%TO.C,U1*%
X117160000Y-81160000D03*
X117160000Y-82460000D03*
X118460000Y-81160000D03*
X118460000Y-82460000D03*
D14*
X115885000Y-80810000D03*
X115885000Y-81310000D03*
X115885000Y-81810000D03*
X115885000Y-82310000D03*
X115885000Y-82810000D03*
D15*
X116810000Y-83735000D03*
X117310000Y-83735000D03*
X117810000Y-83735000D03*
X118310000Y-83735000D03*
X118810000Y-83735000D03*
D14*
X119735000Y-82810000D03*
X119735000Y-82310000D03*
X119735000Y-81810000D03*
X119735000Y-81310000D03*
X119735000Y-80810000D03*
D15*
X118810000Y-79885000D03*
X118310000Y-79885000D03*
X117810000Y-79885000D03*
X117310000Y-79885000D03*
X116810000Y-79885000D03*
%TD*%
D12*
%TO.C,R3*%
X116150000Y-76110000D03*
X114150000Y-76110000D03*
%TD*%
D18*
%TO.C,D2*%
X105920000Y-79850000D03*
X102620000Y-79850000D03*
%TD*%
D21*
%TO.C,D1*%
X98870000Y-85267500D03*
X98870000Y-81967500D03*
%TD*%
D20*
%TO.C,C1*%
X98990000Y-76717500D03*
X98990000Y-79842500D03*
%TD*%
D19*
%TO.C,R4*%
X102650000Y-76780000D03*
X104650000Y-76780000D03*
%TD*%
D16*
%TO.C,D3*%
X108400000Y-76130000D03*
X111200000Y-76130000D03*
%TD*%
D17*
%TO.C,R2*%
X109210000Y-81950000D03*
X109210000Y-79950000D03*
%TD*%
D12*
%TO.C,R1*%
X105170000Y-85130000D03*
X103170000Y-85130000D03*
%TD*%
D10*
%TO.C,U2*%
X86445000Y-40940000D03*
D11*
X86445000Y-43690000D03*
X86365000Y-45690000D03*
D10*
X86445000Y-48440000D03*
%TD*%
D20*
%TO.C,C1*%
X99020000Y-40277500D03*
X99020000Y-43402500D03*
%TD*%
D21*
%TO.C,D1*%
X98900000Y-48827500D03*
X98900000Y-45527500D03*
%TD*%
D17*
%TO.C,R2*%
X109240000Y-45510000D03*
X109240000Y-43510000D03*
%TD*%
D18*
%TO.C,D2*%
X105950000Y-43410000D03*
X102650000Y-43410000D03*
%TD*%
D10*
%TO.C,U2*%
X40540000Y-40845000D03*
D11*
X40540000Y-43595000D03*
X40460000Y-45595000D03*
D10*
X40540000Y-48345000D03*
%TD*%
D12*
%TO.C,R3*%
X116180000Y-39670000D03*
X114180000Y-39670000D03*
%TD*%
D19*
%TO.C,R4*%
X102680000Y-40340000D03*
X104680000Y-40340000D03*
%TD*%
D12*
%TO.C,R1*%
X105200000Y-48690000D03*
X103200000Y-48690000D03*
%TD*%
D16*
%TO.C,D3*%
X108430000Y-39690000D03*
X111230000Y-39690000D03*
%TD*%
%TO.C,D3*%
X62525000Y-39595000D03*
X65325000Y-39595000D03*
%TD*%
D17*
%TO.C,R2*%
X63335000Y-45415000D03*
X63335000Y-43415000D03*
%TD*%
D13*
%TO.C,U1*%
X117190000Y-44720000D03*
X117190000Y-46020000D03*
X118490000Y-44720000D03*
X118490000Y-46020000D03*
D14*
X115915000Y-44370000D03*
X115915000Y-44870000D03*
X115915000Y-45370000D03*
X115915000Y-45870000D03*
X115915000Y-46370000D03*
D15*
X116840000Y-47295000D03*
X117340000Y-47295000D03*
X117840000Y-47295000D03*
X118340000Y-47295000D03*
X118840000Y-47295000D03*
D14*
X119765000Y-46370000D03*
X119765000Y-45870000D03*
X119765000Y-45370000D03*
X119765000Y-44870000D03*
X119765000Y-44370000D03*
D15*
X118840000Y-43445000D03*
X118340000Y-43445000D03*
X117840000Y-43445000D03*
X117340000Y-43445000D03*
X116840000Y-43445000D03*
%TD*%
D12*
%TO.C,R3*%
X70275000Y-39575000D03*
X68275000Y-39575000D03*
%TD*%
D20*
%TO.C,C1*%
X53115000Y-40182500D03*
X53115000Y-43307500D03*
%TD*%
D19*
%TO.C,R4*%
X56775000Y-40245000D03*
X58775000Y-40245000D03*
%TD*%
D12*
%TO.C,R1*%
X59295000Y-48595000D03*
X57295000Y-48595000D03*
%TD*%
D10*
%TO.C,U2*%
X86448750Y-22730000D03*
D11*
X86448750Y-25480000D03*
X86368750Y-27480000D03*
D10*
X86448750Y-30230000D03*
%TD*%
D12*
%TO.C,R3*%
X116183750Y-21460000D03*
X114183750Y-21460000D03*
%TD*%
D21*
%TO.C,D1*%
X98903750Y-30617500D03*
X98903750Y-27317500D03*
%TD*%
D16*
%TO.C,D3*%
X108433750Y-21480000D03*
X111233750Y-21480000D03*
%TD*%
D19*
%TO.C,R4*%
X56778750Y-22035000D03*
X58778750Y-22035000D03*
%TD*%
D21*
%TO.C,D1*%
X52995000Y-48732500D03*
X52995000Y-45432500D03*
%TD*%
D13*
%TO.C,U1*%
X71285000Y-44625000D03*
X71285000Y-45925000D03*
X72585000Y-44625000D03*
X72585000Y-45925000D03*
D14*
X70010000Y-44275000D03*
X70010000Y-44775000D03*
X70010000Y-45275000D03*
X70010000Y-45775000D03*
X70010000Y-46275000D03*
D15*
X70935000Y-47200000D03*
X71435000Y-47200000D03*
X71935000Y-47200000D03*
X72435000Y-47200000D03*
X72935000Y-47200000D03*
D14*
X73860000Y-46275000D03*
X73860000Y-45775000D03*
X73860000Y-45275000D03*
X73860000Y-44775000D03*
X73860000Y-44275000D03*
D15*
X72935000Y-43350000D03*
X72435000Y-43350000D03*
X71935000Y-43350000D03*
X71435000Y-43350000D03*
X70935000Y-43350000D03*
%TD*%
D18*
%TO.C,D2*%
X60045000Y-43315000D03*
X56745000Y-43315000D03*
%TD*%
D13*
%TO.C,U1*%
X71288750Y-26415000D03*
X71288750Y-27715000D03*
X72588750Y-26415000D03*
X72588750Y-27715000D03*
D14*
X70013750Y-26065000D03*
X70013750Y-26565000D03*
X70013750Y-27065000D03*
X70013750Y-27565000D03*
X70013750Y-28065000D03*
D15*
X70938750Y-28990000D03*
X71438750Y-28990000D03*
X71938750Y-28990000D03*
X72438750Y-28990000D03*
X72938750Y-28990000D03*
D14*
X73863750Y-28065000D03*
X73863750Y-27565000D03*
X73863750Y-27065000D03*
X73863750Y-26565000D03*
X73863750Y-26065000D03*
D15*
X72938750Y-25140000D03*
X72438750Y-25140000D03*
X71938750Y-25140000D03*
X71438750Y-25140000D03*
X70938750Y-25140000D03*
%TD*%
D18*
%TO.C,D2*%
X105953750Y-25200000D03*
X102653750Y-25200000D03*
%TD*%
%TO.C,D2*%
X60048750Y-25105000D03*
X56748750Y-25105000D03*
%TD*%
D12*
%TO.C,R3*%
X70278750Y-21365000D03*
X68278750Y-21365000D03*
%TD*%
D20*
%TO.C,C1*%
X53118750Y-21972500D03*
X53118750Y-25097500D03*
%TD*%
D12*
%TO.C,R1*%
X105203750Y-30480000D03*
X103203750Y-30480000D03*
%TD*%
D21*
%TO.C,D1*%
X52998750Y-30522500D03*
X52998750Y-27222500D03*
%TD*%
D20*
%TO.C,C1*%
X99023750Y-22067500D03*
X99023750Y-25192500D03*
%TD*%
D16*
%TO.C,D3*%
X62528750Y-21385000D03*
X65328750Y-21385000D03*
%TD*%
D13*
%TO.C,U1*%
X117193750Y-26510000D03*
X117193750Y-27810000D03*
X118493750Y-26510000D03*
X118493750Y-27810000D03*
D14*
X115918750Y-26160000D03*
X115918750Y-26660000D03*
X115918750Y-27160000D03*
X115918750Y-27660000D03*
X115918750Y-28160000D03*
D15*
X116843750Y-29085000D03*
X117343750Y-29085000D03*
X117843750Y-29085000D03*
X118343750Y-29085000D03*
X118843750Y-29085000D03*
D14*
X119768750Y-28160000D03*
X119768750Y-27660000D03*
X119768750Y-27160000D03*
X119768750Y-26660000D03*
X119768750Y-26160000D03*
D15*
X118843750Y-25235000D03*
X118343750Y-25235000D03*
X117843750Y-25235000D03*
X117343750Y-25235000D03*
X116843750Y-25235000D03*
%TD*%
D10*
%TO.C,U2*%
X40543750Y-22635000D03*
D11*
X40543750Y-25385000D03*
X40463750Y-27385000D03*
D10*
X40543750Y-30135000D03*
%TD*%
D12*
%TO.C,R1*%
X59298750Y-30385000D03*
X57298750Y-30385000D03*
%TD*%
D17*
%TO.C,R2*%
X63338750Y-27205000D03*
X63338750Y-25205000D03*
%TD*%
D19*
%TO.C,R4*%
X102683750Y-22130000D03*
X104683750Y-22130000D03*
%TD*%
D17*
%TO.C,R2*%
X109243750Y-27300000D03*
X109243750Y-25300000D03*
%TD*%
D10*
%TO.C,U2*%
X40510000Y-77285000D03*
D11*
X40510000Y-80035000D03*
X40430000Y-82035000D03*
D10*
X40510000Y-84785000D03*
%TD*%
D13*
%TO.C,U1*%
X71255000Y-81065000D03*
X71255000Y-82365000D03*
X72555000Y-81065000D03*
X72555000Y-82365000D03*
D14*
X69980000Y-80715000D03*
X69980000Y-81215000D03*
X69980000Y-81715000D03*
X69980000Y-82215000D03*
X69980000Y-82715000D03*
D15*
X70905000Y-83640000D03*
X71405000Y-83640000D03*
X71905000Y-83640000D03*
X72405000Y-83640000D03*
X72905000Y-83640000D03*
D14*
X73830000Y-82715000D03*
X73830000Y-82215000D03*
X73830000Y-81715000D03*
X73830000Y-81215000D03*
X73830000Y-80715000D03*
D15*
X72905000Y-79790000D03*
X72405000Y-79790000D03*
X71905000Y-79790000D03*
X71405000Y-79790000D03*
X70905000Y-79790000D03*
%TD*%
D12*
%TO.C,R3*%
X70245000Y-76015000D03*
X68245000Y-76015000D03*
%TD*%
D18*
%TO.C,D2*%
X60015000Y-79755000D03*
X56715000Y-79755000D03*
%TD*%
D21*
%TO.C,D1*%
X52965000Y-85172500D03*
X52965000Y-81872500D03*
%TD*%
D20*
%TO.C,C1*%
X53085000Y-76622500D03*
X53085000Y-79747500D03*
%TD*%
D19*
%TO.C,R4*%
X56745000Y-76685000D03*
X58745000Y-76685000D03*
%TD*%
D12*
%TO.C,R1*%
X59265000Y-85035000D03*
X57265000Y-85035000D03*
%TD*%
D16*
%TO.C,D3*%
X62495000Y-76035000D03*
X65295000Y-76035000D03*
%TD*%
D17*
%TO.C,R2*%
X63305000Y-81855000D03*
X63305000Y-79855000D03*
%TD*%
D10*
%TO.C,U2*%
X86418750Y-59170000D03*
D11*
X86418750Y-61920000D03*
X86338750Y-63920000D03*
D10*
X86418750Y-66670000D03*
%TD*%
D12*
%TO.C,R3*%
X116153750Y-57900000D03*
X114153750Y-57900000D03*
%TD*%
D13*
%TO.C,U1*%
X117163750Y-62950000D03*
X117163750Y-64250000D03*
X118463750Y-62950000D03*
X118463750Y-64250000D03*
D14*
X115888750Y-62600000D03*
X115888750Y-63100000D03*
X115888750Y-63600000D03*
X115888750Y-64100000D03*
X115888750Y-64600000D03*
D15*
X116813750Y-65525000D03*
X117313750Y-65525000D03*
X117813750Y-65525000D03*
X118313750Y-65525000D03*
X118813750Y-65525000D03*
D14*
X119738750Y-64600000D03*
X119738750Y-64100000D03*
X119738750Y-63600000D03*
X119738750Y-63100000D03*
X119738750Y-62600000D03*
D15*
X118813750Y-61675000D03*
X118313750Y-61675000D03*
X117813750Y-61675000D03*
X117313750Y-61675000D03*
X116813750Y-61675000D03*
%TD*%
D21*
%TO.C,D1*%
X98873750Y-67057500D03*
X98873750Y-63757500D03*
%TD*%
D13*
%TO.C,U1*%
X71258750Y-62855000D03*
X71258750Y-64155000D03*
X72558750Y-62855000D03*
X72558750Y-64155000D03*
D14*
X69983750Y-62505000D03*
X69983750Y-63005000D03*
X69983750Y-63505000D03*
X69983750Y-64005000D03*
X69983750Y-64505000D03*
D15*
X70908750Y-65430000D03*
X71408750Y-65430000D03*
X71908750Y-65430000D03*
X72408750Y-65430000D03*
X72908750Y-65430000D03*
D14*
X73833750Y-64505000D03*
X73833750Y-64005000D03*
X73833750Y-63505000D03*
X73833750Y-63005000D03*
X73833750Y-62505000D03*
D15*
X72908750Y-61580000D03*
X72408750Y-61580000D03*
X71908750Y-61580000D03*
X71408750Y-61580000D03*
X70908750Y-61580000D03*
%TD*%
D16*
%TO.C,D3*%
X62498750Y-57825000D03*
X65298750Y-57825000D03*
%TD*%
D20*
%TO.C,C1*%
X98993750Y-58507500D03*
X98993750Y-61632500D03*
%TD*%
D18*
%TO.C,D2*%
X105923750Y-61640000D03*
X102623750Y-61640000D03*
%TD*%
D16*
%TO.C,D3*%
X108403750Y-57920000D03*
X111203750Y-57920000D03*
%TD*%
D18*
%TO.C,D2*%
X60018750Y-61545000D03*
X56718750Y-61545000D03*
%TD*%
D20*
%TO.C,C1*%
X53088750Y-58412500D03*
X53088750Y-61537500D03*
%TD*%
D12*
%TO.C,R3*%
X70248750Y-57805000D03*
X68248750Y-57805000D03*
%TD*%
D19*
%TO.C,R4*%
X56748750Y-58475000D03*
X58748750Y-58475000D03*
%TD*%
D12*
%TO.C,R1*%
X105173750Y-66920000D03*
X103173750Y-66920000D03*
%TD*%
D10*
%TO.C,U2*%
X40513750Y-59075000D03*
D11*
X40513750Y-61825000D03*
X40433750Y-63825000D03*
D10*
X40513750Y-66575000D03*
%TD*%
D21*
%TO.C,D1*%
X52968750Y-66962500D03*
X52968750Y-63662500D03*
%TD*%
D17*
%TO.C,R2*%
X109213750Y-63740000D03*
X109213750Y-61740000D03*
%TD*%
D12*
%TO.C,R1*%
X59268750Y-66825000D03*
X57268750Y-66825000D03*
%TD*%
D19*
%TO.C,R4*%
X102653750Y-58570000D03*
X104653750Y-58570000D03*
%TD*%
D17*
%TO.C,R2*%
X63308750Y-63645000D03*
X63308750Y-61645000D03*
%TD*%
D10*
%TO.C,U2*%
X86460000Y-113702500D03*
D11*
X86460000Y-116452500D03*
X86380000Y-118452500D03*
D10*
X86460000Y-121202500D03*
%TD*%
D13*
%TO.C,U1*%
X117205000Y-117482500D03*
X117205000Y-118782500D03*
X118505000Y-117482500D03*
X118505000Y-118782500D03*
D14*
X115930000Y-117132500D03*
X115930000Y-117632500D03*
X115930000Y-118132500D03*
X115930000Y-118632500D03*
X115930000Y-119132500D03*
D15*
X116855000Y-120057500D03*
X117355000Y-120057500D03*
X117855000Y-120057500D03*
X118355000Y-120057500D03*
X118855000Y-120057500D03*
D14*
X119780000Y-119132500D03*
X119780000Y-118632500D03*
X119780000Y-118132500D03*
X119780000Y-117632500D03*
X119780000Y-117132500D03*
D15*
X118855000Y-116207500D03*
X118355000Y-116207500D03*
X117855000Y-116207500D03*
X117355000Y-116207500D03*
X116855000Y-116207500D03*
%TD*%
D12*
%TO.C,R3*%
X116195000Y-112432500D03*
X114195000Y-112432500D03*
%TD*%
D18*
%TO.C,D2*%
X105965000Y-116172500D03*
X102665000Y-116172500D03*
%TD*%
D21*
%TO.C,D1*%
X98915000Y-121590000D03*
X98915000Y-118290000D03*
%TD*%
D20*
%TO.C,C1*%
X99035000Y-113040000D03*
X99035000Y-116165000D03*
%TD*%
D19*
%TO.C,R4*%
X102695000Y-113102500D03*
X104695000Y-113102500D03*
%TD*%
D16*
%TO.C,D3*%
X108445000Y-112452500D03*
X111245000Y-112452500D03*
%TD*%
D17*
%TO.C,R2*%
X109255000Y-118272500D03*
X109255000Y-116272500D03*
%TD*%
D12*
%TO.C,R1*%
X105215000Y-121452500D03*
X103215000Y-121452500D03*
%TD*%
D10*
%TO.C,U2*%
X40555000Y-113607500D03*
D11*
X40555000Y-116357500D03*
X40475000Y-118357500D03*
D10*
X40555000Y-121107500D03*
%TD*%
D13*
%TO.C,U1*%
X71300000Y-117387500D03*
X71300000Y-118687500D03*
X72600000Y-117387500D03*
X72600000Y-118687500D03*
D14*
X70025000Y-117037500D03*
X70025000Y-117537500D03*
X70025000Y-118037500D03*
X70025000Y-118537500D03*
X70025000Y-119037500D03*
D15*
X70950000Y-119962500D03*
X71450000Y-119962500D03*
X71950000Y-119962500D03*
X72450000Y-119962500D03*
X72950000Y-119962500D03*
D14*
X73875000Y-119037500D03*
X73875000Y-118537500D03*
X73875000Y-118037500D03*
X73875000Y-117537500D03*
X73875000Y-117037500D03*
D15*
X72950000Y-116112500D03*
X72450000Y-116112500D03*
X71950000Y-116112500D03*
X71450000Y-116112500D03*
X70950000Y-116112500D03*
%TD*%
D12*
%TO.C,R3*%
X70290000Y-112337500D03*
X68290000Y-112337500D03*
%TD*%
D18*
%TO.C,D2*%
X60060000Y-116077500D03*
X56760000Y-116077500D03*
%TD*%
D21*
%TO.C,D1*%
X53010000Y-121495000D03*
X53010000Y-118195000D03*
%TD*%
D20*
%TO.C,C1*%
X53130000Y-112945000D03*
X53130000Y-116070000D03*
%TD*%
D19*
%TO.C,R4*%
X56790000Y-113007500D03*
X58790000Y-113007500D03*
%TD*%
D12*
%TO.C,R1*%
X59310000Y-121357500D03*
X57310000Y-121357500D03*
%TD*%
D16*
%TO.C,D3*%
X62540000Y-112357500D03*
X65340000Y-112357500D03*
%TD*%
D17*
%TO.C,R2*%
X63350000Y-118177500D03*
X63350000Y-116177500D03*
%TD*%
D10*
%TO.C,U2*%
X86463750Y-95492500D03*
D11*
X86463750Y-98242500D03*
X86383750Y-100242500D03*
D10*
X86463750Y-102992500D03*
%TD*%
D12*
%TO.C,R3*%
X116198750Y-94222500D03*
X114198750Y-94222500D03*
%TD*%
D13*
%TO.C,U1*%
X117208750Y-99272500D03*
X117208750Y-100572500D03*
X118508750Y-99272500D03*
X118508750Y-100572500D03*
D14*
X115933750Y-98922500D03*
X115933750Y-99422500D03*
X115933750Y-99922500D03*
X115933750Y-100422500D03*
X115933750Y-100922500D03*
D15*
X116858750Y-101847500D03*
X117358750Y-101847500D03*
X117858750Y-101847500D03*
X118358750Y-101847500D03*
X118858750Y-101847500D03*
D14*
X119783750Y-100922500D03*
X119783750Y-100422500D03*
X119783750Y-99922500D03*
X119783750Y-99422500D03*
X119783750Y-98922500D03*
D15*
X118858750Y-97997500D03*
X118358750Y-97997500D03*
X117858750Y-97997500D03*
X117358750Y-97997500D03*
X116858750Y-97997500D03*
%TD*%
D21*
%TO.C,D1*%
X98918750Y-103380000D03*
X98918750Y-100080000D03*
%TD*%
D13*
%TO.C,U1*%
X71303750Y-99177500D03*
X71303750Y-100477500D03*
X72603750Y-99177500D03*
X72603750Y-100477500D03*
D14*
X70028750Y-98827500D03*
X70028750Y-99327500D03*
X70028750Y-99827500D03*
X70028750Y-100327500D03*
X70028750Y-100827500D03*
D15*
X70953750Y-101752500D03*
X71453750Y-101752500D03*
X71953750Y-101752500D03*
X72453750Y-101752500D03*
X72953750Y-101752500D03*
D14*
X73878750Y-100827500D03*
X73878750Y-100327500D03*
X73878750Y-99827500D03*
X73878750Y-99327500D03*
X73878750Y-98827500D03*
D15*
X72953750Y-97902500D03*
X72453750Y-97902500D03*
X71953750Y-97902500D03*
X71453750Y-97902500D03*
X70953750Y-97902500D03*
%TD*%
D16*
%TO.C,D3*%
X62543750Y-94147500D03*
X65343750Y-94147500D03*
%TD*%
D20*
%TO.C,C1*%
X99038750Y-94830000D03*
X99038750Y-97955000D03*
%TD*%
D18*
%TO.C,D2*%
X105968750Y-97962500D03*
X102668750Y-97962500D03*
%TD*%
D16*
%TO.C,D3*%
X108448750Y-94242500D03*
X111248750Y-94242500D03*
%TD*%
D18*
%TO.C,D2*%
X60063750Y-97867500D03*
X56763750Y-97867500D03*
%TD*%
D20*
%TO.C,C1*%
X53133750Y-94735000D03*
X53133750Y-97860000D03*
%TD*%
D12*
%TO.C,R3*%
X70293750Y-94127500D03*
X68293750Y-94127500D03*
%TD*%
D19*
%TO.C,R4*%
X56793750Y-94797500D03*
X58793750Y-94797500D03*
%TD*%
D12*
%TO.C,R1*%
X105218750Y-103242500D03*
X103218750Y-103242500D03*
%TD*%
D10*
%TO.C,U2*%
X40558750Y-95397500D03*
D11*
X40558750Y-98147500D03*
X40478750Y-100147500D03*
D10*
X40558750Y-102897500D03*
%TD*%
D21*
%TO.C,D1*%
X53013750Y-103285000D03*
X53013750Y-99985000D03*
%TD*%
D17*
%TO.C,R2*%
X109258750Y-100062500D03*
X109258750Y-98062500D03*
%TD*%
D12*
%TO.C,R1*%
X59313750Y-103147500D03*
X57313750Y-103147500D03*
%TD*%
D19*
%TO.C,R4*%
X102698750Y-94892500D03*
X104698750Y-94892500D03*
%TD*%
D17*
%TO.C,R2*%
X63353750Y-99967500D03*
X63353750Y-97967500D03*
%TD*%
D10*
%TO.C,U2*%
X86433750Y-131932500D03*
D11*
X86433750Y-134682500D03*
X86353750Y-136682500D03*
D10*
X86433750Y-139432500D03*
%TD*%
D13*
%TO.C,U1*%
X117178750Y-135712500D03*
X117178750Y-137012500D03*
X118478750Y-135712500D03*
X118478750Y-137012500D03*
D14*
X115903750Y-135362500D03*
X115903750Y-135862500D03*
X115903750Y-136362500D03*
X115903750Y-136862500D03*
X115903750Y-137362500D03*
D15*
X116828750Y-138287500D03*
X117328750Y-138287500D03*
X117828750Y-138287500D03*
X118328750Y-138287500D03*
X118828750Y-138287500D03*
D14*
X119753750Y-137362500D03*
X119753750Y-136862500D03*
X119753750Y-136362500D03*
X119753750Y-135862500D03*
X119753750Y-135362500D03*
D15*
X118828750Y-134437500D03*
X118328750Y-134437500D03*
X117828750Y-134437500D03*
X117328750Y-134437500D03*
X116828750Y-134437500D03*
%TD*%
D12*
%TO.C,R3*%
X116168750Y-130662500D03*
X114168750Y-130662500D03*
%TD*%
D18*
%TO.C,D2*%
X105938750Y-134402500D03*
X102638750Y-134402500D03*
%TD*%
D21*
%TO.C,D1*%
X98888750Y-139820000D03*
X98888750Y-136520000D03*
%TD*%
D20*
%TO.C,C1*%
X99008750Y-131270000D03*
X99008750Y-134395000D03*
%TD*%
D19*
%TO.C,R4*%
X102668750Y-131332500D03*
X104668750Y-131332500D03*
%TD*%
D16*
%TO.C,D3*%
X108418750Y-130682500D03*
X111218750Y-130682500D03*
%TD*%
D17*
%TO.C,R2*%
X109228750Y-136502500D03*
X109228750Y-134502500D03*
%TD*%
D12*
%TO.C,R1*%
X105188750Y-139682500D03*
X103188750Y-139682500D03*
%TD*%
D10*
%TO.C,U2*%
X40528750Y-131837500D03*
D11*
X40528750Y-134587500D03*
X40448750Y-136587500D03*
D10*
X40528750Y-139337500D03*
%TD*%
D13*
%TO.C,U1*%
X71273750Y-135617500D03*
X71273750Y-136917500D03*
X72573750Y-135617500D03*
X72573750Y-136917500D03*
D14*
X69998750Y-135267500D03*
X69998750Y-135767500D03*
X69998750Y-136267500D03*
X69998750Y-136767500D03*
X69998750Y-137267500D03*
D15*
X70923750Y-138192500D03*
X71423750Y-138192500D03*
X71923750Y-138192500D03*
X72423750Y-138192500D03*
X72923750Y-138192500D03*
D14*
X73848750Y-137267500D03*
X73848750Y-136767500D03*
X73848750Y-136267500D03*
X73848750Y-135767500D03*
X73848750Y-135267500D03*
D15*
X72923750Y-134342500D03*
X72423750Y-134342500D03*
X71923750Y-134342500D03*
X71423750Y-134342500D03*
X70923750Y-134342500D03*
%TD*%
D12*
%TO.C,R3*%
X70263750Y-130567500D03*
X68263750Y-130567500D03*
%TD*%
D18*
%TO.C,D2*%
X60033750Y-134307500D03*
X56733750Y-134307500D03*
%TD*%
D21*
%TO.C,D1*%
X52983750Y-139725000D03*
X52983750Y-136425000D03*
%TD*%
D20*
%TO.C,C1*%
X53103750Y-131175000D03*
X53103750Y-134300000D03*
%TD*%
D19*
%TO.C,R4*%
X56763750Y-131237500D03*
X58763750Y-131237500D03*
%TD*%
D12*
%TO.C,R1*%
X59283750Y-139587500D03*
X57283750Y-139587500D03*
%TD*%
D16*
%TO.C,D3*%
X62513750Y-130587500D03*
X65313750Y-130587500D03*
%TD*%
D17*
%TO.C,R2*%
X63323750Y-136407500D03*
X63323750Y-134407500D03*
%TD*%
D10*
%TO.C,U2*%
X86430000Y-150142500D03*
D11*
X86430000Y-152892500D03*
X86350000Y-154892500D03*
D10*
X86430000Y-157642500D03*
%TD*%
D13*
%TO.C,U1*%
X117175000Y-153922500D03*
X117175000Y-155222500D03*
X118475000Y-153922500D03*
X118475000Y-155222500D03*
D14*
X115900000Y-153572500D03*
X115900000Y-154072500D03*
X115900000Y-154572500D03*
X115900000Y-155072500D03*
X115900000Y-155572500D03*
D15*
X116825000Y-156497500D03*
X117325000Y-156497500D03*
X117825000Y-156497500D03*
X118325000Y-156497500D03*
X118825000Y-156497500D03*
D14*
X119750000Y-155572500D03*
X119750000Y-155072500D03*
X119750000Y-154572500D03*
X119750000Y-154072500D03*
X119750000Y-153572500D03*
D15*
X118825000Y-152647500D03*
X118325000Y-152647500D03*
X117825000Y-152647500D03*
X117325000Y-152647500D03*
X116825000Y-152647500D03*
%TD*%
D12*
%TO.C,R3*%
X116165000Y-148872500D03*
X114165000Y-148872500D03*
%TD*%
D18*
%TO.C,D2*%
X105935000Y-152612500D03*
X102635000Y-152612500D03*
%TD*%
D21*
%TO.C,D1*%
X98885000Y-158030000D03*
X98885000Y-154730000D03*
%TD*%
D20*
%TO.C,C1*%
X99005000Y-149480000D03*
X99005000Y-152605000D03*
%TD*%
D19*
%TO.C,R4*%
X102665000Y-149542500D03*
X104665000Y-149542500D03*
%TD*%
D12*
%TO.C,R1*%
X105185000Y-157892500D03*
X103185000Y-157892500D03*
%TD*%
D16*
%TO.C,D3*%
X108415000Y-148892500D03*
X111215000Y-148892500D03*
%TD*%
D17*
%TO.C,R2*%
X109225000Y-154712500D03*
X109225000Y-152712500D03*
%TD*%
D13*
%TO.C,U1*%
X71270000Y-153827500D03*
X71270000Y-155127500D03*
X72570000Y-153827500D03*
X72570000Y-155127500D03*
D14*
X69995000Y-153477500D03*
X69995000Y-153977500D03*
X69995000Y-154477500D03*
X69995000Y-154977500D03*
X69995000Y-155477500D03*
D15*
X70920000Y-156402500D03*
X71420000Y-156402500D03*
X71920000Y-156402500D03*
X72420000Y-156402500D03*
X72920000Y-156402500D03*
D14*
X73845000Y-155477500D03*
X73845000Y-154977500D03*
X73845000Y-154477500D03*
X73845000Y-153977500D03*
X73845000Y-153477500D03*
D15*
X72920000Y-152552500D03*
X72420000Y-152552500D03*
X71920000Y-152552500D03*
X71420000Y-152552500D03*
X70920000Y-152552500D03*
%TD*%
D19*
%TO.C,R4*%
X56760000Y-149447500D03*
X58760000Y-149447500D03*
%TD*%
D12*
%TO.C,R3*%
X70260000Y-148777500D03*
X68260000Y-148777500D03*
%TD*%
D17*
%TO.C,R2*%
X63320000Y-154617500D03*
X63320000Y-152617500D03*
%TD*%
D12*
%TO.C,R1*%
X59280000Y-157797500D03*
X57280000Y-157797500D03*
%TD*%
D16*
%TO.C,D3*%
X62510000Y-148797500D03*
X65310000Y-148797500D03*
%TD*%
D18*
%TO.C,D2*%
X56730000Y-152517500D03*
X60030000Y-152517500D03*
%TD*%
D21*
%TO.C,D1*%
X52980000Y-157935000D03*
X52980000Y-154635000D03*
%TD*%
D20*
%TO.C,C1*%
X53100000Y-149385000D03*
X53100000Y-152510000D03*
%TD*%
D10*
%TO.C,U2*%
X40525000Y-150047500D03*
D11*
X40525000Y-152797500D03*
X40445000Y-154797500D03*
D10*
X40525000Y-157547500D03*
%TD*%
M02*
