%TF.GenerationSoftware,KiCad,Pcbnew,8.0.3*%
%TF.CreationDate,2024-06-25T15:03:11+01:00*%
%TF.ProjectId,MultiPCB Panel,4d756c74-6950-4434-9220-50616e656c2e,rev?*%
%TF.SameCoordinates,Original*%
%TF.FileFunction,Profile,NP*%
%FSLAX46Y46*%
G04 Gerber Fmt 4.6, Leading zero omitted, Abs format (unit mm)*
G04 Created by KiCad (PCBNEW 8.0.3) date 2024-06-25 15:03:11*
%MOMM*%
%LPD*%
G01*
G04 APERTURE LIST*
%TA.AperFunction,Profile*%
%ADD10C,0.200000*%
%TD*%
G04 APERTURE END LIST*
D10*
X127691250Y-72737500D02*
X170531250Y-72737500D01*
X170531250Y-87827500D01*
X127691250Y-87827500D01*
X127691250Y-72737500D01*
X173596250Y-72832500D02*
X216436250Y-72832500D01*
X216436250Y-87922500D01*
X173596250Y-87922500D01*
X173596250Y-72832500D01*
X127721250Y-36297500D02*
X170561250Y-36297500D01*
X170561250Y-51387500D01*
X127721250Y-51387500D01*
X127721250Y-36297500D01*
X177351250Y-33322500D02*
X212381250Y-33322500D01*
X212381250Y-36382500D01*
X177351250Y-36382500D01*
X177351250Y-33322500D01*
X216486250Y-39102500D02*
X219506250Y-39102500D01*
X219506250Y-49132500D01*
X216486250Y-49132500D01*
X216486250Y-39102500D01*
X177321250Y-69762500D02*
X212351250Y-69762500D01*
X212351250Y-72822500D01*
X177321250Y-72822500D01*
X177321250Y-69762500D01*
X131446250Y-33227500D02*
X166476250Y-33227500D01*
X166476250Y-36287500D01*
X131446250Y-36287500D01*
X131446250Y-33227500D01*
X173626250Y-36392500D02*
X216466250Y-36392500D01*
X216466250Y-51482500D01*
X173626250Y-51482500D01*
X173626250Y-36392500D01*
X170581250Y-39007500D02*
X173601250Y-39007500D01*
X173601250Y-49037500D01*
X170581250Y-49037500D01*
X170581250Y-39007500D01*
X216456250Y-75542500D02*
X219476250Y-75542500D01*
X219476250Y-85572500D01*
X216456250Y-85572500D01*
X216456250Y-75542500D01*
X127710000Y-127290000D02*
X170550000Y-127290000D01*
X170550000Y-142380000D01*
X127710000Y-142380000D01*
X127710000Y-127290000D01*
X177340000Y-124315000D02*
X212370000Y-124315000D01*
X212370000Y-127375000D01*
X177340000Y-127375000D01*
X177340000Y-124315000D01*
X216475000Y-130095000D02*
X219495000Y-130095000D01*
X219495000Y-140125000D01*
X216475000Y-140125000D01*
X216475000Y-130095000D01*
X170570000Y-130000000D02*
X173590000Y-130000000D01*
X173590000Y-140030000D01*
X170570000Y-140030000D01*
X170570000Y-130000000D01*
X131435000Y-124220000D02*
X166465000Y-124220000D01*
X166465000Y-127280000D01*
X131435000Y-127280000D01*
X131435000Y-124220000D01*
X173615000Y-127385000D02*
X216455000Y-127385000D01*
X216455000Y-142475000D01*
X173615000Y-142475000D01*
X173615000Y-127385000D01*
X170566250Y-148210000D02*
X173586250Y-148210000D01*
X173586250Y-158240000D01*
X170566250Y-158240000D01*
X170566250Y-148210000D01*
X131431250Y-142430000D02*
X166461250Y-142430000D01*
X166461250Y-145490000D01*
X131431250Y-145490000D01*
X131431250Y-142430000D01*
X173645000Y-90945000D02*
X216485000Y-90945000D01*
X216485000Y-106035000D01*
X173645000Y-106035000D01*
X173645000Y-90945000D01*
X216505000Y-93655000D02*
X219525000Y-93655000D01*
X219525000Y-103685000D01*
X216505000Y-103685000D01*
X216505000Y-93655000D01*
X177370000Y-87875000D02*
X212400000Y-87875000D01*
X212400000Y-90935000D01*
X177370000Y-90935000D01*
X177370000Y-87875000D01*
X170600000Y-93560000D02*
X173620000Y-93560000D01*
X173620000Y-103590000D01*
X170600000Y-103590000D01*
X170600000Y-93560000D01*
X131465000Y-87780000D02*
X166495000Y-87780000D01*
X166495000Y-90840000D01*
X131465000Y-90840000D01*
X131465000Y-87780000D01*
X127740000Y-90850000D02*
X170580000Y-90850000D01*
X170580000Y-105940000D01*
X127740000Y-105940000D01*
X127740000Y-90850000D01*
X170555000Y-57237500D02*
X173575000Y-57237500D01*
X173575000Y-67267500D01*
X170555000Y-67267500D01*
X170555000Y-57237500D01*
X131420000Y-51457500D02*
X166450000Y-51457500D01*
X166450000Y-54517500D01*
X131420000Y-54517500D01*
X131420000Y-51457500D01*
X173600000Y-54622500D02*
X216440000Y-54622500D01*
X216440000Y-69712500D01*
X173600000Y-69712500D01*
X173600000Y-54622500D01*
X127695000Y-54527500D02*
X170535000Y-54527500D01*
X170535000Y-69617500D01*
X127695000Y-69617500D01*
X127695000Y-54527500D01*
X216460000Y-57332500D02*
X219480000Y-57332500D01*
X219480000Y-67362500D01*
X216460000Y-67362500D01*
X216460000Y-57332500D01*
X177325000Y-51552500D02*
X212355000Y-51552500D01*
X212355000Y-54612500D01*
X177325000Y-54612500D01*
X177325000Y-51552500D01*
X170585000Y-20797500D02*
X173605000Y-20797500D01*
X173605000Y-30827500D01*
X170585000Y-30827500D01*
X170585000Y-20797500D01*
X131450000Y-15017500D02*
X166480000Y-15017500D01*
X166480000Y-18077500D01*
X131450000Y-18077500D01*
X131450000Y-15017500D01*
X127725000Y-18087500D02*
X170565000Y-18087500D01*
X170565000Y-33177500D01*
X127725000Y-33177500D01*
X127725000Y-18087500D01*
X173630000Y-18182500D02*
X216470000Y-18182500D01*
X216470000Y-33272500D01*
X173630000Y-33272500D01*
X173630000Y-18182500D01*
X131416250Y-69667500D02*
X166446250Y-69667500D01*
X166446250Y-72727500D01*
X131416250Y-72727500D01*
X131416250Y-69667500D01*
X170551250Y-75447500D02*
X173571250Y-75447500D01*
X173571250Y-85477500D01*
X170551250Y-85477500D01*
X170551250Y-75447500D01*
X177355000Y-15112500D02*
X212385000Y-15112500D01*
X212385000Y-18172500D01*
X177355000Y-18172500D01*
X177355000Y-15112500D01*
X216490000Y-20892500D02*
X219510000Y-20892500D01*
X219510000Y-30922500D01*
X216490000Y-30922500D01*
X216490000Y-20892500D01*
X173611250Y-145595000D02*
X216451250Y-145595000D01*
X216451250Y-160685000D01*
X173611250Y-160685000D01*
X173611250Y-145595000D01*
X127706250Y-145500000D02*
X170546250Y-145500000D01*
X170546250Y-160590000D01*
X127706250Y-160590000D01*
X127706250Y-145500000D01*
X177336250Y-142525000D02*
X212366250Y-142525000D01*
X212366250Y-145585000D01*
X177336250Y-145585000D01*
X177336250Y-142525000D01*
X216471250Y-148305000D02*
X219491250Y-148305000D01*
X219491250Y-158335000D01*
X216471250Y-158335000D01*
X216471250Y-148305000D01*
X131461250Y-105990000D02*
X166491250Y-105990000D01*
X166491250Y-109050000D01*
X131461250Y-109050000D01*
X131461250Y-105990000D01*
X170596250Y-111770000D02*
X173616250Y-111770000D01*
X173616250Y-121800000D01*
X170596250Y-121800000D01*
X170596250Y-111770000D01*
X173641250Y-109155000D02*
X216481250Y-109155000D01*
X216481250Y-124245000D01*
X173641250Y-124245000D01*
X173641250Y-109155000D01*
X127736250Y-109060000D02*
X170576250Y-109060000D01*
X170576250Y-124150000D01*
X127736250Y-124150000D01*
X127736250Y-109060000D01*
X177366250Y-106085000D02*
X212396250Y-106085000D01*
X212396250Y-109145000D01*
X177366250Y-109145000D01*
X177366250Y-106085000D01*
X216501250Y-111865000D02*
X219521250Y-111865000D01*
X219521250Y-121895000D01*
X216501250Y-121895000D01*
X216501250Y-111865000D01*
X35808750Y-54375000D02*
X78648750Y-54375000D01*
X78648750Y-69465000D01*
X35808750Y-69465000D01*
X35808750Y-54375000D01*
X85438750Y-51400000D02*
X120468750Y-51400000D01*
X120468750Y-54460000D01*
X85438750Y-54460000D01*
X85438750Y-51400000D01*
X124573750Y-57180000D02*
X127593750Y-57180000D01*
X127593750Y-67210000D01*
X124573750Y-67210000D01*
X124573750Y-57180000D01*
X78668750Y-57085000D02*
X81688750Y-57085000D01*
X81688750Y-67115000D01*
X78668750Y-67115000D01*
X78668750Y-57085000D01*
X39533750Y-51305000D02*
X74563750Y-51305000D01*
X74563750Y-54365000D01*
X39533750Y-54365000D01*
X39533750Y-51305000D01*
X81713750Y-54470000D02*
X124553750Y-54470000D01*
X124553750Y-69560000D01*
X81713750Y-69560000D01*
X81713750Y-54470000D01*
X78665000Y-75295000D02*
X81685000Y-75295000D01*
X81685000Y-85325000D01*
X78665000Y-85325000D01*
X78665000Y-75295000D01*
X39530000Y-69515000D02*
X74560000Y-69515000D01*
X74560000Y-72575000D01*
X39530000Y-72575000D01*
X39530000Y-69515000D01*
X81743750Y-18030000D02*
X124583750Y-18030000D01*
X124583750Y-33120000D01*
X81743750Y-33120000D01*
X81743750Y-18030000D01*
X124603750Y-20740000D02*
X127623750Y-20740000D01*
X127623750Y-30770000D01*
X124603750Y-30770000D01*
X124603750Y-20740000D01*
X85468750Y-14960000D02*
X120498750Y-14960000D01*
X120498750Y-18020000D01*
X85468750Y-18020000D01*
X85468750Y-14960000D01*
X78698750Y-20645000D02*
X81718750Y-20645000D01*
X81718750Y-30675000D01*
X78698750Y-30675000D01*
X78698750Y-20645000D01*
X39563750Y-14865000D02*
X74593750Y-14865000D01*
X74593750Y-17925000D01*
X39563750Y-17925000D01*
X39563750Y-14865000D01*
X35838750Y-17935000D02*
X78678750Y-17935000D01*
X78678750Y-33025000D01*
X35838750Y-33025000D01*
X35838750Y-17935000D01*
X81710000Y-72680000D02*
X124550000Y-72680000D01*
X124550000Y-87770000D01*
X81710000Y-87770000D01*
X81710000Y-72680000D01*
X35805000Y-72585000D02*
X78645000Y-72585000D01*
X78645000Y-87675000D01*
X35805000Y-87675000D01*
X35805000Y-72585000D01*
X85435000Y-69610000D02*
X120465000Y-69610000D01*
X120465000Y-72670000D01*
X85435000Y-72670000D01*
X85435000Y-69610000D01*
X124570000Y-75390000D02*
X127590000Y-75390000D01*
X127590000Y-85420000D01*
X124570000Y-85420000D01*
X124570000Y-75390000D01*
X39560000Y-33075000D02*
X74590000Y-33075000D01*
X74590000Y-36135000D01*
X39560000Y-36135000D01*
X39560000Y-33075000D01*
X78695000Y-38855000D02*
X81715000Y-38855000D01*
X81715000Y-48885000D01*
X78695000Y-48885000D01*
X78695000Y-38855000D01*
X81740000Y-36240000D02*
X124580000Y-36240000D01*
X124580000Y-51330000D01*
X81740000Y-51330000D01*
X81740000Y-36240000D01*
X35835000Y-36145000D02*
X78675000Y-36145000D01*
X78675000Y-51235000D01*
X35835000Y-51235000D01*
X35835000Y-36145000D01*
X85465000Y-33170000D02*
X120495000Y-33170000D01*
X120495000Y-36230000D01*
X85465000Y-36230000D01*
X85465000Y-33170000D01*
X124600000Y-38950000D02*
X127620000Y-38950000D01*
X127620000Y-48980000D01*
X124600000Y-48980000D01*
X124600000Y-38950000D01*
X35853750Y-90697500D02*
X78693750Y-90697500D01*
X78693750Y-105787500D01*
X35853750Y-105787500D01*
X35853750Y-90697500D01*
X85483750Y-87722500D02*
X120513750Y-87722500D01*
X120513750Y-90782500D01*
X85483750Y-90782500D01*
X85483750Y-87722500D01*
X124618750Y-93502500D02*
X127638750Y-93502500D01*
X127638750Y-103532500D01*
X124618750Y-103532500D01*
X124618750Y-93502500D01*
X78713750Y-93407500D02*
X81733750Y-93407500D01*
X81733750Y-103437500D01*
X78713750Y-103437500D01*
X78713750Y-93407500D01*
X39578750Y-87627500D02*
X74608750Y-87627500D01*
X74608750Y-90687500D01*
X39578750Y-90687500D01*
X39578750Y-87627500D01*
X81758750Y-90792500D02*
X124598750Y-90792500D01*
X124598750Y-105882500D01*
X81758750Y-105882500D01*
X81758750Y-90792500D01*
X78710000Y-111617500D02*
X81730000Y-111617500D01*
X81730000Y-121647500D01*
X78710000Y-121647500D01*
X78710000Y-111617500D01*
X39575000Y-105837500D02*
X74605000Y-105837500D01*
X74605000Y-108897500D01*
X39575000Y-108897500D01*
X39575000Y-105837500D01*
X81755000Y-109002500D02*
X124595000Y-109002500D01*
X124595000Y-124092500D01*
X81755000Y-124092500D01*
X81755000Y-109002500D01*
X35850000Y-108907500D02*
X78690000Y-108907500D01*
X78690000Y-123997500D01*
X35850000Y-123997500D01*
X35850000Y-108907500D01*
X85480000Y-105932500D02*
X120510000Y-105932500D01*
X120510000Y-108992500D01*
X85480000Y-108992500D01*
X85480000Y-105932500D01*
X124615000Y-111712500D02*
X127635000Y-111712500D01*
X127635000Y-121742500D01*
X124615000Y-121742500D01*
X124615000Y-111712500D01*
X78683750Y-129847500D02*
X81703750Y-129847500D01*
X81703750Y-139877500D01*
X78683750Y-139877500D01*
X78683750Y-129847500D01*
X39548750Y-124067500D02*
X74578750Y-124067500D01*
X74578750Y-127127500D01*
X39548750Y-127127500D01*
X39548750Y-124067500D01*
X81728750Y-127232500D02*
X124568750Y-127232500D01*
X124568750Y-142322500D01*
X81728750Y-142322500D01*
X81728750Y-127232500D01*
X35823750Y-127137500D02*
X78663750Y-127137500D01*
X78663750Y-142227500D01*
X35823750Y-142227500D01*
X35823750Y-127137500D01*
X85453750Y-124162500D02*
X120483750Y-124162500D01*
X120483750Y-127222500D01*
X85453750Y-127222500D01*
X85453750Y-124162500D01*
X124588750Y-129942500D02*
X127608750Y-129942500D01*
X127608750Y-139972500D01*
X124588750Y-139972500D01*
X124588750Y-129942500D01*
X124585000Y-148152500D02*
X127605000Y-148152500D01*
X127605000Y-158182500D01*
X124585000Y-158182500D01*
X124585000Y-148152500D01*
X85450000Y-142372500D02*
X120480000Y-142372500D01*
X120480000Y-145432500D01*
X85450000Y-145432500D01*
X85450000Y-142372500D01*
X81725000Y-145442500D02*
X124565000Y-145442500D01*
X124565000Y-160532500D01*
X81725000Y-160532500D01*
X81725000Y-145442500D01*
X78680000Y-148057500D02*
X81700000Y-148057500D01*
X81700000Y-158087500D01*
X78680000Y-158087500D01*
X78680000Y-148057500D01*
X39545000Y-142277500D02*
X74575000Y-142277500D01*
X74575000Y-145337500D01*
X39545000Y-145337500D01*
X39545000Y-142277500D01*
X35820000Y-145347500D02*
X78660000Y-145347500D01*
X78660000Y-160437500D01*
X35820000Y-160437500D01*
X35820000Y-145347500D01*
M02*
